<svg xmlns="http://www.w3.org/2000/svg" xmlns:xlink="http://www.w3.org/1999/xlink" width="2000" zoomAndPan="magnify" viewBox="0 0 1500 1499.999933" height="2000" preserveAspectRatio="xMidYMid meet" version="1.0"><defs><filter x="0%" y="0%" width="100%" height="100%" id="56e6ea1ead"><feColorMatrix values="0 0 0 0 1 0 0 0 0 1 0 0 0 0 1 0 0 0 1 0" color-interpolation-filters="sRGB"/></filter><g/><clipPath id="66551f5ee8"><path d="M 479 457 L 1074 457 L 1074 1084 L 479 1084 Z M 479 457 " clip-rule="nonzero"/></clipPath><clipPath id="e1686b993b"><path d="M 601.585938 368.660156 L 1094.210938 541.292969 L 887.351562 1131.597656 L 394.722656 958.964844 Z M 601.585938 368.660156 " clip-rule="nonzero"/></clipPath><clipPath id="3bb907a2c7"><path d="M 601.585938 368.660156 L 1094.210938 541.292969 L 887.351562 1131.597656 L 394.722656 958.964844 Z M 601.585938 368.660156 " clip-rule="nonzero"/></clipPath><clipPath id="e6a48d660b"><path d="M 636 557 L 1059 557 L 1059 1034 L 636 1034 Z M 636 557 " clip-rule="nonzero"/></clipPath><clipPath id="2276ea1b6a"><path d="M 601.585938 368.660156 L 1094.210938 541.292969 L 887.351562 1131.597656 L 394.722656 958.964844 Z M 601.585938 368.660156 " clip-rule="nonzero"/></clipPath><clipPath id="5dae45da2e"><path d="M 601.585938 368.660156 L 1094.210938 541.292969 L 887.351562 1131.597656 L 394.722656 958.964844 Z M 601.585938 368.660156 " clip-rule="nonzero"/></clipPath><mask id="0a947f632c"><g filter="url(#56e6ea1ead)"><rect x="-150" width="1800" fill="#000000" y="-149.999993" height="1799.99992" fill-opacity="0.07"/></g></mask><clipPath id="a713f1a7ac"><path d="M 73 86 L 448 86 L 448 453 L 73 453 Z M 73 86 " clip-rule="nonzero"/></clipPath><clipPath id="18c966a6b9"><path d="M 309.550781 0.898438 L 528.589844 294.121094 L 219.746094 524.828125 L 0.707031 231.605469 Z M 309.550781 0.898438 " clip-rule="nonzero"/></clipPath><clipPath id="1462118656"><path d="M 309.550781 0.898438 L 528.589844 294.121094 L 219.746094 524.828125 L 0.707031 231.605469 Z M 309.550781 0.898438 " clip-rule="nonzero"/></clipPath><clipPath id="2d139f1740"><rect x="0" width="529" y="0" height="526"/></clipPath><clipPath id="c3988ae5e9"><rect x="0" width="437" y="0" height="142"/></clipPath></defs><g clip-path="url(#66551f5ee8)"><g clip-path="url(#e1686b993b)"><g clip-path="url(#3bb907a2c7)"><path fill="#1800ad" d="M 479.648438 760.558594 C 480.351562 734.027344 484.449219 707.207031 492.246094 680.679688 L 549.074219 683.542969 C 549.105469 683.453125 549.128906 683.363281 549.160156 683.28125 C 554.957031 666.734375 562.28125 651.167969 570.890625 636.648438 L 535.070312 590.636719 C 550.21875 568.652344 567.941406 548.957031 587.683594 531.859375 L 634 565.035156 C 649.085938 553.273438 665.367188 543.199219 682.574219 535.046875 L 677.351562 477.332031 C 701.265625 467.804688 726.398438 461.1875 752.15625 457.757812 L 770.089844 502.90625 C 794.027344 496.550781 818.875 493.222656 844.070312 493.09375 L 860.148438 462.269531 C 872.523438 464.976562 884.875 468.457031 897.128906 472.75 C 909.390625 477.046875 921.207031 482.039062 932.570312 487.648438 L 929.136719 505.203125 C 933.832031 506.589844 938.511719 508.089844 943.191406 509.730469 C 996.054688 528.253906 1040.320312 560.296875 1073.472656 600.621094 C 1045.546875 573.671875 1011.507812 552.152344 972.484375 538.476562 C 827.675781 487.730469 669.148438 563.984375 618.402344 708.792969 C 567.65625 853.601562 643.910156 1012.128906 788.71875 1062.875 C 827.742188 1076.550781 867.765625 1080.984375 906.410156 1077.355469 C 855.339844 1088.164062 800.757812 1085.566406 747.890625 1067.039062 C 719.230469 1056.996094 693.101562 1042.972656 669.894531 1025.808594 L 649.027344 1047.472656 C 623.71875 1034.398438 600.785156 1018.183594 580.535156 999.488281 L 602.855469 956.492188 C 594.078125 943.789062 586.25 930.46875 579.5625 916.59375 L 524.015625 929.773438 C 509.863281 906.058594 498.855469 880.523438 491.332031 853.886719 L 540.882812 825.453125 C 537.539062 810.589844 535.503906 795.375 534.839844 779.96875 L 479.648438 760.558594 " fill-opacity="1" fill-rule="nonzero"/></g></g></g><g clip-path="url(#e6a48d660b)"><g clip-path="url(#2276ea1b6a)"><g clip-path="url(#5dae45da2e)"><path fill="#1800ad" d="M 923.511719 1028.546875 C 892.371094 1031.46875 860.109375 1027.902344 828.65625 1016.878906 C 711.9375 975.976562 650.472656 848.199219 691.375 731.480469 C 732.277344 614.757812 860.054688 553.304688 976.773438 594.207031 C 1008.226562 605.230469 1035.660156 622.570312 1058.164062 644.292969 C 1031.449219 611.792969 995.765625 585.96875 953.15625 571.039062 C 829.113281 527.570312 693.320312 592.886719 649.851562 716.929688 C 606.386719 840.972656 671.703125 976.761719 795.746094 1020.230469 C 838.355469 1035.164062 882.34375 1037.261719 923.511719 1028.546875 " fill-opacity="1" fill-rule="nonzero"/></g></g></g><g mask="url(#0a947f632c)"><g transform="matrix(1, 0, 0, 1, 636, 533)"><g clip-path="url(#2d139f1740)"><g clip-path="url(#a713f1a7ac)"><g clip-path="url(#18c966a6b9)"><g clip-path="url(#1462118656)"><path fill="#1800ad" d="M 416.496094 147.40625 C 421.527344 150.460938 425.609375 155.144531 427.644531 160.695312 C 428.949219 163.949219 429.222656 167.660156 431.542969 170.453125 C 438.511719 180.296875 444.226562 191.164062 447.277344 202.878906 C 448.757812 208.929688 445.828125 215.050781 441.976562 219.574219 C 439.285156 222.753906 435.492188 224.601562 431.742188 226.21875 C 434.875 237.242188 436.5 248.617188 437.457031 260.019531 C 440.570312 299.214844 429.519531 339.105469 407.90625 371.828125 C 396.265625 389.054688 381.625 404.195312 364.980469 416.632812 C 347.878906 429.535156 328.308594 439.0625 307.796875 445.152344 C 276.847656 453.953125 243.566406 454.527344 212.398438 446.480469 C 174.285156 436.898438 139.449219 414.757812 114.800781 384.117188 C 96.699219 361.992188 84.257812 335.429688 78.0625 307.566406 C 73.707031 287.066406 72.710938 265.855469 75.402344 245.058594 C 78.355469 221.835938 85.78125 199.167969 97.226562 178.734375 C 109.632812 156.578125 126.847656 137.148438 147.320312 122.121094 C 162.375 111.175781 178.984375 102.328125 196.605469 96.292969 C 220.324219 88.523438 245.558594 85.308594 270.472656 87.039062 C 292.457031 88.683594 314.1875 93.828125 334.519531 102.367188 C 344.738281 106.558594 354.480469 111.8125 364.550781 116.332031 C 366.957031 117.136719 369.523438 117.316406 371.945312 118.109375 C 386.484375 122.457031 398.972656 131.9375 409.058594 143.078125 C 411.207031 145.03125 414.109375 145.800781 416.496094 147.40625 Z M 428.402344 195.109375 C 431.1875 197.332031 431.066406 202.421875 427.980469 204.339844 C 426.582031 205.351562 423.753906 204.601562 424.101562 202.554688 C 425.042969 201.132812 426.253906 199.769531 425.988281 197.9375 C 425.757812 196.617188 427.019531 194.421875 428.402344 195.109375 Z M 406.246094 152.335938 C 402.152344 150.917969 397.476562 150.683594 394.089844 147.699219 C 396.59375 148.085938 399.113281 148.410156 401.652344 148.285156 C 398.011719 144.582031 394.269531 140.890625 389.851562 138.121094 C 387.253906 136.21875 382.367188 138.035156 382.683594 141.566406 C 383.320312 147.027344 387 152.035156 391.976562 154.359375 C 396.542969 156.535156 401.667969 157.191406 406.160156 159.582031 C 404.769531 158.082031 403.046875 156.980469 401.386719 155.824219 C 406.519531 156.476562 410.730469 160.394531 412.855469 164.957031 C 415.179688 170.148438 414.492188 175.984375 415.535156 181.464844 C 416.214844 185.339844 418.125 188.847656 420.128906 192.191406 C 422.300781 190.015625 425.296875 188.324219 428.464844 188.707031 C 430.878906 188.898438 432.597656 190.796875 434.3125 192.292969 C 431.925781 186.074219 428.515625 180.273438 424.539062 174.941406 C 424.367188 177.910156 424.324219 180.890625 423.855469 183.832031 C 421.160156 176.921875 422.359375 169.066406 418.910156 162.402344 C 416.394531 157.390625 411.574219 153.859375 406.25 152.335938 Z M 431.488281 193.269531 C 429.652344 191.195312 426.464844 190.34375 423.972656 191.734375 C 421.5 192.753906 420.332031 195.25 418.886719 197.304688 C 418.878906 195.839844 419.160156 194.390625 419.355469 192.941406 C 416.09375 189.496094 412.296875 186.574219 408.457031 183.808594 C 405.988281 183.277344 403.390625 183.410156 400.960938 182.617188 C 397.226562 181.691406 394.09375 178.890625 392.535156 175.414062 C 391.054688 171.6875 391.191406 167.53125 392.050781 163.683594 C 392.714844 161.617188 390.601562 160.160156 389.617188 158.617188 C 385.339844 165.054688 387.296875 173.816406 392.023438 179.4375 C 395.191406 183.621094 400.082031 185.90625 405.007812 187.308594 C 399.425781 188.003906 393.796875 185.648438 389.753906 181.875 C 387.097656 182.398438 384.832031 184.210938 384.40625 186.988281 C 387.238281 189.195312 390.195312 191.234375 393.183594 193.21875 C 394.46875 190.878906 396.84375 189.539062 399.417969 189.121094 C 397.6875 190.582031 396.195312 192.371094 395.742188 194.65625 C 398.8125 196.636719 402.015625 198.40625 405.328125 199.9375 C 406.753906 197.863281 408.695312 196.144531 411.074219 195.28125 C 409.710938 197.085938 408.453125 198.992188 407.636719 201.113281 C 410.570312 202.636719 413.449219 204.300781 416.570312 205.445312 C 417.421875 204.398438 418.332031 203.402344 419.269531 202.433594 C 418.929688 203.738281 418.589844 205.039062 418.269531 206.351562 C 421.519531 207.976562 424.761719 209.628906 427.84375 211.554688 C 430.203125 210.839844 432.464844 209.867188 434.671875 208.792969 C 433.398438 210.800781 431.457031 212.308594 429.289062 213.257812 C 429.875 214.742188 430.390625 216.265625 430.910156 217.785156 C 434.265625 215.828125 437.304688 213.007812 438.707031 209.3125 C 439.914062 205.941406 438.496094 202.335938 437.0625 199.273438 C 435.453125 197.070312 433.285156 195.328125 431.488281 193.269531 Z M 374.382812 129.148438 C 372.464844 128.523438 370.425781 128.003906 368.414062 128.394531 C 368.855469 130.117188 369.632812 131.71875 370.421875 133.304688 C 374.089844 133.316406 377.601562 134.722656 380.453125 136.972656 C 381.722656 135.796875 383.234375 134.960938 384.867188 134.417969 C 381.558594 132.316406 378.105469 130.386719 374.382812 129.148438 Z M 398.214844 164.707031 C 395.125 167.394531 394.503906 172.367188 397.082031 175.621094 C 399.417969 171.203125 403.359375 167.730469 408.222656 166.390625 C 406.449219 162.640625 401.144531 162.039062 398.214844 164.707031 Z M 409.515625 168.855469 C 406.730469 172.835938 402.527344 175.777344 397.667969 176.457031 C 400.320312 178.964844 404.792969 179.746094 407.851562 177.53125 C 410.449219 175.488281 410.710938 171.738281 409.515625 168.855469 Z M 369.195312 136.199219 C 369.804688 140.539062 372.851562 143.929688 374.953125 147.609375 C 371.980469 146.257812 369.746094 143.648438 366.605469 142.589844 C 363.332031 141.117188 359.707031 141.867188 356.257812 141.546875 C 359.308594 138.957031 363.554688 138.789062 367.210938 140 C 366.523438 137.867188 365.890625 135.253906 367.707031 133.457031 C 363.640625 130.925781 358.375 129.722656 353.796875 131.5 C 353.800781 134.226562 354.523438 136.871094 355.507812 139.402344 L 354.964844 139.742188 C 353.339844 137.28125 351.398438 134.683594 351.382812 131.601562 C 351.347656 129.792969 353.132812 128.773438 354.65625 128.3125 C 358.089844 127.347656 361.726562 128.023438 365.09375 128.933594 C 365.472656 128.15625 365.863281 127.378906 366.261719 126.613281 C 362.503906 125.574219 358.636719 124.882812 354.734375 124.882812 C 350.6875 125.011719 346.386719 125.261719 342.894531 127.5625 C 339.980469 127.261719 337.039062 126.761719 334.105469 127.117188 C 332.140625 127.378906 329.792969 127.519531 328.722656 129.464844 C 330.8125 132.105469 332.777344 134.90625 333.96875 138.089844 C 330.800781 136.699219 328.941406 133.417969 325.789062 132.027344 C 321.902344 130.898438 317.753906 132.269531 314.355469 134.1875 C 315.832031 135.910156 317.046875 138.125 319.273438 138.996094 C 322.722656 140.542969 326.03125 142.375 329.453125 143.980469 C 334.425781 139.917969 340.96875 137.605469 347.410156 138.378906 C 339.773438 141 332.773438 146.527344 329.851562 154.222656 C 327.515625 160.53125 328.273438 167.605469 330.386719 173.863281 C 331.984375 170.671875 334.40625 168.027344 336.347656 165.074219 C 335.789062 162.53125 334.3125 160.183594 334.339844 157.507812 C 334.117188 153.390625 336.683594 149.628906 340.074219 147.5 C 339.214844 149.503906 337.863281 151.328125 337.457031 153.515625 C 336.84375 156.347656 337.621094 159.230469 338.476562 161.929688 C 340.25 160.542969 342.136719 159.164062 344.410156 158.78125 C 342.695312 161.105469 340.300781 163.082031 339.5625 165.988281 C 338.628906 169.675781 339.96875 173.402344 341.148438 176.875 C 343.828125 175.140625 347.070312 174.878906 350.152344 175.320312 C 349.941406 171.363281 349.605469 167.285156 347.753906 163.710938 C 345.601562 159.277344 343.5625 154.140625 345.273438 149.214844 C 346.292969 146.039062 350.097656 144.980469 353.074219 145.570312 C 357.628906 146.535156 361.574219 149.199219 365.28125 151.894531 C 372.660156 149.519531 380.664062 153.078125 385.699219 158.535156 C 386.339844 157.804688 386.988281 157.089844 387.648438 156.378906 C 384.730469 154.269531 382.578125 151.273438 381 148.074219 C 379.425781 144.949219 378.601562 141.296875 379.890625 137.921875 C 376.539062 136.558594 372.835938 135.664062 369.199219 136.199219 Z M 368.308594 154.523438 C 369.171875 156.292969 369.992188 158.085938 370.792969 159.894531 C 372.695312 164.203125 375.460938 168.066406 377.367188 172.371094 C 380.359375 173.609375 382.957031 175.726562 384.285156 178.75 C 382.234375 177.605469 380.320312 176.175781 378.128906 175.320312 C 375.992188 174.761719 374.621094 176.871094 373.472656 178.300781 C 376.21875 180.65625 379.152344 182.777344 382.003906 185.007812 C 383.371094 182.347656 386.210938 181.042969 389.089844 180.875 C 385.097656 175.320312 382.949219 168.226562 384.574219 161.441406 C 380.53125 156.933594 374.511719 153.617188 368.308594 154.523438 Z M 418.667969 216.335938 C 416.289062 220.335938 412.617188 223.234375 408.578125 225.433594 C 414.675781 225.269531 421 223.328125 425.332031 218.863281 C 423.15625 217.902344 420.902344 217.140625 418.667969 216.335938 Z M 338.765625 116.0625 C 340.601562 117.789062 342.121094 119.816406 343.523438 121.902344 C 345.492188 121.386719 347.496094 120.996094 349.496094 120.632812 C 345.980469 118.972656 342.429688 117.378906 338.765625 116.0625 Z M 405.609375 206.042969 C 402.238281 210.328125 397.894531 213.792969 392.8125 215.808594 C 400.109375 216.875 407.597656 213.992188 413.195312 209.378906 C 410.714844 208.148438 408.167969 207.082031 405.609375 206.042969 Z M 357.488281 153.398438 C 354 154.472656 352.222656 158.550781 353.269531 161.902344 C 354.734375 164.171875 356.746094 166.019531 358.65625 167.910156 C 360.265625 163.878906 364.765625 161.96875 368.894531 162.296875 C 367.703125 160.167969 366.785156 157.890625 365.40625 155.882812 C 363.421875 153.828125 360.359375 152.039062 357.488281 153.398438 Z M 418.988281 228.234375 C 415.863281 229.054688 412.640625 229.398438 409.53125 230.269531 C 413.238281 233.011719 416.921875 236.035156 418.796875 240.390625 C 419.835938 236.421875 419.890625 232.234375 418.988281 228.234375 Z M 334.433594 117.886719 C 330.601562 115.445312 325.753906 115.558594 321.511719 116.722656 C 324.316406 119.003906 326.582031 121.828125 328.472656 124.898438 C 332.101562 123.664062 335.964844 123.53125 339.757812 123.613281 C 338.214844 121.507812 336.757812 119.210938 334.4375 117.882812 Z M 360.972656 169.996094 C 364.191406 172.410156 367.59375 174.546875 371.050781 176.609375 C 372.210938 175.121094 373.625 173.871094 375.328125 173.050781 C 373.773438 170.484375 372.257812 167.894531 370.734375 165.304688 C 366.910156 163.773438 361.769531 165.664062 360.972656 169.996094 Z M 409.808594 217.835938 C 404.824219 219.097656 399.8125 220.917969 394.578125 220.445312 C 396.769531 224.980469 395.523438 230.226562 393.316406 234.492188 C 397.007812 237.289062 400.371094 240.707031 402.058594 245.105469 C 404.871094 241.226562 406.183594 236.382812 406.007812 231.625 C 405.859375 230.878906 406.164062 229.578125 405.039062 229.613281 C 402.558594 229.070312 400.085938 228.261719 398.128906 226.578125 C 401.621094 224.234375 405.558594 222.605469 408.894531 220.023438 C 409.785156 219.589844 409.878906 218.703125 409.808594 217.835938 Z M 422.988281 236.90625 C 422.730469 239.90625 421.664062 242.707031 420.40625 245.402344 C 420.335938 249.816406 419.476562 254.257812 417.222656 258.113281 C 419.492188 261.519531 421.3125 265.230469 422.378906 269.195312 C 424.472656 265.484375 425.851562 261.316406 425.796875 257.03125 C 425.695312 250.238281 424.425781 243.527344 422.988281 236.90625 Z M 313.371094 106.371094 C 315.96875 108.003906 317.957031 110.367188 319.871094 112.730469 C 322.761719 112.050781 325.726562 111.640625 328.707031 111.695312 C 323.652344 109.761719 318.636719 107.667969 313.371094 106.371094 Z M 351.34375 148.675781 C 350.199219 148.695312 349.074219 149.457031 348.863281 150.632812 C 348.347656 153.167969 349.519531 155.628906 350.492188 157.902344 C 351.378906 154.253906 354.40625 151.753906 357.84375 150.574219 C 355.78125 149.6875 353.671875 148.480469 351.34375 148.675781 Z M 387.535156 200.511719 C 387.453125 202.9375 387.351562 205.371094 387.015625 207.785156 C 388.535156 209.121094 390.097656 210.421875 391.671875 211.714844 C 393.328125 210.808594 395.054688 209.992188 396.515625 208.765625 C 397.113281 208.164062 398.152344 207.140625 397.320312 206.289062 C 394.984375 203.109375 391.148438 201.675781 387.535156 200.511719 Z M 409.195312 233.6875 C 408.792969 237.757812 407.898438 241.824219 405.925781 245.433594 C 409.289062 248.96875 411.6875 253.300781 413.046875 257.976562 C 416.148438 253.949219 417.753906 248.574219 416.472656 243.570312 C 415.433594 239.464844 412.492188 236.183594 409.195312 233.6875 Z M 375.6875 200.628906 C 376.464844 201.96875 376.984375 203.515625 378.011719 204.703125 C 379.835938 205.65625 381.769531 206.386719 383.667969 207.191406 C 384.503906 204.867188 384.761719 202.386719 384.609375 199.921875 C 381.625 199.378906 378.566406 199.714844 375.6875 200.628906 Z M 369.078125 182.347656 C 364.597656 181.574219 360.238281 183.671875 356.761719 186.347656 C 358.546875 183.207031 361.539062 180.941406 364.824219 179.558594 C 361.382812 177.816406 358.273438 175.503906 355.496094 172.839844 C 355.867188 174.621094 356.050781 176.457031 355.878906 178.28125 C 355.402344 184.429688 354.289062 190.503906 353.214844 196.570312 C 355.550781 193.410156 358.175781 190.351562 361.519531 188.214844 C 364.8125 186.125 368.695312 185.277344 372.5 184.703125 C 371.378906 183.886719 370.332031 182.949219 369.078125 182.347656 Z M 307.902344 108.324219 C 304.097656 106.925781 299.882812 107.574219 296.300781 109.296875 C 299.433594 111.226562 302.0625 113.828125 304.335938 116.703125 C 307.902344 114.976562 311.902344 114.363281 315.832031 114.691406 C 313.769531 111.96875 311.230469 109.402344 307.902344 108.324219 Z M 316.394531 118.773438 C 312.347656 117.527344 307.871094 118.5 304.429688 120.875 C 307.5 124.132812 310.480469 127.5 312.597656 131.476562 C 316.234375 129.234375 320.488281 128.191406 324.75 128.398438 C 324.925781 127.472656 325.21875 126.449219 324.527344 125.648438 C 322.660156 122.582031 319.933594 119.785156 316.394531 118.773438 Z M 379.429688 208.671875 C 380.792969 210.980469 381.867188 213.449219 382.863281 215.9375 C 383.003906 216.03125 383.285156 216.214844 383.425781 216.296875 C 385.261719 215.03125 387.261719 213.992188 389.304688 213.066406 C 386.789062 210.054688 382.574219 210.566406 379.429688 208.671875 Z M 386.3125 218.484375 C 385.386719 218.128906 384.519531 217.371094 383.484375 217.652344 C 385.902344 223.316406 387.621094 229.253906 389.3125 235.171875 C 392.292969 230.859375 393.601562 225.59375 393.402344 220.386719 C 390.972656 220.035156 388.542969 219.527344 386.3125 218.484375 Z M 426.84375 268.277344 C 425.792969 270.515625 424.308594 272.492188 422.914062 274.519531 C 424.148438 277.300781 425.695312 279.953125 426.65625 282.863281 C 426.976562 278.007812 427.15625 273.128906 426.84375 268.277344 Z M 285.210938 99.875 C 288.332031 101.257812 291.140625 103.242188 293.460938 105.75 C 296.101562 104.515625 298.839844 103.480469 301.730469 103.027344 C 296.296875 101.621094 290.761719 100.628906 285.210938 99.875 Z M 367.695312 196.988281 C 367.722656 198.332031 368.207031 199.617188 368.546875 200.90625 C 370.324219 206.820312 371.976562 212.78125 373.007812 218.867188 C 373.742188 218.660156 374.480469 218.453125 375.222656 218.253906 C 375.136719 220.046875 374.402344 221.683594 373.777344 223.332031 C 373.765625 224.996094 374.164062 226.628906 374.351562 228.285156 C 375.796875 227.8125 377.257812 227.402344 378.738281 227.066406 C 378.390625 230.007812 376.914062 232.625 375.113281 234.917969 C 375.59375 236.550781 375.863281 238.257812 376.523438 239.835938 C 377.113281 240.582031 378.402344 241.839844 379.257812 240.6875 C 380.796875 238.769531 381.589844 236.359375 382.324219 234.039062 C 383.371094 230.648438 381.613281 227.347656 380.582031 224.203125 C 377.292969 214.691406 373.097656 205.488281 367.695312 196.988281 Z M 415.335938 260.890625 C 414.453125 261.453125 413.480469 262.25 412.429688 261.539062 C 411.863281 265.5 409.855469 269.050781 407.464844 272.191406 C 410.050781 275.777344 411.566406 279.96875 412.546875 284.25 C 415.910156 281.917969 418.21875 278.097656 418.914062 274.082031 C 419.742188 269.382812 417.574219 264.867188 415.335938 260.890625 Z M 404.246094 247.800781 C 403.511719 248.367188 402.769531 248.9375 402.015625 249.488281 C 401.320312 253.558594 398.828125 256.964844 396.574219 260.3125 C 400.125 263.246094 402.804688 266.667969 403.5 271.242188 C 406.984375 267.886719 409.703125 263.164062 409.140625 258.179688 C 408.804688 254.242188 406.34375 250.988281 404.246094 247.800781 Z M 341.867188 180.976562 C 340.207031 184.097656 340.949219 187.738281 341.433594 191.054688 C 343.894531 190.699219 346.382812 190.929688 348.808594 191.460938 C 349.441406 186.464844 350.234375 181.457031 350.179688 176.402344 C 346.933594 176.644531 343.46875 177.929688 341.867188 180.976562 Z M 391.734375 236.777344 C 391.1875 237.839844 390.160156 238.921875 390.683594 240.21875 C 392.109375 246.296875 392.828125 252.5 393.65625 258.675781 C 396.496094 255.363281 399.175781 251.320312 398.925781 246.769531 C 398.394531 242.476562 394.929688 239.339844 391.734375 236.777344 Z M 322.585938 147.566406 C 316.800781 147.550781 311.105469 149.9375 307.035156 154.050781 C 311.921875 156.160156 316.605469 158.714844 321.144531 161.5 C 321.503906 156.789062 323.078125 152.1875 325.777344 148.304688 C 324.730469 147.988281 323.683594 147.601562 322.582031 147.566406 Z M 292.089844 112.167969 C 288.007812 111.324219 283.839844 113.070312 280.71875 115.625 C 283.261719 118.640625 286.617188 120.871094 289.035156 124.027344 C 292.53125 121.992188 296.398438 120.585938 300.453125 120.335938 C 300.464844 119.515625 300.585938 118.695312 300.398438 117.894531 C 298.328125 115.199219 295.519531 112.804688 292.089844 112.167969 Z M 308.714844 140.292969 C 306.679688 139.691406 304.546875 140.371094 302.613281 141.019531 C 298.480469 142.417969 294.8125 145.183594 292.523438 148.925781 C 296.148438 150.03125 299.769531 151.167969 303.324219 152.5 C 307.503906 147.375 314.140625 145.453125 320.507812 145.167969 C 316.632812 143.410156 312.757812 141.636719 308.714844 140.292969 Z M 421.160156 279.066406 C 419.554688 281.960938 417.726562 284.746094 415.324219 287.046875 C 417.160156 290.507812 418.398438 294.3125 418.667969 298.242188 C 423.941406 293.425781 424.792969 285.113281 421.160156 279.066406 Z M 302.039062 124.410156 C 296.984375 123.1875 291.941406 125.867188 288.023438 128.832031 C 295.832031 130.324219 303.457031 132.644531 310.917969 135.359375 C 308.90625 131.144531 306.375 126.5625 302.039062 124.410156 Z M 270 105.984375 C 273.269531 107.53125 276.128906 109.746094 278.804688 112.15625 C 282.171875 110.011719 285.960938 108.703125 289.882812 108.042969 C 284.910156 102.558594 276.011719 101.683594 270 105.984375 Z M 336.367188 170.292969 C 334.15625 173.71875 331.472656 178.039062 333.339844 182.195312 C 334.839844 186.433594 336.039062 190.78125 337.078125 195.160156 C 337.636719 193.859375 338.890625 192.625 338.472656 191.105469 C 337.742188 187.214844 337.378906 183.085938 339.050781 179.371094 C 337.402344 176.617188 336.628906 173.460938 336.367188 170.292969 Z M 384.195312 235.652344 C 382.929688 238.578125 382.214844 242.105469 379.484375 244.074219 C 378.523438 244.792969 377.402344 244.171875 376.445312 243.847656 C 376.6875 246.34375 376.914062 248.847656 377.105469 251.347656 C 377.21875 252.441406 377.183594 253.667969 378.03125 254.507812 C 378.808594 255.425781 380.042969 257.351562 381.363281 256.039062 C 384.550781 252.863281 387.28125 248.203125 386.070312 243.5625 C 385.546875 240.902344 385 238.234375 384.195312 235.652344 Z M 348.46875 192.636719 C 345.769531 192.894531 342.441406 192.816406 340.824219 195.4375 C 338.464844 198.257812 338.460938 202.117188 338.976562 205.5625 C 341.695312 205.71875 344.414062 206.125 347.144531 206.121094 C 347.082031 201.59375 348.195312 197.144531 348.46875 192.636719 Z M 277.261719 98.714844 C 270.457031 97.839844 263.605469 97.542969 256.75 97.585938 C 260.277344 98.785156 263.609375 100.503906 266.652344 102.652344 C 269.847656 100.535156 273.515625 99.355469 277.261719 98.714844 Z M 425.0625 296.65625 C 423.597656 298.792969 422.035156 300.867188 420.152344 302.652344 C 419.515625 303.339844 418.421875 304.125 418.898438 305.226562 C 419.921875 308.867188 420.714844 312.589844 420.847656 316.394531 C 422.777344 309.9375 424.316406 303.355469 425.0625 296.65625 Z M 294.039062 135.746094 C 291.875 135.265625 289.550781 134.542969 287.390625 135.449219 C 282.429688 137.269531 277.976562 140.816406 275.71875 145.671875 C 280.023438 146.53125 284.375 147.113281 288.667969 148.019531 C 291.488281 142.359375 297.546875 139.410156 303.511719 138.34375 C 300.378906 137.386719 297.238281 136.453125 294.039062 135.746094 Z M 359.734375 224.230469 C 357.273438 224.167969 354.90625 223.425781 352.574219 222.742188 C 353.113281 224.730469 353.640625 226.785156 354.835938 228.492188 C 355.488281 229.523438 356.890625 229.152344 357.847656 228.925781 C 361.484375 227.824219 364.667969 225.636719 367.679688 223.386719 C 365.03125 223.660156 362.414062 224.386719 359.734375 224.230469 Z M 404.140625 273.621094 C 403.207031 276.726562 397.164062 282.496094 395.449219 281.460938 L 394.40625 280.828125 C 397.113281 278.566406 400.738281 275.679688 400.765625 272.164062 C 400.601562 267.589844 397.996094 265.558594 394.195312 262.4375 C 394.355469 268.5625 394.6875 274.695312 394.40625 280.828125 C 398.589844 283.085938 401.027344 287.519531 402.347656 291.9375 C 404.917969 289.4375 407.574219 286.542969 408.132812 282.867188 C 408.441406 279.789062 406.257812 276.132812 404.140625 273.621094 Z M 387.292969 251.535156 C 385.738281 254.414062 384.363281 257.632812 381.648438 259.628906 C 380.238281 260.546875 378.71875 259.46875 377.59375 258.640625 C 377.734375 262.332031 377.253906 266.058594 377.621094 269.738281 C 378.296875 271.253906 379.960938 274.15625 381.890625 272.496094 C 385.066406 270.21875 387.640625 266.730469 388.304688 262.816406 C 388.59375 259.027344 387.589844 255.292969 387.292969 251.535156 Z M 358.84375 233.433594 C 360.199219 234.933594 361.613281 236.828125 363.71875 237.257812 C 366.855469 236.636719 369.394531 234.410156 371.886719 232.535156 C 367.570312 233.257812 363.222656 233.894531 358.84375 233.433594 Z M 410.730469 287.035156 C 408.535156 291.429688 404.8125 294.679688 400.980469 297.621094 C 403.730469 302.472656 405.109375 307.898438 406.113281 313.335938 C 410.035156 310.40625 413.488281 306.324219 414.378906 301.382812 C 415.246094 296.382812 414.097656 290.917969 410.730469 287.035156 Z M 276.964844 119.675781 C 272.980469 120.023438 269.746094 122.699219 266.617188 124.9375 C 267.28125 125.449219 267.820312 126.285156 268.746094 126.308594 C 272.46875 126.730469 276.210938 126.914062 279.914062 127.53125 C 281.007812 127.644531 282.121094 127.972656 283.222656 127.800781 C 284.398438 127.285156 285.410156 126.488281 286.46875 125.785156 C 284.007812 122.972656 281.082031 119.480469 276.964844 119.675781 Z M 341.523438 208.011719 C 340.347656 208.398438 339.125 209.273438 339.113281 210.632812 C 339.039062 213.5 339.726562 216.316406 340.144531 219.136719 C 342.152344 220.210938 344.390625 220.714844 346.503906 221.515625 C 344.75 222.117188 342.894531 222.089844 341.070312 222.160156 C 341.652344 225.589844 343.371094 228.808594 345.070312 231.839844 C 347.976562 236.597656 353.019531 241.332031 359.0625 240.230469 C 354.871094 236.972656 351.257812 232.824219 349.289062 227.855469 C 346.871094 221.382812 346.367188 214.285156 347.011719 207.457031 C 345.207031 206.644531 343.257812 207.378906 341.523438 208.011719 Z M 260.199219 110.242188 C 257.890625 111.25 255.167969 112.367188 254.074219 114.804688 C 257.488281 117.382812 261.308594 119.457031 264.308594 122.578125 C 267.902344 119.578125 272.128906 117.011719 276.851562 116.421875 C 273.753906 110.820312 266.25 107.699219 260.195312 110.246094 Z M 316.015625 170.855469 C 300.691406 160.410156 281.90625 156.210938 263.574219 155.816406 C 236.957031 155.582031 210.449219 165.355469 190.140625 182.527344 C 170.816406 198.847656 157.253906 221.902344 152.542969 246.773438 C 148.25 268.390625 150.582031 291.289062 159.269531 311.558594 C 165.519531 325.46875 174.664062 338.046875 185.917969 348.332031 C 193.265625 354.824219 201.511719 360.300781 210.277344 364.703125 C 230.296875 374.613281 253.484375 377.582031 275.46875 373.992188 C 298.457031 370.308594 319.949219 358.609375 335.917969 341.730469 C 353.121094 323.699219 363.617188 299.664062 366.164062 274.949219 C 367.054688 265.28125 367.4375 255.460938 365.949219 245.839844 C 362.585938 247.585938 358.773438 248.714844 354.953125 248.328125 C 350.816406 247.847656 347.050781 245.695312 343.957031 242.984375 C 338.632812 238.28125 335.195312 231.808594 332.992188 225.128906 C 330.515625 217.675781 330.820312 209.714844 329.472656 202.050781 C 328.183594 193.601562 325.058594 185.601562 322.304688 177.550781 C 321.410156 174.433594 318.460938 172.683594 316.015625 170.855469 Z M 388.792969 268.167969 C 387.140625 271.191406 385.074219 274.089844 382.3125 276.199219 C 380.425781 277.554688 378.296875 276.015625 376.992188 274.636719 C 376.726562 277.945312 376 281.203125 375.722656 284.507812 C 375.898438 286.921875 377.175781 289.183594 378.679688 291.039062 C 380.15625 291.515625 381.496094 290.230469 382.617188 289.429688 C 385.523438 286.871094 388.589844 283.691406 388.769531 279.585938 C 389.011719 275.785156 388.972656 271.96875 388.792969 268.167969 Z M 273.320312 132.359375 C 270.347656 132.113281 267.726562 133.960938 265.570312 135.800781 C 262.867188 138.269531 260.273438 141.3125 259.660156 145.035156 C 263.664062 145.25 267.6875 145.144531 271.695312 145.339844 C 273.8125 139.300781 279.542969 135.4375 285.578125 134.015625 C 281.558594 133.066406 277.429688 132.679688 273.320312 132.363281 Z M 415.621094 309.042969 C 413.367188 312.082031 410.765625 314.867188 407.683594 317.082031 C 409.148438 320.773438 410.003906 324.652344 410.460938 328.589844 C 416.003906 323.882812 417.539062 315.839844 415.621094 309.042969 Z M 250.683594 102.152344 C 245.984375 102.214844 241.660156 104.445312 237.902344 107.097656 C 242.371094 107.953125 246.609375 109.773438 250.316406 112.40625 C 253.660156 109.082031 257.882812 106.851562 262.34375 105.425781 C 258.839844 103.320312 254.8125 101.929688 250.683594 102.152344 Z M 394.355469 283.878906 C 393.871094 289.898438 392.972656 295.882812 392.195312 301.867188 C 395.054688 299.902344 397.832031 297.214844 398.640625 293.71875 C 399.347656 289.894531 396.746094 286.539062 394.355469 283.878906 Z M 388.320312 287.078125 C 385.871094 290.226562 383.136719 293.605469 379.238281 294.929688 C 376.734375 295.410156 375.375 292.808594 374.285156 291.035156 C 373.550781 294.421875 372.65625 297.769531 371.617188 301.078125 C 370.746094 303.453125 371.980469 305.875 372.871094 308.046875 C 373.402344 309.195312 374.246094 311.042969 375.832031 310.328125 C 379.886719 308.925781 383.460938 305.859375 385.667969 302.195312 C 387.492188 297.386719 387.878906 292.164062 388.320312 287.078125 Z M 398.949219 300.566406 C 396.875 302.691406 394.542969 304.921875 391.460938 305.324219 C 391 307.480469 389.785156 309.617188 389.972656 311.835938 C 391.519531 315.222656 392.023438 318.917969 393.140625 322.445312 C 397.058594 320.011719 401.089844 316.59375 401.863281 311.78125 C 402.292969 307.828125 400.359375 304.132812 398.949219 300.566406 Z M 417.539062 327.601562 C 415.617188 329.921875 413.691406 332.296875 411.265625 334.125 C 410.113281 335.039062 408.6875 335.679688 407.9375 337.019531 C 406.125 339.839844 403.636719 342.132812 400.898438 344.050781 C 401.503906 349.046875 401.179688 354.234375 399.300781 358.945312 C 403.25 354.988281 406.671875 350.53125 409.804688 345.914062 C 413.09375 340.136719 415.257812 333.820312 417.539062 327.601562 Z M 220.921875 101.453125 C 225.308594 101.605469 229.4375 103.1875 233.46875 104.792969 C 236.613281 101.71875 240.558594 99.742188 244.539062 98 C 236.632812 98.804688 228.613281 99.339844 220.921875 101.453125 Z M 252.191406 119.300781 C 247.296875 119.628906 243.511719 123.492188 240.675781 127.167969 C 244.65625 127.039062 248.597656 126.414062 252.578125 126.257812 C 256.160156 125.921875 259.761719 126.140625 263.339844 125.953125 C 259.894531 123.421875 256.722656 119.605469 252.191406 119.300781 Z M 254.058594 132.125 C 248.210938 134.585938 243.464844 140.285156 242.742188 146.671875 C 246.925781 146.140625 251.113281 145.617188 255.328125 145.34375 C 256.15625 143.085938 256.898438 140.75 258.34375 138.800781 C 260.582031 135.640625 263.949219 133.519531 267.394531 131.886719 C 262.96875 131.675781 258.429688 131.21875 254.058594 132.125 Z M 403.863281 316.878906 C 401.695312 320.019531 399.109375 322.90625 395.917969 325.046875 C 395.234375 325.632812 394.253906 326.003906 393.789062 326.800781 C 393.910156 328.839844 394.5 330.820312 394.75 332.855469 C 395.257812 336.1875 395.128906 339.566406 395.28125 342.925781 C 400.496094 340.875 405.152344 336.523438 406.421875 330.929688 C 407.214844 326.136719 406.035156 321.160156 403.863281 316.878906 Z M 235.234375 111.472656 C 229.824219 111.773438 225.28125 115.382812 221.898438 119.351562 L 222.179688 119.890625 C 227.578125 120.980469 232.597656 123.277344 237.515625 125.691406 C 240.53125 121.589844 244.421875 117.9375 249.324219 116.285156 C 245.117188 113.609375 240.371094 111.140625 235.234375 111.46875 Z M 384.949219 307.050781 C 381.945312 309.835938 378.964844 313.285156 374.785156 314.160156 C 371.628906 314.683594 370.324219 311.132812 369.066406 308.941406 C 367.789062 312.222656 366.324219 315.4375 364.804688 318.621094 C 364.03125 320.171875 364.378906 321.957031 364.644531 323.597656 C 365.128906 325.570312 365.433594 327.984375 367.171875 329.253906 C 369.53125 329.5625 371.769531 328.316406 373.828125 327.316406 C 376.351562 325.785156 379.304688 324.242188 380.421875 321.328125 C 382.367188 316.722656 383.976562 311.953125 384.949219 307.050781 Z M 388.300781 316.632812 C 386.140625 323.230469 383.453125 329.625 380.453125 335.878906 C 383.398438 334.320312 386.433594 332.71875 388.644531 330.15625 C 389.738281 328.898438 390.832031 327.292969 390.410156 325.546875 C 389.722656 322.570312 388.949219 319.613281 388.300781 316.632812 Z M 236.050781 133.785156 C 235.09375 134.011719 234.15625 134.375 233.398438 135.015625 C 228.695312 138.90625 225.199219 144.703125 225.558594 150.980469 C 229.804688 149.636719 234.140625 148.566406 238.460938 147.460938 C 239.003906 144.601562 239.675781 141.671875 241.355469 139.242188 C 243.402344 136.179688 246.472656 134.03125 249.496094 132.035156 C 244.984375 132.332031 240.460938 132.746094 236.050781 133.785156 Z M 217.074219 106.980469 C 212.410156 107.914062 208.585938 110.980469 205.203125 114.164062 C 209.636719 114.4375 213.867188 115.921875 217.875 117.769531 C 220.769531 113.769531 224.699219 110.636719 229.058594 108.363281 C 225.355469 106.574219 221.085938 106.113281 217.078125 106.980469 Z M 391.621094 332.054688 C 389.027344 334.820312 385.855469 336.945312 382.515625 338.699219 C 383.175781 342.878906 383.066406 347.125 382.621094 351.3125 C 386.359375 350.441406 390.015625 348.359375 392.140625 345.105469 C 392.839844 340.785156 392.035156 336.375 391.621094 332.054688 Z M 219.902344 124.210938 C 214.8125 126 211.109375 130.570312 208.925781 135.363281 C 217.34375 132.246094 226.042969 129.917969 234.851562 128.246094 C 230.148438 126.226562 225.1875 123.390625 219.902344 124.210938 Z M 397.492188 346.265625 C 394.984375 346.59375 393.675781 348.871094 391.839844 350.308594 C 390.003906 351.882812 387.835938 352.992188 385.609375 353.890625 C 385.953125 358.53125 385.257812 363.195312 383.667969 367.566406 C 387.25 366.617188 390.464844 364.5625 392.964844 361.851562 C 396.484375 357.519531 397.917969 351.773438 397.492188 346.265625 Z M 187.394531 111.621094 C 191.5 111.273438 195.652344 111.570312 199.640625 112.683594 C 203.03125 108.9375 206.957031 105.664062 211.488281 103.398438 C 203.171875 105.1875 195.175781 108.214844 187.394531 111.621094 Z M 378.042969 327.257812 C 375.105469 329.554688 372.078125 332.007812 368.367188 332.855469 C 366.863281 333.167969 365.058594 333.238281 363.875 332.097656 C 362.277344 330.253906 361.671875 327.828125 361.101562 325.527344 C 359.222656 328.890625 357.21875 332.1875 354.957031 335.3125 C 353.574219 336.992188 353.640625 339.285156 353.6875 341.339844 C 353.835938 343.15625 353.960938 345.136719 355.082031 346.667969 C 357.523438 347.816406 360.339844 346.878906 362.804688 346.265625 C 365.699219 345.230469 369.03125 344.238281 370.773438 341.511719 C 373.554688 336.949219 376.167969 332.269531 378.042969 327.257812 Z M 230.34375 134.957031 C 225.476562 135.914062 220.710938 137.324219 216.015625 138.921875 C 213.65625 139.667969 212.25 141.902344 210.894531 143.820312 C 208.085938 147.96875 207.027344 153.179688 207.898438 158.101562 C 212.273438 156.023438 216.726562 154.109375 221.273438 152.441406 C 221.378906 150.652344 221.433594 148.851562 221.820312 147.105469 C 222.914062 142.101562 226.523438 138.136719 230.34375 134.960938 Z M 387.066406 371.058594 C 386.914062 375.761719 385.332031 380.261719 383.292969 384.457031 C 386.625 382.300781 388.847656 378.953125 391.292969 375.917969 C 394.257812 371.921875 397.359375 367.996094 399.792969 363.648438 C 395.445312 365.929688 391.648438 369.183594 387.066406 371.058594 Z M 379.703125 339.523438 C 378.421875 340.132812 377.625 341.34375 376.882812 342.496094 C 374.59375 346.226562 372.269531 349.941406 369.746094 353.519531 C 369.371094 354.1875 368.550781 354.800781 368.84375 355.667969 C 372.425781 354.785156 376.257812 353.527344 378.644531 350.554688 C 380.167969 348 379.972656 344.890625 380.152344 342.027344 C 380.074219 341.183594 380.417969 340.148438 379.703125 339.523438 Z M 199.15625 119.753906 C 194.8125 121.894531 191.394531 125.851562 189.746094 130.402344 C 195.292969 130.429688 200.890625 131.074219 206.144531 132.917969 C 208.285156 128.214844 211.957031 124.402344 216.160156 121.46875 C 211.097656 118.488281 204.691406 117.535156 199.15625 119.753906 Z M 380.15625 354.011719 C 377.316406 356.5 373.757812 357.972656 370.089844 358.707031 C 369.9375 363.695312 369.195312 368.707031 367.257812 373.34375 C 371.453125 372.402344 375.957031 371.160156 378.824219 367.71875 C 381.660156 364.140625 382.203125 359.375 382.097656 354.960938 C 381.441406 354.644531 380.796875 354.332031 380.160156 354.011719 Z M 195.847656 116.628906 C 192.410156 116.3125 188.867188 116.183594 185.546875 117.300781 C 180.4375 118.816406 176.679688 123.117188 174.441406 127.792969 C 178.230469 126.808594 182.207031 126.652344 186.074219 127.257812 C 188.738281 123.226562 191.597656 119.140625 195.847656 116.628906 Z M 367.394531 347.007812 C 363.210938 349.195312 358.425781 351.585938 353.589844 350.398438 C 350.304688 349.171875 350.101562 345.183594 349.828125 342.21875 C 346.921875 345.636719 343.988281 349.019531 340.789062 352.15625 C 339.566406 354.402344 339.632812 357.152344 339.730469 359.65625 C 339.929688 360.855469 339.808594 362.6875 341.382812 362.953125 C 345.09375 364.019531 349.09375 363.515625 352.738281 362.402344 C 354.359375 361.847656 356.1875 361.449219 357.292969 360.023438 C 360.976562 355.941406 364.234375 351.503906 367.394531 347.007812 Z M 210.269531 140.832031 C 205.367188 142.53125 200.660156 144.757812 196.066406 147.164062 C 194.960938 147.789062 193.691406 148.3125 193.015625 149.464844 C 190.714844 153.003906 189.117188 157.082031 188.792969 161.3125 C 188.566406 163.972656 189.296875 166.574219 189.941406 169.128906 C 194.4375 165.957031 199.035156 162.917969 203.847656 160.246094 C 203.609375 157.128906 203.0625 153.902344 204.101562 150.871094 C 205.164062 146.996094 207.929688 143.976562 210.269531 140.832031 Z M 378.792969 372.878906 C 376.460938 374.296875 373.976562 375.445312 371.367188 376.25 C 371.289062 380.628906 370.207031 384.992188 368.023438 388.816406 C 376.96875 386.566406 381.042969 381.554688 382.480469 372.519531 C 381.257812 372.574219 379.882812 372.144531 378.792969 372.878906 Z M 196.300781 134.375 C 194.28125 134.203125 192.039062 134.082031 190.339844 135.382812 C 186.394531 138.210938 184.253906 143.019531 183.578125 147.714844 C 190.253906 143.765625 197.1875 140.269531 204.222656 137.023438 C 204.230469 136.769531 204.242188 136.246094 204.242188 135.984375 C 201.6875 135.09375 198.984375 134.664062 196.300781 134.375 Z M 365.089844 359.789062 C 360.296875 365.324219 355.265625 370.660156 349.78125 375.507812 C 352.472656 375.914062 355.222656 375.476562 357.875 374.945312 C 360.566406 374.230469 363.570312 373.082031 364.800781 370.371094 C 366.351562 366.917969 366.933594 363.09375 367.117188 359.339844 Z M 156.832031 128.777344 C 160.964844 128.039062 165.082031 127.050781 169.304688 127.121094 C 171.117188 123.285156 173.382812 119.589844 176.613281 116.777344 C 169.65625 120.128906 163.125 124.3125 156.832031 128.777344 Z M 368.25 393.644531 C 367.789062 397.394531 365.761719 400.628906 363.773438 403.746094 C 369.328125 399.304688 374.621094 394.515625 379.46875 389.308594 C 375.867188 391.074219 372.242188 392.933594 368.25 393.644531 Z M 184.460938 130.976562 C 180.511719 130.652344 176.292969 130.859375 172.808594 132.929688 C 168.808594 135.5 167.023438 140.265625 166.285156 144.765625 C 171.019531 144.707031 175.742188 143.882812 180.464844 144.4375 C 181.785156 140.292969 183.675781 136.207031 186.867188 133.167969 C 185.632812 132.96875 184.625 132.296875 184.460938 130.976562 Z M 363.992188 376.402344 C 360.960938 378 357.617188 378.828125 354.210938 379.105469 C 353.238281 383.851562 351.144531 388.234375 349.246094 392.65625 C 353.226562 393.367188 357.546875 392.257812 361.023438 390.222656 C 365.367188 387.496094 366.851562 382.226562 367.605469 377.460938 C 366.390625 377.140625 365.214844 376.675781 363.992188 376.402344 Z M 352.957031 364.605469 C 348.429688 366.34375 343.199219 367.921875 338.480469 365.972656 C 335.105469 364.332031 335.609375 359.964844 335.632812 356.828125 C 331.945312 360.191406 327.765625 362.933594 323.90625 366.0625 C 322.3125 369.015625 321.207031 372.734375 321.996094 376.050781 C 324.988281 378.210938 328.898438 378.601562 332.496094 378.585938 C 334.773438 378.359375 337.347656 378.472656 339.203125 376.914062 C 344.054688 373.128906 348.851562 369.199219 352.957031 364.605469 Z M 189.734375 150.523438 C 185.066406 153.316406 180.265625 156.027344 176.1875 159.65625 C 173.894531 163.035156 173.082031 167.234375 173.210938 171.269531 C 173.304688 174.605469 174.859375 177.652344 176.441406 180.515625 C 179.644531 177.453125 182.96875 174.542969 186.433594 171.789062 C 185.625 169.082031 184.5 166.351562 184.738281 163.472656 C 185.105469 158.765625 187.367188 154.507812 189.734375 150.523438 Z M 179.800781 147.316406 C 176.183594 147.496094 172.109375 146.839844 168.953125 148.992188 C 165.726562 152.035156 164.472656 156.589844 163.828125 160.855469 C 162.777344 160.183594 161.714844 159.523438 160.660156 158.859375 C 161.394531 155.152344 162.824219 151.585938 164.917969 148.4375 C 163.730469 148.078125 162.714844 147.410156 162.03125 146.351562 C 158.703125 146.625 155.371094 147.367188 152.496094 149.144531 C 152.695312 151.007812 152.742188 152.933594 151.917969 154.671875 C 150.234375 158.734375 148.144531 162.757812 147.777344 167.222656 C 152.085938 164.699219 157.0625 163.796875 162.011719 163.96875 C 167.554688 158.890625 173.597656 154.375 179.828125 150.179688 C 179.8125 149.222656 179.808594 148.265625 179.800781 147.316406 Z M 159.195312 133.734375 C 154.691406 136.273438 152.199219 141.1875 150.953125 146.035156 C 154.605469 144.304688 158.515625 143.238281 162.496094 142.636719 C 163.363281 138.6875 165.253906 135.078125 167.539062 131.777344 C 164.675781 131.921875 161.765625 132.425781 159.195312 133.734375 Z M 363.316406 394.082031 C 360.082031 395.378906 356.746094 396.429688 353.269531 396.785156 C 352.042969 401.351562 349.464844 405.382812 346.488281 408.996094 C 354.601562 408.261719 361.117188 401.699219 363.316406 394.082031 Z M 346.339844 378.636719 C 340.386719 383.40625 334.050781 387.660156 327.523438 391.605469 C 332.625 392.316406 337.976562 392.894531 343.003906 391.445312 C 348.230469 389.664062 349.1875 383.492188 350.851562 378.9375 C 349.34375 378.890625 347.835938 378.8125 346.339844 378.636719 Z M 153.4375 133.527344 C 144.992188 136.375 139.070312 144.015625 136.402344 152.285156 C 139.578125 150.441406 142.921875 148.882812 146.496094 148.03125 C 147.351562 142.644531 149.996094 137.699219 153.4375 133.527344 Z M 344.855469 394.558594 C 341.292969 395.730469 337.519531 395.988281 333.796875 395.914062 C 331.542969 400.925781 328.464844 405.476562 325.136719 409.839844 C 330.082031 410.988281 335.464844 410.777344 340.101562 408.59375 C 344.550781 406.296875 347.351562 401.824219 349.167969 397.3125 C 347.472656 396.828125 345.644531 396.332031 344.855469 394.558594 Z M 172.175781 162.507812 C 168.40625 165.648438 164.566406 168.761719 161.304688 172.449219 C 158.4375 179.269531 160.015625 187.660156 165.410156 192.824219 C 168.046875 189.664062 170.609375 186.433594 173.46875 183.453125 C 172.230469 180.957031 170.535156 178.597656 170.097656 175.785156 C 169.257812 171.246094 170.792969 166.765625 172.175781 162.507812 Z M 334.070312 380.699219 C 329.132812 381.613281 323.449219 381.933594 319.164062 378.855469 C 316.523438 376.492188 317.617188 372.617188 318.097656 369.585938 C 314.054688 372.046875 309.773438 374.09375 305.5625 376.230469 C 303.558594 378.5 302.277344 381.375 301.511719 384.289062 C 300.820312 386.710938 303.476562 388.070312 305.296875 388.894531 C 308.84375 390.28125 312.726562 391.210938 316.546875 390.894531 C 322.664062 388.015625 328.484375 384.503906 334.070312 380.699219 Z M 338.1875 414.3125 C 335.699219 418 332.664062 421.277344 329.429688 424.3125 C 332.242188 424.128906 334.625 422.515625 337.109375 421.359375 C 342.207031 418.714844 347.25 415.925781 351.925781 412.59375 C 347.4375 413.78125 342.824219 414.394531 338.183594 414.3125 Z M 132.617188 162.601562 C 130.894531 166.472656 129.699219 170.898438 130.679688 175.125 C 132.804688 174.433594 134.464844 172.886719 136.363281 171.777344 C 138.800781 170.289062 141.582031 169.542969 144.3125 168.78125 C 144.953125 162.855469 147.289062 157.359375 149.167969 151.769531 C 142.328125 152.175781 135.554688 156.320312 132.617188 162.601562 Z M 322.929688 394.152344 C 316.65625 397.398438 310.179688 400.230469 303.511719 402.566406 C 309.046875 405.855469 315.910156 407.53125 322.214844 405.660156 C 326.289062 403.664062 328.039062 399.070312 330.332031 395.417969 C 327.839844 395.144531 325.390625 394.386719 322.929688 394.152344 Z M 148.941406 171.234375 C 147.453125 173.765625 146.59375 176.945312 147.195312 179.847656 C 150.570312 175.175781 154.648438 171.023438 158.800781 167.039062 C 155.257812 167.46875 151.21875 168.191406 148.941406 171.234375 Z M 158.085938 175.730469 C 154.796875 179.339844 151.46875 182.976562 148.820312 187.089844 C 147.714844 194.066406 150.164062 201.996094 156.5625 205.683594 C 158.800781 202.496094 160.769531 199.128906 163.082031 195.988281 C 160.605469 193.496094 158.378906 190.578125 157.621094 187.074219 C 156.558594 183.328125 157.519531 179.464844 158.085938 175.730469 Z M 134.074219 147.742188 C 130.289062 151.625 126.511719 155.589844 123.527344 160.136719 C 126.039062 158.398438 128.582031 156.691406 131.328125 155.347656 C 132.136719 152.777344 133.085938 150.25 134.074219 147.742188 Z M 322.109375 413.023438 C 320.828125 412.40625 321.03125 410.851562 321.027344 409.699219 C 319.058594 410.015625 317.0625 410.210938 315.058594 410.203125 C 312 414.71875 308.039062 418.472656 304.421875 422.515625 C 310.660156 424.640625 317.808594 424.65625 323.839844 421.851562 C 327.242188 420.320312 329.851562 417.574219 332.183594 414.742188 C 328.800781 414.449219 325.207031 414.585938 322.109375 413.023438 Z M 298.566406 388.851562 C 295.78125 385.925781 297.757812 381.828125 298.90625 378.648438 C 295.128906 380.1875 291.183594 381.21875 287.308594 382.433594 C 284.296875 384.40625 281.972656 387.429688 280.492188 390.703125 C 279.765625 392 280.570312 393.425781 281.609375 394.265625 C 284.542969 396.832031 288.304688 398.164062 292.027344 399.097656 C 293.882812 399.699219 295.746094 398.839844 297.527344 398.394531 C 302.441406 396.867188 307.378906 395.285156 312.003906 393.015625 C 307.308594 392.882812 302.136719 392.183594 298.566406 388.851562 Z M 144.589844 171.992188 C 140.875 173.066406 137.070312 174.757812 134.617188 177.851562 C 132.558594 181.835938 132.828125 186.542969 133.25 190.878906 C 135.738281 189.988281 138.402344 189.457031 140.746094 188.226562 C 141.917969 186.757812 142.914062 185.15625 144.046875 183.664062 C 143.636719 179.761719 143.953125 175.84375 144.589844 171.992188 Z M 128.511719 162.046875 C 122.445312 166.148438 118.410156 173.058594 118.226562 180.421875 C 120.808594 178.433594 123.550781 176.617188 126.597656 175.429688 C 126.230469 170.875 126.960938 166.320312 128.515625 162.046875 Z M 146.59375 190.070312 C 143.75 193.960938 141.183594 198.085938 139.070312 202.417969 C 139.101562 209.433594 142.871094 216.875 149.710938 219.449219 C 151.1875 216.007812 152.835938 212.652344 154.582031 209.347656 C 152.175781 207.605469 149.84375 205.617188 148.445312 202.949219 C 146.332031 199.019531 146.164062 194.414062 146.59375 190.070312 Z M 299.917969 404.707031 C 297.734375 408.980469 294.140625 412.261719 290.195312 414.886719 C 294.132812 417.359375 299.277344 418.804688 303.789062 417.164062 C 306.886719 415.261719 309.121094 412.28125 311.4375 409.542969 C 307.273438 408.8125 303.496094 406.859375 299.917969 404.707031 Z M 307.488281 428.078125 C 304.035156 431.695312 299.871094 434.636719 295.253906 436.582031 C 301.636719 435.734375 307.824219 433.792969 313.894531 431.703125 C 316.703125 430.605469 319.699219 429.742188 322.039062 427.753906 C 317.230469 428.683594 312.339844 428.710938 307.488281 428.078125 Z M 119.003906 186.011719 C 117.0625 190.121094 116.632812 195.039062 117.984375 199.398438 C 118.40625 199.359375 119.25 199.269531 119.679688 199.226562 C 122.695312 196.257812 126.304688 193.96875 130.183594 192.300781 C 129.332031 187.816406 129.453125 183.207031 130.367188 178.742188 C 125.886719 179.550781 121.410156 182.066406 119.007812 186.011719 Z M 138.089844 192.101562 C 132.445312 195.066406 126.042969 197.238281 121.785156 202.210938 C 119.53125 206.28125 120.558594 211.222656 121.644531 215.503906 C 123.710938 214.355469 125.804688 213.253906 127.757812 211.921875 C 128.984375 210.132812 129.652344 208.007812 130.65625 206.085938 C 132.839844 201.269531 135.738281 196.832031 138.089844 192.101562 Z M 287.589844 406.890625 C 283.914062 407.722656 280.171875 408.167969 276.496094 408.980469 C 279.457031 410.75 282.6875 412.761719 286.269531 412.585938 C 290.5625 411.546875 293.796875 408.152344 296.605469 404.925781 C 293.539062 405.292969 290.609375 406.3125 287.589844 406.890625 Z M 269.1875 385.488281 C 267.84375 385.652344 266.351562 385.609375 265.304688 386.613281 C 262.660156 388.660156 259.84375 390.78125 258.261719 393.804688 C 257.359375 395.710938 259.09375 397.496094 260.359375 398.726562 C 263.058594 400.953125 266.210938 402.957031 269.675781 403.648438 C 276.238281 403.253906 282.75 402.09375 289.152344 400.59375 C 285.289062 399.8125 281.375 398.566406 278.355469 395.933594 C 276.972656 394.738281 275.800781 392.949219 276.070312 391.050781 C 276.605469 388.402344 278.167969 386.109375 279.730469 383.964844 C 276.238281 384.605469 272.71875 385.148438 269.1875 385.488281 Z M 115.296875 170.976562 C 111.019531 176.695312 107.457031 182.910156 104.292969 189.300781 C 107.121094 186.734375 110.203125 184.5 113.402344 182.425781 C 113.550781 178.539062 114.15625 174.699219 115.292969 170.976562 Z M 289.027344 418.367188 C 285.105469 422.722656 280.003906 425.667969 275.242188 428.988281 C 279.996094 432.273438 286.113281 433.464844 291.785156 432.484375 C 295.980469 431.785156 299.40625 429.046875 302.605469 426.425781 C 301.515625 425.578125 300.046875 424.867188 299.796875 423.371094 C 299.804688 422.558594 300.050781 421.792969 300.234375 421.023438 C 296.332031 421.195312 292.445312 420.261719 289.027344 418.367188 Z M 137.238281 205.726562 C 135.5 209.074219 133.863281 212.488281 132.414062 215.972656 C 132.003906 217.070312 131.527344 218.238281 131.742188 219.433594 C 132.753906 224.152344 135.042969 228.789062 138.992188 231.722656 C 140.667969 232.851562 142.628906 233.4375 144.476562 234.222656 C 145.496094 230.519531 146.695312 226.867188 148.09375 223.296875 C 145.707031 221.9375 143.164062 220.652344 141.4375 218.441406 C 138.59375 214.832031 137.664062 210.191406 137.238281 205.726562 Z M 274.234375 411.144531 C 271.28125 414.707031 267.1875 416.90625 263.085938 418.867188 C 266.589844 421.722656 271.074219 424.328125 275.753906 423.679688 C 279.878906 422.066406 283.535156 419.292969 286.570312 416.082031 C 282.0625 415.671875 277.824219 413.871094 274.234375 411.144531 Z M 113.875 187.75 C 110.660156 189.804688 107.589844 192.335938 105.789062 195.785156 C 103.914062 199.519531 104.015625 203.867188 104.449219 207.917969 C 107.152344 204.929688 110.179688 202.144531 113.886719 200.457031 C 113.136719 196.253906 113.246094 191.957031 113.875 187.75 Z M 246.582031 385.746094 C 243.738281 386.695312 241.289062 388.636719 239.074219 390.621094 C 238.054688 391.691406 236.488281 392.960938 236.910156 394.644531 C 238.007812 398.078125 240.867188 400.628906 243.789062 402.585938 C 245.40625 403.78125 247.5 403.683594 249.410156 403.886719 C 254.289062 404.335938 259.195312 404.195312 264.082031 404.027344 C 259.898438 402.210938 255.226562 399.574219 253.890625 394.90625 C 253.882812 391.265625 256.832031 388.472656 259.242188 386.105469 C 255.015625 386.226562 250.804688 385.773438 246.582031 385.746094 Z M 136.050781 234.195312 C 132.734375 230.964844 131.214844 226.417969 130.242188 222.003906 C 128.847656 226.554688 126.984375 231.066406 126.523438 235.832031 C 127.101562 238.554688 128.695312 241.019531 130.28125 243.289062 C 132.855469 246.789062 136.957031 248.660156 141.148438 249.371094 C 141.769531 245.636719 142.554688 241.925781 143.339844 238.21875 C 140.703125 237.328125 138.101562 236.125 136.050781 234.195312 Z M 251.167969 409.804688 C 253.785156 412.167969 256.558594 415.078125 260.28125 415.371094 C 264.707031 415.203125 268.453125 412.355469 271.664062 409.5625 C 264.835938 409.761719 258.003906 410.007812 251.167969 409.804688 Z M 117.167969 203.5 C 112.984375 204.90625 109.21875 207.867188 107.101562 211.765625 C 105.148438 216.355469 105.777344 221.695312 107.472656 226.265625 C 108.59375 225.625 109.824219 225.078125 110.617188 224.019531 C 112.921875 221.234375 115.804688 219.023438 118.789062 217.023438 C 117.28125 212.6875 116.871094 208.066406 117.167969 203.5 Z M 125.929688 216.6875 C 121.90625 219.117188 117.757812 221.503906 114.535156 224.988281 C 113.132812 226.515625 111.484375 228.21875 111.429688 230.433594 C 111.46875 234.179688 112.792969 237.78125 114.378906 241.128906 C 116.167969 239.574219 118.351562 238.421875 119.910156 236.648438 C 121.609375 229.910156 123.386719 223.171875 125.929688 216.6875 Z M 277.191406 435.117188 C 273.894531 437.273438 270.402344 439.164062 266.636719 440.382812 C 269.378906 440.621094 272.125 440.273438 274.851562 439.980469 C 278.660156 439.464844 282.613281 439.25 286.125 437.5 C 283.101562 436.890625 280.027344 436.390625 277.191406 435.117188 Z M 228.085938 382.621094 C 224.054688 383.75 219.96875 385.359375 216.871094 388.257812 C 215.875 389.789062 216.882812 391.707031 217.589844 393.167969 C 219.355469 396.042969 221.535156 399.316406 225.082031 400.050781 C 229.914062 401.171875 234.792969 402.128906 239.730469 402.691406 C 236.878906 400.164062 233.460938 397.347656 232.976562 393.324219 C 233.148438 389.324219 236.914062 386.859375 239.8125 384.703125 C 235.882812 384.109375 232 383.207031 228.089844 382.621094 Z M 271.273438 426.925781 C 267.484375 426.105469 264.101562 424.078125 261.109375 421.667969 C 256.375 425.179688 250.753906 427.078125 245.417969 429.421875 C 249.269531 432.804688 254.117188 434.964844 259.132812 435.90625 C 263.890625 436.746094 268.671875 435.074219 272.695312 432.617188 C 271.933594 431.824219 271.097656 431.101562 270.507812 430.1875 C 270.421875 429.035156 270.953125 427.984375 271.273438 426.925781 Z M 99.769531 198.917969 C 96.519531 205.46875 94.320312 212.496094 92.277344 219.507812 C 94.410156 216.046875 97.195312 213.085938 100.195312 210.371094 C 99.390625 206.601562 99.371094 202.734375 99.769531 198.917969 Z M 140.574219 253.449219 C 137.546875 252.699219 134.402344 251.878906 131.957031 249.835938 C 128.722656 247.191406 127.121094 243.214844 125.429688 239.519531 C 124.398438 244.003906 123.289062 248.585938 123.367188 253.210938 C 125.164062 257.210938 128.351562 260.683594 132.269531 262.6875 C 134.585938 263.898438 137.226562 264.121094 139.769531 264.410156 C 139.777344 260.738281 140.347656 257.101562 140.574219 253.449219 Z M 248.570312 411.457031 C 244.703125 414.4375 239.984375 415.753906 235.519531 417.535156 C 238.6875 420.6875 242.464844 424.441406 247.253906 424.34375 C 251.566406 423.363281 255.746094 421.535156 259.371094 418.984375 C 255.046875 417.699219 251.597656 414.675781 248.570312 411.457031 Z M 101.726562 215.4375 C 99.09375 217.835938 96.640625 220.617188 95.488281 224.046875 C 93.960938 228.175781 94.71875 232.664062 95.914062 236.765625 C 98.066406 233.28125 100.800781 230.1875 103.976562 227.601562 C 102.722656 223.65625 102.046875 219.558594 101.726562 215.4375 Z M 230.789062 407.21875 C 232.453125 409.371094 234.519531 411.574219 237.34375 412.035156 C 240.542969 412.773438 243.683594 411.207031 246.210938 409.382812 C 241.082031 408.621094 235.914062 408.023438 230.789062 407.21875 Z M 118.910156 241.609375 C 114.578125 245.183594 110.359375 249.167969 107.902344 254.308594 C 107.285156 255.519531 107.277344 256.9375 107.632812 258.234375 C 108.566406 261.578125 110.480469 264.546875 112.574219 267.277344 C 113.972656 265.359375 116.832031 264.050781 116.660156 261.347656 C 116.988281 254.726562 117.734375 248.128906 118.910156 241.609375 Z M 130.136719 265.425781 C 126.894531 263.28125 124.992188 259.785156 122.921875 256.617188 C 122.382812 261.007812 121.957031 265.515625 122.691406 269.90625 C 124.058594 273.039062 126.800781 275.367188 129.527344 277.335938 C 132.574219 279.570312 136.476562 279.585938 140.089844 279.628906 C 139.828125 275.921875 139.679688 272.210938 139.636719 268.5 C 136.320312 268.089844 132.910156 267.398438 130.136719 265.425781 Z M 210.414062 376.675781 C 207.34375 376.605469 204.316406 377.628906 201.480469 378.730469 C 199.53125 379.65625 196.640625 380.941406 197.199219 383.601562 C 197.835938 386.394531 199.1875 389.152344 201.066406 391.3125 C 206.285156 394.164062 212.042969 395.835938 217.589844 397.9375 C 215.34375 394.828125 211.953125 391.378906 212.859375 387.21875 C 214.625 383.882812 218.289062 382.128906 221.582031 380.625 C 217.824219 379.40625 214.15625 377.925781 210.414062 376.675781 Z M 107.695312 229.9375 C 104.097656 232.277344 101.039062 235.582031 99.253906 239.5 C 97.640625 244.605469 99.414062 250.101562 102.023438 254.554688 C 103.214844 253.742188 104.664062 253.109375 105.242188 251.691406 C 106.960938 248.4375 109.4375 245.671875 112.089844 243.15625 C 109.65625 239.128906 108.335938 234.566406 107.695312 229.9375 Z M 246.09375 435.699219 C 241.601562 437.515625 236.878906 438.6875 232.054688 439.191406 C 234.976562 439.820312 237.96875 440.003906 240.929688 440.304688 C 246.894531 440.746094 252.953125 441.574219 258.90625 440.765625 C 254.457031 439.558594 250.089844 438.058594 246.09375 435.699219 Z M 131.054688 281.980469 C 127.253906 280.246094 124.871094 276.679688 122.3125 273.558594 C 122.703125 278.25 122.738281 282.984375 123.542969 287.640625 C 123.707031 289 124.777344 289.964844 125.617188 290.960938 C 128.089844 293.664062 131.214844 295.996094 134.867188 296.75 C 137.515625 297.320312 140.207031 296.753906 142.835938 296.390625 C 141.980469 292.125 141.171875 287.851562 140.542969 283.550781 C 137.332031 283.527344 133.972656 283.523438 131.054688 281.980469 Z M 194.503906 368.246094 C 190.570312 367.433594 186.632812 368.96875 183.199219 370.777344 C 179.457031 372.738281 175.167969 373 171.039062 372.601562 C 178.613281 379.089844 187.007812 384.785156 196.089844 388.914062 C 194.808594 386.078125 192.671875 382.808594 194.175781 379.636719 C 196.1875 375.917969 200.617188 374.628906 204.457031 373.722656 C 201.105469 371.953125 197.804688 370.101562 194.503906 368.246094 Z M 226.308594 406.339844 C 224.714844 405.578125 222.921875 405.226562 221.179688 405.007812 C 217.867188 406.097656 214.4375 406.753906 211.046875 407.5625 C 213.722656 411.609375 217.394531 415.429688 222.167969 416.859375 C 226.421875 417.636719 230.570312 415.714844 234.546875 414.464844 C 231.113281 412.527344 228.511719 409.542969 226.308594 406.339844 Z M 232.296875 419.0625 C 226.949219 420.855469 221.316406 421.546875 215.96875 423.3125 C 219.566406 428.804688 225.355469 432.980469 231.902344 434.007812 C 235.507812 434.550781 239.0625 433.484375 242.507812 432.574219 C 240.878906 430.984375 240.136719 428.503906 241.976562 426.765625 C 238.074219 425.183594 235.058594 422.128906 232.296875 419.0625 Z M 89.976562 229.035156 C 88.640625 232.261719 88.164062 235.746094 87.535156 239.15625 C 86.925781 243.136719 86.183594 247.113281 85.984375 251.140625 C 87.535156 247.246094 89.632812 243.605469 92.324219 240.390625 C 90.773438 236.800781 90.070312 232.929688 89.976562 229.035156 Z M 131.988281 299.492188 C 128.960938 298.105469 126.804688 295.484375 124.585938 293.097656 C 125.136719 298.054688 126.648438 302.84375 127.925781 307.652344 C 128.714844 311.574219 132.230469 314.230469 135.75 315.660156 C 140.105469 317.472656 144.898438 316.574219 149.324219 315.554688 C 147.171875 310.636719 145.503906 305.535156 143.945312 300.40625 C 139.988281 301.199219 135.6875 301.390625 131.988281 299.492188 Z M 116.574219 267.839844 C 113.28125 271.828125 109.21875 276.0625 108.882812 281.5 C 109.566406 286.203125 113.292969 289.707031 116.175781 293.238281 C 116.785156 292.734375 117.375 292.214844 117.949219 291.683594 C 118.203125 290.125 117.84375 288.53125 117.710938 286.976562 C 116.859375 280.632812 116.644531 274.234375 116.574219 267.839844 Z M 180.011719 357.582031 C 179.21875 356.9375 178.449219 356.074219 177.339844 356.101562 C 172.160156 355.601562 167.320312 358.34375 162.152344 358.023438 C 159.566406 357.914062 157.074219 357.175781 154.589844 356.523438 C 158.136719 360.582031 161.851562 364.511719 165.828125 368.160156 C 167.085938 369.546875 168.875 370.292969 170.734375 370.304688 C 177.316406 370.695312 182.441406 365.722656 188.613281 364.320312 C 185.644531 362.210938 182.773438 359.964844 180.011719 357.582031 Z M 201.078125 397.777344 C 199.703125 397.242188 198.300781 396.304688 196.769531 396.769531 C 193.574219 397.597656 190.261719 397.003906 187.015625 397.363281 C 186.011719 397.734375 187.203125 398.714844 187.28125 399.347656 C 188.734375 402.230469 190.886719 404.6875 193.226562 406.875 C 194.085938 407.6875 195.171875 408.347656 196.394531 408.359375 C 199.886719 408.539062 203.367188 407.992188 206.800781 407.40625 C 207.746094 403.601562 212.4375 404.148438 215.421875 403.164062 C 210.644531 401.367188 205.75 399.851562 201.078125 397.777344 Z M 150.953125 319.398438 C 146.992188 320.371094 142.769531 321.3125 138.753906 320.042969 C 135.664062 319.207031 133.054688 317.300781 130.550781 315.378906 C 132.945312 321.222656 135.195312 327.179688 138.449219 332.613281 C 140.785156 335.414062 144.613281 336.296875 148.074219 336.8125 C 152.179688 337.457031 156.074219 335.691406 159.957031 334.675781 C 156.535156 329.839844 153.96875 324.476562 150.953125 319.398438 Z M 94.40625 245.371094 C 92.167969 248.410156 90.320312 251.921875 89.992188 255.746094 C 89.664062 259.898438 91.183594 264 93.5 267.398438 C 94.304688 263.363281 96.523438 259.804688 99.167969 256.726562 C 96.824219 253.296875 95.496094 249.339844 94.40625 245.371094 Z M 103.863281 257.703125 C 100.65625 260.660156 97.777344 264.542969 97.546875 269.058594 C 97.417969 273.65625 99.941406 277.804688 102.59375 281.363281 C 103.671875 280.210938 105.515625 279.601562 105.914062 277.9375 C 106.878906 274.867188 108.699219 272.1875 110.679688 269.6875 C 107.554688 266.246094 105.128906 262.183594 103.863281 257.703125 Z M 162.714844 338.574219 C 159.507812 338.90625 156.558594 340.4375 153.34375 340.6875 C 149.015625 341.136719 144.8125 339.5 141.074219 337.492188 C 143.703125 342.378906 147.015625 346.867188 150.34375 351.300781 C 151.71875 353.480469 154.40625 354.050781 156.753906 354.554688 C 162.726562 355.765625 168.308594 352.480469 174.167969 351.988281 C 170 347.828125 166.222656 343.296875 162.714844 338.578125 Z M 208.628906 410.121094 C 202.753906 411.9375 196.578125 412.035156 190.523438 412.816406 C 193.589844 418.523438 197.964844 423.972656 204.152344 426.40625 C 206.996094 427.546875 210.117188 427.066406 213.0625 426.726562 C 212.386719 425.125 210.910156 423.234375 212.019531 421.484375 C 213.382812 419.683594 215.832031 419.40625 217.828125 418.679688 C 214.03125 416.730469 211.070312 413.558594 208.628906 410.121094 Z M 118.941406 295.136719 C 115.152344 298.273438 111.625 302.519531 111.144531 307.585938 C 112.070312 313.363281 116.707031 317.808594 121.484375 320.796875 C 122.128906 318.460938 122.964844 316.191406 123.984375 314.003906 C 121.96875 307.808594 120.191406 301.535156 118.941406 295.136719 Z M 176.015625 383.980469 C 172.664062 384.117188 169.320312 383.976562 165.992188 383.480469 C 166.570312 386.355469 167.6875 389.097656 169.371094 391.507812 C 170.234375 392.695312 171.121094 394.132812 172.660156 394.503906 C 175.796875 395.359375 179.050781 395.644531 182.273438 395.96875 C 183.164062 395.09375 183.980469 393.8125 185.378906 393.824219 C 187.855469 393.679688 190.328125 394.0625 192.804688 393.9375 C 187.039062 390.90625 181.5 387.46875 176.015625 383.980469 Z M 216.207031 430.703125 C 212.085938 431.398438 207.941406 432.019531 203.765625 432.277344 C 206.324219 433.621094 209.210938 434.136719 211.960938 434.96875 C 216.09375 436.035156 220.375 437.488281 224.683594 436.507812 C 221.503906 435.113281 218.886719 432.832031 216.207031 430.699219 Z M 105.679688 283.625 C 102.652344 287.449219 99.792969 291.839844 99.570312 296.859375 C 99.351562 301.800781 101.824219 306.425781 105.011719 310.035156 C 105.820312 308.320312 106.71875 306.625 108.105469 305.304688 C 108.8125 301.371094 111.105469 297.953125 113.914062 295.203125 C 110.503906 291.859375 107.800781 287.890625 105.679688 283.625 Z M 85.371094 260.261719 C 84.878906 268.277344 85.054688 276.34375 85.878906 284.335938 C 86.671875 279.882812 87.777344 275.421875 90.0625 271.484375 C 88.0625 267.9375 86.230469 264.261719 85.371094 260.261719 Z M 93.984375 273.984375 C 92.339844 277.042969 91.019531 280.425781 91.089844 283.945312 C 91.132812 288.058594 93.375 291.691406 95.847656 294.808594 C 96.273438 290.9375 98.417969 287.5625 100.011719 284.175781 C 97.476562 281.113281 95.394531 277.710938 93.984375 273.984375 Z M 125.667969 318.894531 C 124.359375 322.046875 123.511719 325.363281 122.714844 328.675781 C 122.027344 332.074219 121.304688 335.707031 122.351562 339.101562 C 124.941406 343.804688 130.167969 346.246094 135.078125 347.824219 C 135.257812 345.527344 136.046875 343.320312 136.269531 341.042969 C 132.355469 333.851562 128.589844 326.558594 125.671875 318.894531 Z M 154.808594 365.382812 C 154.425781 370.972656 155.066406 376.925781 158.21875 381.707031 C 159.574219 382.578125 161.148438 383 162.652344 383.566406 C 162.847656 382.207031 163.152344 380.425781 164.820312 380.1875 C 167.316406 379.882812 169.722656 380.988281 172.210938 381.101562 C 166.078125 376.246094 160.140625 371.109375 154.808594 365.382812 Z M 183.308594 399.285156 C 177.574219 399.199219 171.90625 398.339844 166.226562 397.671875 C 167.398438 403.882812 170.652344 409.832031 175.730469 413.675781 C 179.101562 416.214844 183.449219 416.535156 187.511719 416.488281 C 186.925781 414.847656 185.804688 413.160156 186.269531 411.355469 C 186.867188 409.609375 188.949219 409.488281 190.445312 409.007812 C 187.546875 406.175781 185.300781 402.785156 183.308594 399.285156 Z M 138.96875 345.175781 C 137.808594 349.433594 137.675781 353.960938 138.269531 358.328125 C 138.664062 359.996094 138.710938 362.082031 140.242188 363.183594 C 143.503906 365.628906 147.449219 366.992188 151.425781 367.769531 C 151.570312 366.011719 151.894531 364.28125 152.207031 362.554688 C 147.492188 356.996094 143.066406 351.207031 138.96875 345.175781 Z M 190.171875 420.769531 C 184.785156 421.113281 179.402344 420.542969 174.101562 419.609375 C 179.5625 422.867188 185.421875 425.414062 191.324219 427.765625 C 193.792969 428.746094 196.484375 428.984375 199.117188 428.910156 C 195.703125 426.714844 192.667969 423.980469 190.171875 420.769531 Z M 108.605469 311.308594 C 106.441406 317.382812 104.832031 324.199219 106.957031 330.507812 C 108.703125 335.769531 113.839844 338.894531 118.769531 340.746094 C 118.128906 335.089844 118.664062 329.378906 120.46875 323.976562 C 115.28125 321.144531 110.917969 316.804688 108.605469 311.3125 Z M 138.375 366.203125 C 137.871094 371.523438 138.828125 377.089844 141.980469 381.507812 C 142.574219 380.574219 143.15625 379.058594 144.539062 379.257812 C 147.613281 379.457031 150.558594 380.484375 153.566406 381.03125 L 153.84375 380.738281 C 152.683594 377.601562 151.851562 374.355469 151.566406 371.019531 C 146.957031 370.09375 142.453125 368.570312 138.375 366.203125 Z M 145.304688 382.78125 C 145.484375 387.632812 147.714844 392.203125 150.394531 396.160156 C 153.136719 400.054688 158.175781 400.867188 162.589844 401.339844 C 162.339844 399.433594 161.589844 397.367188 162.445312 395.523438 C 163.398438 394.011719 165.363281 394.195312 166.902344 393.996094 C 165.609375 391.777344 164.53125 389.453125 163.546875 387.089844 C 157.65625 384.964844 151.429688 383.996094 145.304688 382.78125 Z M 121.808594 344.140625 C 121.117188 348.566406 120.839844 353.4375 123.074219 357.496094 C 125.433594 361.8125 130.320312 363.671875 134.707031 365.21875 C 135.097656 364.472656 135.476562 363.738281 135.867188 363.015625 C 134.917969 359.113281 134.460938 355.085938 134.796875 351.082031 C 129.984375 349.8125 125.636719 347.28125 121.808594 344.140625 Z M 86.492188 287.773438 C 86.710938 294.800781 88.03125 301.742188 89.679688 308.5625 C 90.347656 304.988281 91.0625 301.417969 92.332031 298.003906 C 89.902344 294.882812 88.082031 291.378906 86.492188 287.773438 Z M 95.851562 301.570312 C 92.417969 310.441406 95.289062 321.175781 102.160156 327.621094 C 101.78125 322.902344 102.292969 318.152344 103.691406 313.632812 C 100.136719 310.304688 97.386719 306.195312 95.851562 301.570312 Z M 148.378906 402.222656 C 152.644531 406.097656 157.425781 409.382812 162.292969 412.480469 C 164.691406 414.136719 167.667969 414.394531 170.414062 415.160156 C 167.9375 412.46875 165.757812 409.484375 164.183594 406.175781 C 158.757812 405.59375 153.425781 404.300781 148.378906 402.222656 Z M 106.84375 337.773438 C 106.699219 341.097656 107.035156 344.511719 108.269531 347.628906 C 110.136719 351.988281 114.089844 355.019531 118.207031 357.121094 C 117.382812 352.925781 117.371094 348.617188 117.582031 344.359375 C 113.617188 342.882812 109.925781 340.6875 106.84375 337.773438 Z M 123.441406 364.089844 C 123.957031 368.082031 124.816406 372.292969 127.582031 375.382812 C 130.15625 378.449219 133.960938 380.039062 137.675781 381.234375 C 135.675781 377.480469 134.980469 373.199219 134.582031 369.011719 C 130.710938 367.773438 126.863281 366.335938 123.441406 364.089844 Z M 95.515625 327.316406 C 97.410156 332.980469 99.617188 338.566406 102.425781 343.839844 C 102.023438 340.472656 102.09375 337.082031 102.414062 333.710938 C 99.878906 331.835938 97.765625 329.496094 95.515625 327.316406 Z M 126.472656 380.980469 C 129.921875 384.984375 133.582031 388.820312 137.507812 392.367188 C 139.8125 394.445312 142.789062 395.46875 145.617188 396.621094 C 143.75 393.679688 142.332031 390.476562 141.421875 387.113281 C 136.164062 385.828125 131.070312 383.863281 126.472656 380.980469 Z M 109.183594 356.6875 C 112.914062 363.113281 117.070312 369.300781 121.628906 375.171875 C 119.984375 371.070312 119.0625 366.753906 118.554688 362.378906 C 115.195312 360.898438 112.082031 358.929688 109.183594 356.6875 Z M 109.183594 356.6875 " fill-opacity="1" fill-rule="evenodd"/></g></g></g></g></g></g><g transform="matrix(1, 0, 0, 1, 717, 733)"><g clip-path="url(#c3988ae5e9)"><g fill="#000000" fill-opacity="1"><g transform="translate(0.875889, 111.557012)"><g><path d="M 27.078125 -51.609375 C 29.765625 -49.671875 32.34375 -47.675781 34.8125 -45.625 C 37.28125 -43.570312 39.472656 -41.335938 41.390625 -38.921875 C 43.304688 -36.515625 44.816406 -33.8125 45.921875 -30.8125 C 47.023438 -27.8125 47.578125 -24.414062 47.578125 -20.625 C 47.578125 -17.613281 47.023438 -14.773438 45.921875 -12.109375 C 44.816406 -9.453125 43.234375 -7.113281 41.171875 -5.09375 C 39.117188 -3.082031 36.640625 -1.503906 33.734375 -0.359375 C 30.835938 0.785156 27.570312 1.359375 23.9375 1.359375 C 19.664062 1.359375 16.050781 0.6875 13.09375 -0.65625 C 10.132812 -2 7.742188 -3.785156 5.921875 -6.015625 C 4.109375 -8.242188 2.785156 -10.679688 1.953125 -13.328125 C 1.128906 -15.972656 0.71875 -18.601562 0.71875 -21.21875 L 0.71875 -24.40625 C 0.71875 -25.675781 0.851562 -26.546875 1.125 -27.015625 C 1.40625 -27.492188 2.019531 -27.734375 2.96875 -27.734375 L 18.375 -27.734375 C 19.394531 -27.734375 20.03125 -27.546875 20.28125 -27.171875 C 20.539062 -26.796875 20.671875 -26.070312 20.671875 -25 L 20.671875 -22.453125 C 20.671875 -20.679688 21.003906 -19.476562 21.671875 -18.84375 C 22.347656 -18.207031 23.179688 -17.890625 24.171875 -17.890625 C 25.078125 -17.890625 25.835938 -18.207031 26.453125 -18.84375 C 27.066406 -19.476562 27.375 -20.460938 27.375 -21.796875 C 27.375 -23.535156 26.738281 -25.097656 25.46875 -26.484375 C 24.207031 -27.867188 22.332031 -29.546875 19.84375 -31.515625 C 16.925781 -33.890625 14.390625 -35.972656 12.234375 -37.765625 C 10.078125 -39.566406 8.257812 -41.253906 6.78125 -42.828125 C 5.300781 -44.410156 4.113281 -46.0625 3.21875 -47.78125 C 2.332031 -49.5 1.691406 -51.425781 1.296875 -53.5625 C 0.910156 -55.695312 0.71875 -58.242188 0.71875 -61.203125 C 0.71875 -64.835938 1.382812 -68.035156 2.71875 -70.796875 C 4.0625 -73.566406 5.835938 -75.878906 8.046875 -77.734375 C 10.265625 -79.585938 12.707031 -80.988281 15.375 -81.9375 C 18.039062 -82.882812 20.695312 -83.359375 23.34375 -83.359375 C 27.726562 -83.359375 31.648438 -82.441406 35.109375 -80.609375 C 38.566406 -78.773438 41.289062 -76.109375 43.28125 -72.609375 C 45.28125 -69.109375 46.28125 -64.875 46.28125 -59.90625 L 46.28125 -56.640625 C 46.28125 -55.691406 46.117188 -55.050781 45.796875 -54.71875 C 45.484375 -54.382812 44.753906 -54.21875 43.609375 -54.21875 L 28.5 -54.21875 C 27.664062 -54.21875 27.140625 -54.382812 26.921875 -54.71875 C 26.710938 -55.050781 26.609375 -55.710938 26.609375 -56.703125 L 26.609375 -59.78125 C 26.609375 -62.707031 25.539062 -64.171875 23.40625 -64.171875 C 22.375 -64.171875 21.609375 -63.832031 21.109375 -63.15625 C 20.617188 -62.488281 20.375 -61.640625 20.375 -60.609375 C 20.375 -59.421875 20.539062 -58.398438 20.875 -57.546875 C 21.21875 -56.703125 21.875 -55.835938 22.84375 -54.953125 C 23.8125 -54.066406 25.222656 -52.953125 27.078125 -51.609375 Z M 27.078125 -51.609375 "/></g></g></g><g fill="#000000" fill-opacity="1"><g transform="translate(73.2497, 111.557012)"><g><path d="M 23.578125 -19.203125 L 44.375 -19.203125 C 45.601562 -19.203125 46.21875 -18.429688 46.21875 -16.890625 L 46.21875 -2.3125 C 46.21875 -0.769531 45.601562 0 44.375 0 L 4.5 0 C 3 0 2.25 -0.804688 2.25 -2.421875 L 2.25 -79.578125 C 2.25 -81.234375 3 -82.0625 4.5 -82.0625 L 43.90625 -82.0625 C 45.050781 -82.0625 45.625 -81.234375 45.625 -79.578125 L 45.625 -65.171875 C 45.625 -63.554688 45.050781 -62.75 43.90625 -62.75 L 23.578125 -62.75 L 23.578125 -50.65625 L 39.515625 -50.65625 C 40.148438 -50.65625 40.65625 -50.457031 41.03125 -50.0625 C 41.40625 -49.664062 41.59375 -49.054688 41.59375 -48.234375 L 41.59375 -33.828125 C 41.59375 -32.253906 40.898438 -31.46875 39.515625 -31.46875 L 23.578125 -31.46875 Z M 23.578125 -19.203125 "/></g></g></g><g fill="#000000" fill-opacity="1"><g transform="translate(144.083172, 111.557012)"><g><path d="M 28.203125 -22.640625 L 28.203125 -29.984375 C 28.203125 -30.929688 27.894531 -31.75 27.28125 -32.4375 C 26.664062 -33.125 25.769531 -33.46875 24.59375 -33.46875 L 21.921875 -33.46875 L 21.921875 -19.203125 L 24.703125 -19.203125 C 25.648438 -19.203125 26.46875 -19.535156 27.15625 -20.203125 C 27.851562 -20.878906 28.203125 -21.691406 28.203125 -22.640625 Z M 28.078125 -54.21875 L 28.078125 -58.890625 C 28.078125 -60.316406 27.710938 -61.316406 26.984375 -61.890625 C 26.253906 -62.460938 25.4375 -62.75 24.53125 -62.75 L 21.921875 -62.75 L 21.921875 -50.421875 L 24.53125 -50.421875 C 25.476562 -50.421875 26.304688 -50.675781 27.015625 -51.1875 C 27.722656 -51.707031 28.078125 -52.71875 28.078125 -54.21875 Z M 48.28125 -60.140625 L 48.28125 -55.34375 C 48.28125 -53.207031 47.835938 -51.226562 46.953125 -49.40625 C 46.066406 -47.59375 45.007812 -46.082031 43.78125 -44.875 C 42.5625 -43.675781 41.4375 -42.914062 40.40625 -42.59375 C 41.113281 -42.320312 41.972656 -41.800781 42.984375 -41.03125 C 43.992188 -40.257812 45 -39.25 46 -38 C 47.007812 -36.757812 47.847656 -35.289062 48.515625 -33.59375 C 49.191406 -31.894531 49.53125 -29.976562 49.53125 -27.84375 L 49.53125 -20.265625 C 49.53125 -17.378906 48.894531 -14.703125 47.625 -12.234375 C 46.363281 -9.765625 44.675781 -7.609375 42.5625 -5.765625 C 40.457031 -3.929688 38.085938 -2.507812 35.453125 -1.5 C 32.828125 -0.5 30.15625 0 27.4375 0 L 4.5 0 C 3 0 2.25 -0.804688 2.25 -2.421875 L 2.25 -79.578125 C 2.25 -81.234375 3 -82.0625 4.5 -82.0625 L 25.65625 -82.0625 C 29.09375 -82.0625 32.191406 -81.476562 34.953125 -80.3125 C 37.722656 -79.144531 40.101562 -77.550781 42.09375 -75.53125 C 44.09375 -73.519531 45.625 -71.191406 46.6875 -68.546875 C 47.75 -65.898438 48.28125 -63.097656 48.28125 -60.140625 Z M 48.28125 -60.140625 "/></g></g></g><g fill="#000000" fill-opacity="1"><g transform="translate(217.938087, 111.557012)"><g><path d="M 23.34375 -60.203125 L 23.34375 -34.25 L 29.09375 -34.25 L 29.09375 -60.203125 C 29.09375 -61.179688 28.90625 -62.085938 28.53125 -62.921875 C 28.15625 -63.753906 27.394531 -64.171875 26.25 -64.171875 C 25.101562 -64.171875 24.332031 -63.753906 23.9375 -62.921875 C 23.539062 -62.085938 23.34375 -61.179688 23.34375 -60.203125 Z M 50.421875 -61.4375 L 50.421875 -2.484375 C 50.421875 -1.859375 50.242188 -1.285156 49.890625 -0.765625 C 49.535156 -0.253906 49.019531 0 48.34375 0 L 31.171875 0 C 30.578125 0 30.082031 -0.253906 29.6875 -0.765625 C 29.289062 -1.285156 29.09375 -1.859375 29.09375 -2.484375 L 29.09375 -15.703125 L 23.34375 -15.703125 L 23.34375 -2.484375 C 23.34375 -1.816406 23.222656 -1.234375 22.984375 -0.734375 C 22.753906 -0.242188 22.242188 0 21.453125 0 L 3.609375 0 C 3.179688 0 2.804688 -0.253906 2.484375 -0.765625 C 2.171875 -1.285156 2.015625 -1.859375 2.015625 -2.484375 L 2.015625 -61.4375 C 2.015625 -64.476562 2.664062 -67.332031 3.96875 -70 C 5.269531 -72.664062 7.046875 -75.003906 9.296875 -77.015625 C 11.546875 -79.035156 14.125 -80.609375 17.03125 -81.734375 C 19.9375 -82.859375 22.988281 -83.421875 26.1875 -83.421875 C 29.382812 -83.421875 32.441406 -82.859375 35.359375 -81.734375 C 38.285156 -80.609375 40.875 -79.035156 43.125 -77.015625 C 45.382812 -75.003906 47.164062 -72.664062 48.46875 -70 C 49.769531 -67.332031 50.421875 -64.476562 50.421875 -61.4375 Z M 50.421875 -61.4375 "/></g></g></g><g fill="#000000" fill-opacity="1"><g transform="translate(291.200365, 111.557012)"><g><path d="M 36.859375 -32.59375 L 36.859375 -2.421875 C 36.859375 -0.804688 36.222656 0 34.953125 0 L 17.421875 0 C 16.191406 0 15.578125 -0.804688 15.578125 -2.421875 L 15.578125 -32.640625 C 12.972656 -33.710938 10.644531 -35.1875 8.59375 -37.0625 C 6.539062 -38.9375 4.929688 -41.175781 3.765625 -43.78125 C 2.597656 -46.394531 2.015625 -49.335938 2.015625 -52.609375 L 2.015625 -80.8125 C 2.015625 -81.644531 2.410156 -82.0625 3.203125 -82.0625 L 21.796875 -82.0625 C 22.234375 -82.0625 22.597656 -81.960938 22.890625 -81.765625 C 23.191406 -81.566406 23.34375 -81.289062 23.34375 -80.9375 L 23.34375 -53.859375 C 23.34375 -52.867188 23.507812 -51.957031 23.84375 -51.125 C 24.1875 -50.300781 24.96875 -49.890625 26.1875 -49.890625 C 27.414062 -49.890625 28.207031 -50.222656 28.5625 -50.890625 C 28.914062 -51.566406 29.09375 -52.398438 29.09375 -53.390625 L 29.09375 -80.75 C 29.09375 -81.625 29.507812 -82.0625 30.34375 -82.0625 L 49.171875 -82.0625 C 49.492188 -82.0625 49.78125 -81.988281 50.03125 -81.84375 C 50.289062 -81.707031 50.421875 -81.363281 50.421875 -80.8125 L 50.421875 -52.609375 C 50.421875 -49.253906 49.835938 -46.253906 48.671875 -43.609375 C 47.503906 -40.960938 45.90625 -38.71875 43.875 -36.875 C 41.84375 -35.039062 39.503906 -33.613281 36.859375 -32.59375 Z M 36.859375 -32.59375 "/></g></g></g><g fill="#000000" fill-opacity="1"><g transform="translate(367.899003, 111.557012)"><g><path d="M 42.78125 -62.75 L 32.828125 -62.75 L 32.828125 -2.3125 C 32.828125 -0.769531 32.210938 0 30.984375 0 L 13.328125 0 C 12.109375 0 11.5 -0.769531 11.5 -2.3125 L 11.5 -62.75 L 1.484375 -62.75 C 0.253906 -62.75 -0.359375 -63.554688 -0.359375 -65.171875 L -0.359375 -79.578125 C -0.359375 -81.234375 0.253906 -82.0625 1.484375 -82.0625 L 42.78125 -82.0625 C 44.039062 -82.0625 44.671875 -81.234375 44.671875 -79.578125 L 44.671875 -65.171875 C 44.671875 -63.554688 44.039062 -62.75 42.78125 -62.75 Z M 42.78125 -62.75 "/></g></g></g></g></g></svg>