<svg xmlns="http://www.w3.org/2000/svg" xmlns:xlink="http://www.w3.org/1999/xlink" width="1032" zoomAndPan="magnify" viewBox="0 0 774 762.749994" height="1017" preserveAspectRatio="xMidYMid meet" version="1.0"><defs><filter x="0%" y="0%" width="100%" height="100%" id="01a580d068"><feColorMatrix values="0 0 0 0 1 0 0 0 0 1 0 0 0 0 1 0 0 0 1 0" color-interpolation-filters="sRGB"/></filter><g/><clipPath id="41f4169278"><path d="M 84 89 L 679 89 L 679 715 L 84 715 Z M 84 89 " clip-rule="nonzero"/></clipPath><clipPath id="beabe6fbd5"><path d="M 206.824219 0 L 699.289062 172.574219 L 492.496094 762.6875 L 0.03125 590.109375 Z M 206.824219 0 " clip-rule="nonzero"/></clipPath><clipPath id="2b8210c78f"><path d="M 206.824219 0 L 699.289062 172.574219 L 492.496094 762.6875 L 0.03125 590.109375 Z M 206.824219 0 " clip-rule="nonzero"/></clipPath><clipPath id="c59d11bba6"><path d="M 241 188 L 664 188 L 664 665 L 241 665 Z M 241 188 " clip-rule="nonzero"/></clipPath><clipPath id="9487d5e674"><path d="M 206.824219 0 L 699.289062 172.574219 L 492.496094 762.6875 L 0.03125 590.109375 Z M 206.824219 0 " clip-rule="nonzero"/></clipPath><clipPath id="477095756c"><path d="M 206.824219 0 L 699.289062 172.574219 L 492.496094 762.6875 L 0.03125 590.109375 Z M 206.824219 0 " clip-rule="nonzero"/></clipPath><mask id="5449be7689"><g filter="url(#01a580d068)"><rect x="-77.4" width="928.8" fill="#000000" y="-76.274999" height="915.299993" fill-opacity="0.07"/></g></mask><clipPath id="2def6cbc81"><path d="M 74 85 L 448 85 L 448 452 L 74 452 Z M 74 85 " clip-rule="nonzero"/></clipPath><clipPath id="33200884f8"><path d="M 309.679688 0.183594 L 528.644531 293.308594 L 219.898438 523.941406 L 0.933594 230.816406 Z M 309.679688 0.183594 " clip-rule="nonzero"/></clipPath><clipPath id="37a10e6904"><path d="M 309.679688 0.183594 L 528.644531 293.308594 L 219.898438 523.941406 L 0.933594 230.816406 Z M 309.679688 0.183594 " clip-rule="nonzero"/></clipPath><clipPath id="19d9c51a91"><rect x="0" width="530" y="0" height="525"/></clipPath><clipPath id="f575a47564"><path d="M 0.0625 28 L 48 28 L 48 114 L 0.0625 114 Z M 0.0625 28 " clip-rule="nonzero"/></clipPath><clipPath id="8719623b13"><rect x="0" width="436" y="0" height="142"/></clipPath></defs><g clip-path="url(#41f4169278)"><g clip-path="url(#beabe6fbd5)"><g clip-path="url(#2b8210c78f)"><path fill="#1800ad" d="M 84.925781 391.769531 C 85.632812 365.246094 89.726562 338.4375 97.519531 311.917969 L 154.332031 314.78125 C 154.363281 314.6875 154.386719 314.601562 154.414062 314.515625 C 160.210938 297.976562 167.535156 282.414062 176.136719 267.898438 L 140.332031 221.902344 C 155.472656 199.925781 173.191406 180.238281 192.925781 163.144531 L 239.230469 196.3125 C 254.308594 184.550781 270.585938 174.484375 287.785156 166.332031 L 282.566406 108.636719 C 306.472656 99.113281 331.597656 92.5 357.34375 89.066406 L 375.273438 134.203125 C 399.203125 127.847656 424.042969 124.523438 449.230469 124.394531 L 465.304688 93.578125 C 477.675781 96.285156 490.019531 99.761719 502.269531 104.054688 C 514.527344 108.351562 526.34375 113.339844 537.699219 118.949219 L 534.269531 136.5 C 538.960938 137.882812 543.640625 139.382812 548.316406 141.023438 C 601.164062 159.542969 645.414062 191.574219 678.554688 231.882812 C 650.640625 204.941406 616.613281 183.429688 577.601562 169.761719 C 432.84375 119.03125 274.363281 195.261719 223.636719 340.019531 C 172.90625 484.78125 249.136719 643.257812 393.898438 693.988281 C 432.90625 707.65625 472.917969 712.089844 511.546875 708.460938 C 460.496094 719.265625 405.929688 716.671875 353.082031 698.148438 C 324.433594 688.109375 298.3125 674.089844 275.109375 656.933594 L 254.253906 678.585938 C 228.949219 665.519531 206.023438 649.308594 185.78125 630.621094 L 208.09375 587.640625 C 199.316406 574.941406 191.496094 561.625 184.808594 547.753906 L 129.28125 560.929688 C 115.132812 537.21875 104.128906 511.695312 96.605469 485.066406 L 146.140625 456.640625 C 142.796875 441.785156 140.765625 426.574219 140.101562 411.175781 L 84.925781 391.769531 " fill-opacity="1" fill-rule="nonzero"/></g></g></g><g clip-path="url(#c59d11bba6)"><g clip-path="url(#9487d5e674)"><g clip-path="url(#477095756c)"><path fill="#1800ad" d="M 528.644531 659.667969 C 497.515625 662.59375 465.261719 659.023438 433.820312 648.007812 C 317.136719 607.117188 255.695312 479.382812 296.585938 362.699219 C 337.472656 246.019531 465.207031 184.585938 581.890625 225.472656 C 613.332031 236.492188 640.757812 253.828125 663.253906 275.542969 C 636.550781 243.050781 600.875 217.238281 558.28125 202.3125 C 434.277344 158.855469 298.53125 224.152344 255.078125 348.152344 C 211.621094 472.15625 276.917969 607.902344 400.917969 651.359375 C 443.515625 666.285156 487.492188 668.382812 528.644531 659.667969 " fill-opacity="1" fill-rule="nonzero"/></g></g></g><g mask="url(#5449be7689)"><g transform="matrix(1, 0, 0, 1, 241, 165)"><g clip-path="url(#19d9c51a91)"><g clip-path="url(#2def6cbc81)"><g clip-path="url(#33200884f8)"><g clip-path="url(#37a10e6904)"><path fill="#1800ad" d="M 416.585938 146.644531 C 421.617188 149.695312 425.699219 154.378906 427.730469 159.929688 C 429.035156 163.179688 429.308594 166.890625 431.628906 169.679688 C 438.59375 179.523438 444.308594 190.386719 447.355469 202.097656 C 448.839844 208.144531 445.910156 214.265625 442.0625 218.789062 C 439.367188 221.964844 435.578125 223.8125 431.828125 225.429688 C 434.960938 236.449219 436.585938 247.820312 437.539062 259.21875 C 440.652344 298.402344 429.605469 338.28125 408 370.992188 C 396.363281 388.210938 381.726562 403.347656 365.089844 415.78125 C 347.992188 428.679688 328.429688 438.203125 307.921875 444.292969 C 276.984375 453.089844 243.714844 453.664062 212.558594 445.621094 C 174.457031 436.042969 139.628906 413.90625 114.992188 383.277344 C 96.894531 361.160156 84.460938 334.605469 78.261719 306.75 C 73.910156 286.257812 72.914062 265.054688 75.605469 244.261719 C 78.558594 221.046875 85.980469 198.386719 97.421875 177.960938 C 109.824219 155.8125 127.03125 136.386719 147.5 121.367188 C 162.550781 110.421875 179.152344 101.582031 196.769531 95.546875 C 220.480469 87.78125 245.707031 84.5625 270.609375 86.292969 C 292.589844 87.9375 314.3125 93.082031 334.636719 101.621094 C 344.855469 105.8125 354.589844 111.058594 364.660156 115.582031 C 367.0625 116.382812 369.632812 116.5625 372.050781 117.355469 C 386.585938 121.703125 399.070312 131.179688 409.152344 142.316406 C 411.296875 144.265625 414.199219 145.039062 416.585938 146.644531 Z M 428.488281 194.332031 C 431.273438 196.550781 431.152344 201.640625 428.066406 203.558594 C 426.671875 204.570312 423.84375 203.820312 424.1875 201.773438 C 425.128906 200.355469 426.34375 198.992188 426.074219 197.15625 C 425.847656 195.839844 427.109375 193.644531 428.488281 194.332031 Z M 406.34375 151.570312 C 402.25 150.152344 397.574219 149.917969 394.1875 146.9375 C 396.691406 147.324219 399.210938 147.648438 401.75 147.523438 C 398.109375 143.820312 394.367188 140.128906 389.949219 137.359375 C 387.355469 135.460938 382.46875 137.273438 382.785156 140.808594 C 383.425781 146.261719 387.101562 151.269531 392.074219 153.59375 C 396.640625 155.769531 401.765625 156.425781 406.253906 158.816406 C 404.863281 157.316406 403.144531 156.214844 401.484375 155.058594 C 406.613281 155.710938 410.824219 159.628906 412.945312 164.1875 C 415.269531 169.378906 414.585938 175.210938 415.625 180.691406 C 416.304688 184.566406 418.214844 188.070312 420.21875 191.414062 C 422.390625 189.238281 425.382812 187.546875 428.554688 187.929688 C 430.964844 188.121094 432.683594 190.019531 434.398438 191.515625 C 432.011719 185.300781 428.601562 179.5 424.628906 174.171875 C 424.457031 177.136719 424.410156 180.117188 423.945312 183.058594 C 421.25 176.148438 422.445312 168.296875 419 161.636719 C 416.488281 156.625 411.667969 153.09375 406.34375 151.570312 Z M 431.574219 192.492188 C 429.742188 190.417969 426.550781 189.566406 424.058594 190.957031 C 421.589844 191.972656 420.421875 194.472656 418.976562 196.527344 C 418.96875 195.058594 419.25 193.609375 419.445312 192.164062 C 416.1875 188.71875 412.386719 185.796875 408.550781 183.035156 C 406.082031 182.5 403.484375 182.636719 401.054688 181.84375 C 397.324219 180.917969 394.191406 178.117188 392.636719 174.640625 C 391.152344 170.917969 391.289062 166.761719 392.148438 162.914062 C 392.8125 160.847656 390.703125 159.394531 389.714844 157.851562 C 385.441406 164.285156 387.398438 173.042969 392.125 178.664062 C 395.289062 182.847656 400.175781 185.128906 405.105469 186.53125 C 399.523438 187.226562 393.894531 184.875 389.855469 181.097656 C 387.199219 181.625 384.933594 183.4375 384.507812 186.210938 C 387.335938 188.417969 390.292969 190.457031 393.28125 192.441406 C 394.570312 190.101562 396.941406 188.761719 399.515625 188.34375 C 397.78125 189.804688 396.292969 191.59375 395.839844 193.878906 C 398.910156 195.859375 402.113281 197.625 405.421875 199.15625 C 406.847656 197.085938 408.785156 195.367188 411.167969 194.503906 C 409.804688 196.308594 408.546875 198.210938 407.730469 200.335938 C 410.660156 201.855469 413.542969 203.515625 416.660156 204.664062 C 417.511719 203.617188 418.421875 202.621094 419.363281 201.652344 C 419.019531 202.957031 418.683594 204.257812 418.363281 205.566406 C 421.609375 207.195312 424.851562 208.84375 427.929688 210.769531 C 430.289062 210.054688 432.550781 209.085938 434.757812 208.011719 C 433.484375 210.019531 431.542969 211.523438 429.375 212.472656 C 429.960938 213.957031 430.476562 215.480469 430.996094 217 C 434.351562 215.042969 437.390625 212.222656 438.792969 208.527344 C 439.996094 205.160156 438.578125 201.554688 437.144531 198.496094 C 435.539062 196.292969 433.367188 194.546875 431.574219 192.492188 Z M 374.488281 128.390625 C 372.570312 127.765625 370.535156 127.246094 368.519531 127.640625 C 368.960938 129.359375 369.738281 130.960938 370.527344 132.546875 C 374.195312 132.558594 377.703125 133.964844 380.558594 136.210938 C 381.824219 135.039062 383.335938 134.199219 384.96875 133.65625 C 381.660156 131.558594 378.207031 129.628906 374.484375 128.390625 Z M 398.3125 163.9375 C 395.222656 166.625 394.601562 171.597656 397.179688 174.847656 C 399.515625 170.429688 403.457031 166.960938 408.316406 165.621094 C 406.542969 161.871094 401.238281 161.269531 398.3125 163.9375 Z M 409.609375 168.085938 C 406.824219 172.0625 402.625 175.003906 397.765625 175.6875 C 400.417969 178.191406 404.886719 178.972656 407.945312 176.757812 C 410.542969 174.71875 410.804688 170.964844 409.609375 168.085938 Z M 369.300781 135.441406 C 369.910156 139.777344 372.957031 143.167969 375.058594 146.847656 C 372.085938 145.496094 369.851562 142.886719 366.714844 141.828125 C 363.441406 140.355469 359.816406 141.109375 356.367188 140.785156 C 359.417969 138.199219 363.664062 138.027344 367.320312 139.238281 C 366.628906 137.105469 365.996094 134.496094 367.8125 132.699219 C 363.75 130.171875 358.484375 128.964844 353.910156 130.742188 C 353.914062 133.46875 354.632812 136.113281 355.617188 138.640625 L 355.074219 138.984375 C 353.453125 136.523438 351.507812 133.921875 351.496094 130.84375 C 351.460938 129.035156 353.246094 128.015625 354.769531 127.554688 C 358.199219 126.59375 361.832031 127.265625 365.203125 128.179688 C 365.582031 127.398438 365.96875 126.621094 366.367188 125.855469 C 362.613281 124.816406 358.746094 124.125 354.847656 124.125 C 350.796875 124.257812 346.5 124.503906 343.007812 126.804688 C 340.097656 126.503906 337.15625 126.007812 334.222656 126.363281 C 332.257812 126.625 329.910156 126.761719 328.84375 128.710938 C 330.933594 131.347656 332.898438 134.144531 334.085938 137.332031 C 330.917969 135.9375 329.0625 132.660156 325.910156 131.269531 C 322.023438 130.140625 317.878906 131.511719 314.480469 133.425781 C 315.957031 135.152344 317.171875 137.367188 319.394531 138.234375 C 322.84375 139.78125 326.148438 141.613281 329.570312 143.21875 C 334.542969 139.15625 341.085938 136.847656 347.523438 137.617188 C 339.890625 140.238281 332.890625 145.765625 329.96875 153.457031 C 327.636719 159.765625 328.394531 166.835938 330.503906 173.089844 C 332.105469 169.902344 334.527344 167.257812 336.464844 164.304688 C 335.90625 161.765625 334.429688 159.417969 334.457031 156.742188 C 334.234375 152.628906 336.800781 148.867188 340.191406 146.738281 C 339.332031 148.742188 337.980469 150.5625 337.574219 152.75 C 336.960938 155.578125 337.734375 158.460938 338.59375 161.160156 C 340.363281 159.777344 342.25 158.398438 344.527344 158.015625 C 342.808594 160.335938 340.417969 162.3125 339.679688 165.21875 C 338.742188 168.90625 340.085938 172.632812 341.265625 176.101562 C 343.945312 174.367188 347.183594 174.109375 350.265625 174.550781 C 350.050781 170.59375 349.71875 166.515625 347.867188 162.941406 C 345.714844 158.511719 343.675781 153.375 345.386719 148.449219 C 346.40625 145.277344 350.210938 144.21875 353.1875 144.804688 C 357.738281 145.773438 361.683594 148.4375 365.390625 151.128906 C 372.765625 148.757812 380.769531 152.3125 385.800781 157.765625 C 386.441406 157.039062 387.089844 156.324219 387.746094 155.613281 C 384.832031 153.503906 382.679688 150.507812 381.105469 147.3125 C 379.527344 144.1875 378.707031 140.535156 379.996094 137.164062 C 376.640625 135.796875 372.941406 134.90625 369.304688 135.4375 Z M 368.414062 153.757812 C 369.28125 155.527344 370.097656 157.320312 370.898438 159.128906 C 372.800781 163.4375 375.566406 167.296875 377.472656 171.601562 C 380.460938 172.835938 383.058594 174.953125 384.386719 177.976562 C 382.335938 176.835938 380.421875 175.402344 378.230469 174.546875 C 376.097656 173.992188 374.722656 176.097656 373.578125 177.527344 C 376.324219 179.882812 379.253906 182.003906 382.109375 184.230469 C 383.472656 181.574219 386.3125 180.269531 389.1875 180.101562 C 385.195312 174.546875 383.054688 167.457031 384.675781 160.671875 C 380.632812 156.167969 374.617188 152.851562 368.414062 153.757812 Z M 418.757812 215.550781 C 416.378906 219.546875 412.710938 222.445312 408.671875 224.644531 C 414.765625 224.480469 421.089844 222.542969 425.421875 218.074219 C 423.246094 217.117188 420.992188 216.355469 418.757812 215.550781 Z M 338.882812 115.308594 C 340.714844 117.035156 342.234375 119.0625 343.636719 121.148438 C 345.609375 120.632812 347.609375 120.242188 349.609375 119.878906 C 346.09375 118.21875 342.542969 116.625 338.882812 115.308594 Z M 405.703125 205.257812 C 402.332031 209.542969 397.992188 213.007812 392.910156 215.023438 C 400.207031 216.089844 407.691406 213.207031 413.289062 208.59375 C 410.808594 207.367188 408.261719 206.296875 405.703125 205.261719 Z M 357.597656 152.632812 C 354.113281 153.707031 352.335938 157.785156 353.378906 161.132812 C 354.847656 163.402344 356.855469 165.25 358.765625 167.140625 C 360.375 163.113281 364.875 161.203125 369.003906 161.527344 C 367.808594 159.402344 366.894531 157.121094 365.515625 155.117188 C 363.53125 153.0625 360.46875 151.277344 357.597656 152.632812 Z M 419.078125 227.445312 C 415.953125 228.265625 412.734375 228.605469 409.625 229.480469 C 413.328125 232.222656 417.015625 235.246094 418.886719 239.597656 C 419.925781 235.628906 419.984375 231.445312 419.078125 227.445312 Z M 334.554688 117.132812 C 330.71875 114.691406 325.871094 114.804688 321.636719 115.96875 C 324.4375 118.25 326.703125 121.074219 328.59375 124.144531 C 332.21875 122.910156 336.082031 122.777344 339.871094 122.859375 C 338.332031 120.753906 336.875 118.457031 334.554688 117.132812 Z M 361.082031 169.226562 C 364.300781 171.636719 367.703125 173.777344 371.15625 175.839844 C 372.316406 174.351562 373.726562 173.097656 375.433594 172.28125 C 373.878906 169.714844 372.363281 167.125 370.839844 164.539062 C 367.015625 163.003906 361.878906 164.894531 361.082031 169.226562 Z M 409.902344 217.050781 C 404.917969 218.3125 399.910156 220.132812 394.679688 219.660156 C 396.867188 224.191406 395.621094 229.433594 393.417969 233.699219 C 397.105469 236.5 400.46875 239.914062 402.15625 244.3125 C 404.964844 240.433594 406.277344 235.589844 406.101562 230.835938 C 405.953125 230.085938 406.257812 228.789062 405.132812 228.824219 C 402.65625 228.28125 400.183594 227.472656 398.222656 225.789062 C 401.714844 223.449219 405.652344 221.816406 408.988281 219.238281 C 409.878906 218.800781 409.972656 217.917969 409.902344 217.050781 Z M 423.078125 236.113281 C 422.820312 239.113281 421.75 241.910156 420.496094 244.609375 C 420.425781 249.019531 419.566406 253.457031 417.316406 257.316406 C 419.582031 260.71875 421.398438 264.429688 422.46875 268.390625 C 424.5625 264.683594 425.941406 260.515625 425.882812 256.234375 C 425.785156 249.441406 424.515625 242.730469 423.078125 236.113281 Z M 313.496094 105.625 C 316.09375 107.253906 318.078125 109.617188 319.992188 111.976562 C 322.882812 111.300781 325.847656 110.890625 328.828125 110.941406 C 323.773438 109.011719 318.757812 106.917969 313.496094 105.625 Z M 351.457031 147.914062 C 350.3125 147.929688 349.1875 148.691406 348.976562 149.867188 C 348.460938 152.40625 349.632812 154.863281 350.605469 157.136719 C 351.492188 153.488281 354.519531 150.992188 357.957031 149.808594 C 355.890625 148.925781 353.785156 147.71875 351.457031 147.914062 Z M 387.636719 199.734375 C 387.554688 202.15625 387.449219 204.589844 387.113281 207 C 388.636719 208.339844 390.199219 209.640625 391.769531 210.933594 C 393.425781 210.027344 395.152344 209.207031 396.613281 207.984375 C 397.210938 207.378906 398.25 206.359375 397.417969 205.507812 C 395.082031 202.328125 391.246094 200.898438 387.636719 199.734375 Z M 409.289062 232.898438 C 408.886719 236.964844 407.992188 241.027344 406.019531 244.640625 C 409.382812 248.171875 411.78125 252.503906 413.140625 257.179688 C 416.238281 253.152344 417.84375 247.777344 416.566406 242.773438 C 415.527344 238.671875 412.585938 235.390625 409.289062 232.898438 Z M 375.789062 199.847656 C 376.570312 201.1875 377.085938 202.734375 378.113281 203.921875 C 379.9375 204.875 381.871094 205.605469 383.773438 206.410156 C 384.605469 204.082031 384.863281 201.605469 384.710938 199.140625 C 381.726562 198.597656 378.667969 198.933594 375.789062 199.847656 Z M 369.183594 181.574219 C 364.703125 180.800781 360.347656 182.898438 356.875 185.570312 C 358.660156 182.429688 361.648438 180.167969 364.933594 178.785156 C 361.492188 177.046875 358.382812 174.734375 355.609375 172.070312 C 355.976562 173.851562 356.164062 175.683594 355.988281 177.507812 C 355.511719 183.65625 354.398438 189.726562 353.328125 195.792969 C 355.660156 192.628906 358.289062 189.574219 361.628906 187.441406 C 364.921875 185.351562 368.800781 184.5 372.605469 183.929688 C 371.484375 183.113281 370.4375 182.175781 369.183594 181.574219 Z M 308.027344 107.574219 C 304.226562 106.175781 300.011719 106.824219 296.429688 108.546875 C 299.566406 110.476562 302.191406 113.078125 304.464844 115.949219 C 308.03125 114.222656 312.027344 113.613281 315.957031 113.9375 C 313.894531 111.214844 311.355469 108.652344 308.027344 107.574219 Z M 316.515625 118.019531 C 312.472656 116.773438 308 117.746094 304.554688 120.121094 C 307.625 123.375 310.605469 126.746094 312.722656 130.71875 C 316.359375 128.476562 320.609375 127.4375 324.871094 127.640625 C 325.046875 126.714844 325.339844 125.695312 324.648438 124.894531 C 322.78125 121.828125 320.054688 119.03125 316.515625 118.019531 Z M 379.535156 207.886719 C 380.898438 210.195312 381.96875 212.667969 382.964844 215.152344 C 383.105469 215.242188 383.386719 215.429688 383.527344 215.511719 C 385.363281 214.246094 387.363281 213.207031 389.40625 212.28125 C 386.890625 209.273438 382.675781 209.78125 379.535156 207.886719 Z M 386.414062 217.699219 C 385.488281 217.34375 384.621094 216.585938 383.585938 216.863281 C 386.003906 222.527344 387.71875 228.464844 389.410156 234.382812 C 392.390625 230.066406 393.699219 224.804688 393.5 219.601562 C 391.070312 219.25 388.640625 218.738281 386.414062 217.699219 Z M 426.933594 267.476562 C 425.882812 269.710938 424.394531 271.6875 423.003906 273.714844 C 424.238281 276.496094 425.785156 279.148438 426.742188 282.054688 C 427.066406 277.203125 427.246094 272.324219 426.933594 267.476562 Z M 285.34375 99.128906 C 288.464844 100.507812 291.269531 102.496094 293.59375 105 C 296.234375 103.765625 298.96875 102.734375 301.859375 102.277344 C 296.425781 100.871094 290.894531 99.882812 285.34375 99.128906 Z M 367.800781 196.210938 C 367.828125 197.554688 368.3125 198.835938 368.65625 200.128906 C 370.429688 206.035156 372.082031 211.996094 373.113281 218.082031 C 373.847656 217.871094 374.585938 217.667969 375.328125 217.46875 C 375.242188 219.261719 374.507812 220.894531 373.878906 222.546875 C 373.871094 224.207031 374.269531 225.839844 374.457031 227.496094 C 375.902344 227.023438 377.359375 226.613281 378.84375 226.277344 C 378.496094 229.21875 377.019531 231.832031 375.214844 234.125 C 375.695312 235.761719 375.96875 237.464844 376.628906 239.042969 C 377.214844 239.789062 378.503906 241.046875 379.363281 239.894531 C 380.898438 237.976562 381.691406 235.570312 382.425781 233.246094 C 383.472656 229.859375 381.71875 226.558594 380.683594 223.414062 C 377.394531 213.90625 373.203125 204.707031 367.800781 196.210938 Z M 415.425781 260.089844 C 414.546875 260.652344 413.574219 261.449219 412.523438 260.738281 C 411.957031 264.699219 409.949219 268.246094 407.558594 271.386719 C 410.144531 274.972656 411.65625 279.164062 412.640625 283.441406 C 416 281.113281 418.308594 277.292969 419.007812 273.28125 C 419.832031 268.582031 417.664062 264.066406 415.425781 260.089844 Z M 404.34375 247.003906 C 403.605469 247.570312 402.867188 248.140625 402.113281 248.695312 C 401.414062 252.761719 398.921875 256.167969 396.671875 259.511719 C 400.222656 262.445312 402.898438 265.863281 403.597656 270.441406 C 407.078125 267.082031 409.796875 262.363281 409.230469 257.378906 C 408.898438 253.445312 406.4375 250.191406 404.34375 247.003906 Z M 341.980469 180.199219 C 340.324219 183.320312 341.066406 186.960938 341.550781 190.277344 C 344.011719 189.921875 346.496094 190.152344 348.921875 190.683594 C 349.554688 185.6875 350.347656 180.683594 350.292969 175.628906 C 347.046875 175.875 343.585938 177.160156 341.980469 180.199219 Z M 391.832031 235.984375 C 391.285156 237.046875 390.257812 238.128906 390.785156 239.425781 C 392.210938 245.5 392.925781 251.703125 393.753906 257.875 C 396.59375 254.566406 399.273438 250.523438 399.023438 245.972656 C 398.492188 241.683594 395.03125 238.546875 391.832031 235.988281 Z M 322.707031 146.804688 C 316.925781 146.785156 311.230469 149.171875 307.160156 153.285156 C 312.046875 155.394531 316.730469 157.949219 321.265625 160.730469 C 321.628906 156.023438 323.199219 151.421875 325.898438 147.539062 C 324.851562 147.226562 323.804688 146.839844 322.707031 146.800781 Z M 292.21875 111.414062 C 288.140625 110.570312 283.972656 112.320312 280.851562 114.871094 C 283.398438 117.886719 286.75 120.117188 289.167969 123.269531 C 292.660156 121.238281 296.527344 119.828125 300.582031 119.582031 C 300.59375 118.761719 300.714844 117.941406 300.527344 117.144531 C 298.457031 114.449219 295.652344 112.050781 292.21875 111.414062 Z M 308.839844 139.53125 C 306.808594 138.929688 304.675781 139.609375 302.742188 140.257812 C 298.609375 141.65625 294.941406 144.417969 292.65625 148.160156 C 296.28125 149.269531 299.898438 150.402344 303.449219 151.738281 C 307.628906 146.613281 314.265625 144.691406 320.628906 144.40625 C 316.757812 142.648438 312.882812 140.878906 308.839844 139.53125 Z M 421.25 278.261719 C 419.644531 281.15625 417.816406 283.9375 415.414062 286.238281 C 417.25 289.699219 418.488281 293.5 418.757812 297.429688 C 424.03125 292.617188 424.882812 284.304688 421.25 278.261719 Z M 302.167969 123.65625 C 297.117188 122.433594 292.074219 125.113281 288.15625 128.078125 C 295.960938 129.566406 303.585938 131.886719 311.042969 134.597656 C 309.03125 130.386719 306.503906 125.808594 302.167969 123.65625 Z M 270.140625 105.234375 C 273.40625 106.78125 276.269531 108.996094 278.941406 111.40625 C 282.304688 109.261719 286.09375 107.953125 290.015625 107.292969 C 285.046875 101.808594 276.148438 100.9375 270.140625 105.234375 Z M 336.484375 169.523438 C 334.273438 172.945312 331.589844 177.265625 333.457031 181.421875 C 334.960938 185.660156 336.15625 190.003906 337.195312 194.382812 C 337.753906 193.082031 339.007812 191.847656 338.589844 190.328125 C 337.859375 186.4375 337.496094 182.3125 339.164062 178.597656 C 337.515625 175.84375 336.746094 172.691406 336.484375 169.523438 Z M 384.296875 234.859375 C 383.03125 237.785156 382.316406 241.3125 379.585938 243.28125 C 378.625 244 377.507812 243.375 376.546875 243.050781 C 376.789062 245.550781 377.019531 248.050781 377.207031 250.550781 C 377.324219 251.644531 377.285156 252.871094 378.132812 253.710938 C 378.914062 254.628906 380.144531 256.550781 381.46875 255.242188 C 384.652344 252.066406 387.382812 247.410156 386.171875 242.769531 C 385.648438 240.109375 385.101562 237.441406 384.296875 234.859375 Z M 348.582031 191.859375 C 345.882812 192.117188 342.554688 192.039062 340.941406 194.65625 C 338.578125 197.476562 338.578125 201.335938 339.09375 204.777344 C 341.8125 204.9375 344.527344 205.34375 347.257812 205.339844 C 347.195312 200.816406 348.308594 196.367188 348.582031 191.859375 Z M 277.398438 97.96875 C 270.597656 97.09375 263.746094 96.796875 256.894531 96.839844 C 260.417969 98.035156 263.753906 99.753906 266.792969 101.90625 C 269.988281 99.789062 273.652344 98.609375 277.398438 97.96875 Z M 425.148438 295.847656 C 423.6875 297.980469 422.121094 300.054688 420.242188 301.839844 C 419.605469 302.527344 418.511719 303.3125 418.988281 304.414062 C 420.011719 308.050781 420.804688 311.769531 420.933594 315.574219 C 422.867188 309.121094 424.40625 302.539062 425.152344 295.84375 Z M 294.167969 134.988281 C 292.007812 134.507812 289.683594 133.785156 287.523438 134.6875 C 282.5625 136.511719 278.109375 140.054688 275.855469 144.910156 C 280.15625 145.769531 284.507812 146.351562 288.800781 147.257812 C 291.621094 141.597656 297.675781 138.648438 303.640625 137.582031 C 300.507812 136.628906 297.367188 135.695312 294.167969 134.988281 Z M 359.84375 223.441406 C 357.382812 223.378906 355.019531 222.640625 352.6875 221.953125 C 353.222656 223.941406 353.753906 225.996094 354.949219 227.703125 C 355.597656 228.730469 357 228.363281 357.957031 228.136719 C 361.59375 227.035156 364.777344 224.847656 367.785156 222.597656 C 365.140625 222.875 362.523438 223.597656 359.84375 223.441406 Z M 404.234375 272.816406 C 403.304688 275.921875 397.261719 281.691406 395.546875 280.652344 L 394.503906 280.023438 C 397.210938 277.761719 400.835938 274.875 400.859375 271.359375 C 400.695312 266.789062 398.09375 264.757812 394.292969 261.636719 C 394.453125 267.757812 394.785156 273.890625 394.503906 280.023438 C 398.6875 282.277344 401.121094 286.710938 402.445312 291.128906 C 405.011719 288.625 407.667969 285.734375 408.226562 282.058594 C 408.535156 278.980469 406.355469 275.328125 404.234375 272.816406 Z M 387.394531 250.734375 C 385.839844 253.613281 384.464844 256.835938 381.753906 258.828125 C 380.34375 259.746094 378.820312 258.667969 377.695312 257.839844 C 377.835938 261.53125 377.355469 265.257812 377.726562 268.9375 C 378.398438 270.449219 380.0625 273.351562 381.992188 271.691406 C 385.167969 269.414062 387.742188 265.929688 388.40625 262.015625 C 388.695312 258.226562 387.6875 254.496094 387.394531 250.738281 Z M 358.953125 232.640625 C 360.308594 234.140625 361.722656 236.035156 363.824219 236.464844 C 366.964844 235.847656 369.5 233.621094 371.992188 231.742188 C 367.679688 232.464844 363.332031 233.105469 358.953125 232.640625 Z M 410.824219 286.226562 C 408.628906 290.621094 404.90625 293.867188 401.078125 296.808594 C 403.824219 301.660156 405.203125 307.082031 406.207031 312.519531 C 410.128906 309.589844 413.578125 305.507812 414.46875 300.570312 C 415.339844 295.570312 414.191406 290.109375 410.824219 286.226562 Z M 277.101562 118.921875 C 273.121094 119.269531 269.886719 121.945312 266.757812 124.179688 C 267.421875 124.691406 267.960938 125.527344 268.886719 125.554688 C 272.605469 125.972656 276.351562 126.15625 280.050781 126.773438 C 281.144531 126.886719 282.253906 127.214844 283.359375 127.042969 C 284.53125 126.53125 285.546875 125.734375 286.605469 125.03125 C 284.140625 122.21875 281.21875 118.726562 277.101562 118.921875 Z M 341.640625 207.226562 C 340.464844 207.617188 339.242188 208.492188 339.230469 209.847656 C 339.15625 212.714844 339.839844 215.53125 340.261719 218.351562 C 342.269531 219.421875 344.503906 219.925781 346.617188 220.730469 C 344.863281 221.328125 343.011719 221.304688 341.1875 221.371094 C 341.769531 224.800781 343.484375 228.015625 345.183594 231.050781 C 348.089844 235.804688 353.128906 240.539062 359.171875 239.4375 C 354.984375 236.183594 351.371094 232.03125 349.402344 227.066406 C 346.984375 220.597656 346.480469 213.5 347.125 206.675781 C 345.324219 205.863281 343.371094 206.59375 341.636719 207.230469 Z M 260.339844 109.492188 C 258.035156 110.5 255.3125 111.617188 254.214844 114.050781 C 257.632812 116.628906 261.449219 118.703125 264.449219 121.820312 C 268.042969 118.824219 272.265625 116.257812 276.988281 115.671875 C 273.890625 110.070312 266.390625 106.949219 260.339844 109.492188 Z M 316.140625 170.085938 C 300.820312 159.644531 282.042969 155.445312 263.714844 155.050781 C 237.109375 154.816406 210.605469 164.589844 190.308594 181.753906 C 170.988281 198.070312 157.429688 221.113281 152.722656 245.976562 C 148.429688 267.585938 150.761719 290.480469 159.441406 310.742188 C 165.695312 324.648438 174.835938 337.222656 186.085938 347.503906 C 193.429688 353.992188 201.671875 359.46875 210.4375 363.867188 C 230.449219 373.777344 253.628906 376.746094 275.605469 373.15625 C 298.585938 369.476562 320.070312 357.777344 336.035156 340.902344 C 353.234375 322.878906 363.726562 298.851562 366.273438 274.144531 C 367.164062 264.480469 367.546875 254.664062 366.058594 245.042969 C 362.695312 246.789062 358.882812 247.921875 355.0625 247.535156 C 350.929688 247.050781 347.164062 244.902344 344.074219 242.1875 C 338.75 237.488281 335.3125 231.019531 333.113281 224.339844 C 330.636719 216.890625 330.941406 208.929688 329.589844 201.269531 C 328.300781 192.824219 325.179688 184.824219 322.425781 176.78125 C 321.53125 173.664062 318.582031 171.910156 316.140625 170.085938 Z M 388.894531 267.363281 C 387.242188 270.386719 385.175781 273.285156 382.417969 275.394531 C 380.527344 276.75 378.402344 275.210938 377.09375 273.832031 C 376.832031 277.140625 376.101562 280.394531 375.828125 283.699219 C 376 286.113281 377.28125 288.375 378.785156 290.230469 C 380.257812 290.703125 381.597656 289.417969 382.71875 288.621094 C 385.625 286.0625 388.6875 282.886719 388.867188 278.78125 C 389.113281 274.980469 389.074219 271.164062 388.894531 267.367188 Z M 273.457031 131.601562 C 270.484375 131.355469 267.867188 133.203125 265.710938 135.042969 C 263.007812 137.511719 260.414062 140.550781 259.800781 144.273438 C 263.804688 144.488281 267.828125 144.382812 271.832031 144.574219 C 273.953125 138.539062 279.679688 134.679688 285.710938 133.257812 C 281.691406 132.308594 277.566406 131.921875 273.457031 131.605469 Z M 415.710938 308.226562 C 413.457031 311.265625 410.859375 314.050781 407.777344 316.265625 C 409.242188 319.957031 410.097656 323.832031 410.554688 327.769531 C 416.09375 323.0625 417.628906 315.023438 415.710938 308.226562 Z M 250.828125 101.402344 C 246.132812 101.46875 241.808594 103.695312 238.050781 106.347656 C 242.519531 107.203125 246.757812 109.023438 250.464844 111.652344 C 253.804688 108.332031 258.027344 106.101562 262.484375 104.675781 C 258.984375 102.570312 254.957031 101.179688 250.828125 101.402344 Z M 394.453125 283.070312 C 393.972656 289.089844 393.074219 295.074219 392.292969 301.054688 C 395.152344 299.089844 397.929688 296.402344 398.738281 292.90625 C 399.445312 289.085938 396.84375 285.730469 394.457031 283.070312 Z M 388.421875 286.269531 C 385.96875 289.417969 383.238281 292.796875 379.339844 294.117188 C 376.839844 294.597656 375.480469 291.996094 374.390625 290.222656 C 373.65625 293.609375 372.761719 296.957031 371.722656 300.261719 C 370.851562 302.640625 372.085938 305.0625 372.972656 307.234375 C 373.507812 308.378906 374.351562 310.226562 375.9375 309.511719 C 379.988281 308.109375 383.5625 305.042969 385.765625 301.382812 C 387.589844 296.574219 387.976562 291.351562 388.421875 286.269531 Z M 399.042969 299.753906 C 396.972656 301.875 394.644531 304.105469 391.5625 304.507812 C 391.101562 306.664062 389.886719 308.804688 390.074219 311.019531 C 391.617188 314.402344 392.125 318.097656 393.238281 321.625 C 397.15625 319.195312 401.183594 315.777344 401.957031 310.964844 C 402.386719 307.011719 400.453125 303.320312 399.042969 299.753906 Z M 417.632812 326.777344 C 415.707031 329.097656 413.785156 331.472656 411.359375 333.300781 C 410.207031 334.214844 408.777344 334.855469 408.03125 336.195312 C 406.21875 339.015625 403.730469 341.308594 400.996094 343.222656 C 401.597656 348.21875 401.277344 353.402344 399.398438 358.113281 C 403.34375 354.15625 406.765625 349.703125 409.894531 345.085938 C 413.1875 339.3125 415.351562 332.996094 417.632812 326.777344 Z M 221.078125 100.703125 C 225.460938 100.855469 229.589844 102.4375 233.621094 104.046875 C 236.761719 100.972656 240.707031 98.996094 244.6875 97.253906 C 236.785156 98.058594 228.769531 98.59375 221.078125 100.703125 Z M 252.335938 118.546875 C 247.441406 118.875 243.65625 122.734375 240.824219 126.410156 C 244.804688 126.285156 248.742188 125.660156 252.722656 125.5 C 256.300781 125.167969 259.902344 125.386719 263.480469 125.195312 C 260.039062 122.667969 256.863281 118.851562 252.335938 118.546875 Z M 254.203125 131.367188 C 248.359375 133.828125 243.613281 139.523438 242.890625 145.910156 C 247.074219 145.378906 251.257812 144.851562 255.46875 144.582031 C 256.296875 142.324219 257.042969 139.988281 258.488281 138.042969 C 260.722656 134.882812 264.089844 132.761719 267.53125 131.128906 C 263.109375 130.917969 258.570312 130.460938 254.203125 131.367188 Z M 403.960938 316.058594 C 401.789062 319.203125 399.207031 322.085938 396.015625 324.222656 C 395.335938 324.8125 394.351562 325.183594 393.890625 325.976562 C 394.007812 328.015625 394.597656 329.996094 394.847656 332.03125 C 395.359375 335.363281 395.226562 338.738281 395.378906 342.097656 C 400.59375 340.046875 405.246094 335.699219 406.515625 330.109375 C 407.308594 325.316406 406.132812 320.339844 403.957031 316.058594 Z M 235.382812 110.71875 C 229.976562 111.023438 225.433594 114.628906 222.054688 118.597656 L 222.332031 119.136719 C 227.734375 120.226562 232.75 122.523438 237.664062 124.933594 C 240.679688 120.835938 244.570312 117.183594 249.46875 115.535156 C 245.265625 112.859375 240.519531 110.390625 235.382812 110.71875 Z M 385.050781 306.234375 C 382.050781 309.019531 379.070312 312.46875 374.890625 313.34375 C 371.734375 313.867188 370.429688 310.316406 369.171875 308.125 C 367.894531 311.40625 366.433594 314.617188 364.914062 317.804688 C 364.136719 319.351562 364.488281 321.136719 364.75 322.777344 C 365.238281 324.75 365.542969 327.160156 367.28125 328.429688 C 369.640625 328.742188 371.875 327.496094 373.933594 326.496094 C 376.457031 324.964844 379.410156 323.421875 380.527344 320.507812 C 382.46875 315.902344 384.078125 311.136719 385.050781 306.234375 Z M 388.402344 315.8125 C 386.242188 322.40625 383.554688 328.804688 380.558594 335.054688 C 383.5 333.496094 386.535156 331.894531 388.742188 329.332031 C 389.835938 328.074219 390.929688 326.46875 390.511719 324.726562 C 389.824219 321.75 389.050781 318.796875 388.398438 315.8125 Z M 236.199219 133.027344 C 235.242188 133.253906 234.304688 133.613281 233.550781 134.257812 C 228.851562 138.148438 225.351562 143.941406 225.710938 150.214844 C 229.957031 148.871094 234.289062 147.804688 238.609375 146.699219 C 239.152344 143.839844 239.828125 140.910156 241.503906 138.484375 C 243.550781 135.417969 246.621094 133.273438 249.644531 131.277344 C 245.128906 131.574219 240.609375 131.988281 236.199219 133.027344 Z M 217.230469 106.230469 C 212.570312 107.164062 208.746094 110.230469 205.363281 113.414062 C 209.796875 113.6875 214.027344 115.167969 218.03125 117.015625 C 220.921875 113.019531 224.855469 109.882812 229.210938 107.613281 C 225.511719 105.824219 221.242188 105.363281 217.234375 106.230469 Z M 391.722656 331.230469 C 389.128906 333.996094 385.957031 336.121094 382.617188 337.875 C 383.28125 342.050781 383.171875 346.296875 382.722656 350.484375 C 386.460938 349.613281 390.113281 347.53125 392.242188 344.28125 C 392.9375 339.960938 392.132812 335.546875 391.722656 331.230469 Z M 220.054688 123.453125 C 214.972656 125.242188 211.269531 129.8125 209.085938 134.605469 C 217.5 131.488281 226.195312 129.160156 235.003906 127.492188 C 230.300781 125.46875 225.339844 122.636719 220.054688 123.453125 Z M 397.589844 345.4375 C 395.085938 345.765625 393.773438 348.042969 391.9375 349.476562 C 390.105469 351.054688 387.9375 352.160156 385.707031 353.058594 C 386.050781 357.699219 385.359375 362.359375 383.769531 366.730469 C 387.347656 365.785156 390.566406 363.726562 393.0625 361.019531 C 396.582031 356.6875 398.015625 350.945312 397.589844 345.4375 Z M 187.558594 110.871094 C 191.664062 110.523438 195.816406 110.816406 199.800781 111.929688 C 203.191406 108.1875 207.117188 104.914062 211.648438 102.648438 C 203.332031 104.441406 195.335938 107.464844 187.558594 110.871094 Z M 378.148438 326.4375 C 375.210938 328.730469 372.183594 331.183594 368.472656 332.03125 C 366.972656 332.34375 365.164062 332.414062 363.980469 331.273438 C 362.386719 329.433594 361.78125 327.007812 361.210938 324.707031 C 359.335938 328.070312 357.328125 331.367188 355.066406 334.488281 C 353.6875 336.164062 353.753906 338.457031 353.796875 340.511719 C 353.949219 342.328125 354.074219 344.308594 355.191406 345.839844 C 357.632812 346.984375 360.449219 346.050781 362.914062 345.4375 C 365.804688 344.402344 369.140625 343.410156 370.878906 340.683594 C 373.660156 336.125 376.269531 331.445312 378.148438 326.4375 Z M 230.496094 134.199219 C 225.628906 135.15625 220.867188 136.5625 216.171875 138.160156 C 213.8125 138.90625 212.40625 141.140625 211.050781 143.058594 C 208.246094 147.203125 207.1875 152.414062 208.058594 157.335938 C 212.433594 155.257812 216.882812 153.34375 221.429688 151.675781 C 221.535156 149.886719 221.585938 148.089844 221.976562 146.34375 C 223.070312 141.339844 226.675781 137.378906 230.496094 134.199219 Z M 387.164062 370.222656 C 387.011719 374.925781 385.433594 379.421875 383.394531 383.617188 C 386.726562 381.460938 388.945312 378.113281 391.394531 375.082031 C 394.359375 371.085938 397.457031 367.160156 399.890625 362.8125 C 395.542969 365.09375 391.746094 368.347656 387.164062 370.222656 Z M 379.804688 338.699219 C 378.527344 339.308594 377.726562 340.519531 376.988281 341.667969 C 374.699219 345.398438 372.375 349.113281 369.851562 352.691406 C 369.476562 353.355469 368.65625 353.96875 368.949219 354.835938 C 372.53125 353.953125 376.359375 352.699219 378.75 349.722656 C 380.269531 347.171875 380.074219 344.0625 380.253906 341.199219 C 380.179688 340.359375 380.523438 339.320312 379.804688 338.699219 Z M 199.320312 119 C 194.976562 121.140625 191.558594 125.097656 189.910156 129.644531 C 195.457031 129.671875 201.050781 130.316406 206.304688 132.160156 C 208.445312 127.457031 212.117188 123.648438 216.316406 120.714844 C 211.253906 117.738281 204.851562 116.78125 199.320312 119 Z M 380.261719 353.183594 C 377.417969 355.667969 373.863281 357.140625 370.195312 357.871094 C 370.042969 362.863281 369.300781 367.871094 367.367188 372.507812 C 371.558594 371.566406 376.058594 370.324219 378.925781 366.882812 C 381.761719 363.304688 382.304688 358.542969 382.199219 354.128906 C 381.546875 353.816406 380.902344 353.5 380.261719 353.183594 Z M 196.011719 115.875 C 192.574219 115.558594 189.035156 115.429688 185.714844 116.546875 C 180.605469 118.0625 176.851562 122.363281 174.613281 127.039062 C 178.402344 126.050781 182.375 125.898438 186.238281 126.5 C 188.902344 122.46875 191.761719 118.386719 196.011719 115.875 Z M 367.503906 346.179688 C 363.320312 348.363281 358.535156 350.757812 353.699219 349.570312 C 350.417969 348.339844 350.214844 344.355469 349.941406 341.394531 C 347.035156 344.808594 344.101562 348.191406 340.90625 351.328125 C 339.683594 353.570312 339.75 356.320312 339.847656 358.824219 C 340.046875 360.019531 339.925781 361.855469 341.496094 362.121094 C 345.207031 363.1875 349.207031 362.683594 352.851562 361.570312 C 354.46875 361.011719 356.300781 360.617188 357.402344 359.191406 C 361.085938 355.109375 364.34375 350.675781 367.503906 346.179688 Z M 210.429688 140.074219 C 205.527344 141.769531 200.820312 143.996094 196.226562 146.402344 C 195.125 147.027344 193.855469 147.550781 193.179688 148.703125 C 190.878906 152.238281 189.285156 156.316406 188.960938 160.546875 C 188.730469 163.207031 189.460938 165.804688 190.105469 168.359375 C 194.601562 165.1875 199.199219 162.148438 204.011719 159.476562 C 203.769531 156.363281 203.222656 153.136719 204.261719 150.109375 C 205.324219 146.234375 208.089844 143.214844 210.429688 140.070312 Z M 378.894531 372.042969 C 376.566406 373.460938 374.082031 374.609375 371.472656 375.414062 C 371.394531 379.789062 370.3125 384.152344 368.128906 387.972656 C 377.070312 385.722656 381.144531 380.714844 382.582031 371.683594 C 381.363281 371.738281 379.984375 371.308594 378.894531 372.042969 Z M 196.464844 133.617188 C 194.445312 133.445312 192.203125 133.324219 190.503906 134.625 C 186.5625 137.449219 184.421875 142.257812 183.746094 146.953125 C 190.417969 143.003906 197.351562 139.507812 204.386719 136.265625 C 204.390625 136.007812 204.402344 135.488281 204.40625 135.226562 C 201.847656 134.335938 199.148438 133.90625 196.464844 133.617188 Z M 365.195312 358.957031 C 360.40625 364.488281 355.375 369.824219 349.894531 374.667969 C 352.585938 375.078125 355.332031 374.640625 357.984375 374.109375 C 360.675781 373.394531 363.679688 372.246094 364.910156 369.535156 C 366.460938 366.082031 367.042969 362.261719 367.222656 358.507812 Z M 157.007812 128.019531 C 161.140625 127.28125 165.257812 126.296875 169.476562 126.367188 C 171.289062 122.53125 173.554688 118.835938 176.78125 116.023438 C 169.828125 119.375 163.296875 123.558594 157.007812 128.019531 Z M 368.355469 392.800781 C 367.894531 396.550781 365.871094 399.78125 363.878906 402.898438 C 369.4375 398.457031 374.726562 393.671875 379.570312 388.46875 C 375.972656 390.234375 372.347656 392.089844 368.355469 392.800781 Z M 184.625 130.21875 C 180.679688 129.894531 176.460938 130.101562 172.980469 132.171875 C 168.980469 134.742188 167.195312 139.503906 166.457031 144.003906 C 171.191406 143.945312 175.910156 143.121094 180.636719 143.675781 C 181.953125 139.53125 183.84375 135.445312 187.035156 132.410156 C 185.800781 132.210938 184.792969 131.539062 184.628906 130.21875 Z M 364.101562 375.5625 C 361.070312 377.164062 357.726562 377.992188 354.320312 378.265625 C 353.351562 383.011719 351.257812 387.394531 349.359375 391.8125 C 353.339844 392.523438 357.65625 391.414062 361.132812 389.378906 C 365.472656 386.65625 366.960938 381.386719 367.710938 376.621094 C 366.496094 376.300781 365.324219 375.839844 364.101562 375.5625 Z M 353.070312 363.769531 C 348.542969 365.511719 343.3125 367.085938 338.597656 365.140625 C 335.222656 363.5 335.726562 359.132812 335.75 355.996094 C 332.0625 359.355469 327.886719 362.097656 324.027344 365.226562 C 322.4375 368.179688 321.328125 371.898438 322.117188 375.210938 C 325.109375 377.375 329.019531 377.761719 332.617188 377.75 C 334.890625 377.523438 337.464844 377.632812 339.316406 376.074219 C 344.167969 372.292969 348.964844 368.363281 353.066406 363.769531 Z M 189.898438 149.757812 C 185.230469 152.550781 180.433594 155.261719 176.355469 158.890625 C 174.0625 162.265625 173.253906 166.464844 173.382812 170.5 C 173.476562 173.832031 175.027344 176.878906 176.613281 179.738281 C 179.8125 176.679688 183.136719 173.769531 186.597656 171.019531 C 185.792969 168.3125 184.667969 165.582031 184.902344 162.703125 C 185.273438 157.996094 187.53125 153.742188 189.898438 149.757812 Z M 179.96875 146.550781 C 176.355469 146.730469 172.28125 146.078125 169.125 148.230469 C 165.898438 151.269531 164.648438 155.820312 164.003906 160.085938 C 162.949219 159.414062 161.890625 158.757812 160.835938 158.09375 C 161.566406 154.386719 163 150.820312 165.09375 147.671875 C 163.90625 147.316406 162.890625 146.644531 162.203125 145.589844 C 158.878906 145.859375 155.546875 146.605469 152.675781 148.382812 C 152.875 150.242188 152.921875 152.171875 152.097656 153.90625 C 150.410156 157.96875 148.324219 161.988281 147.957031 166.457031 C 152.265625 163.929688 157.238281 163.027344 162.183594 163.203125 C 167.730469 158.121094 173.769531 153.609375 179.996094 149.417969 C 179.984375 148.457031 179.976562 147.5 179.96875 146.550781 Z M 159.371094 132.976562 C 154.867188 135.515625 152.375 140.425781 151.132812 145.269531 C 154.785156 143.542969 158.691406 142.476562 162.671875 141.875 C 163.535156 137.929688 165.425781 134.320312 167.710938 131.019531 C 164.851562 131.164062 161.941406 131.667969 159.371094 132.976562 Z M 363.425781 393.238281 C 360.195312 394.535156 356.855469 395.582031 353.378906 395.941406 C 352.15625 400.507812 349.578125 404.535156 346.601562 408.144531 C 354.714844 407.414062 361.226562 400.855469 363.425781 393.238281 Z M 346.453125 377.796875 C 340.503906 382.566406 334.167969 386.816406 327.640625 390.761719 C 332.746094 391.472656 338.09375 392.050781 343.121094 390.605469 C 348.34375 388.820312 349.300781 382.652344 350.964844 378.097656 C 349.457031 378.050781 347.949219 377.972656 346.453125 377.796875 Z M 153.613281 132.769531 C 145.171875 135.617188 139.253906 143.253906 136.585938 151.519531 C 139.757812 149.675781 143.101562 148.117188 146.675781 147.269531 C 147.53125 141.886719 150.171875 136.941406 153.613281 132.769531 Z M 344.96875 393.714844 C 341.40625 394.886719 337.636719 395.140625 333.914062 395.066406 C 331.660156 400.078125 328.582031 404.628906 325.257812 408.988281 C 330.199219 410.136719 335.585938 409.929688 340.21875 407.746094 C 344.664062 405.449219 347.464844 400.976562 349.28125 396.46875 C 347.585938 395.984375 345.757812 395.488281 344.96875 393.714844 Z M 172.347656 161.742188 C 168.578125 164.878906 164.738281 167.992188 161.480469 171.679688 C 158.613281 178.496094 160.191406 186.882812 165.582031 192.046875 C 168.21875 188.886719 170.78125 185.65625 173.636719 182.679688 C 172.402344 180.179688 170.707031 177.824219 170.269531 175.015625 C 169.433594 170.476562 170.964844 165.996094 172.347656 161.742188 Z M 334.1875 379.859375 C 329.25 380.773438 323.570312 381.09375 319.289062 378.019531 C 316.648438 375.65625 317.742188 371.78125 318.222656 368.75 C 314.179688 371.210938 309.898438 373.257812 305.6875 375.394531 C 303.6875 377.664062 302.40625 380.535156 301.640625 383.445312 C 300.949219 385.867188 303.605469 387.226562 305.425781 388.050781 C 308.96875 389.4375 312.851562 390.367188 316.671875 390.054688 C 322.785156 387.171875 328.601562 383.660156 334.1875 379.859375 Z M 338.300781 413.464844 C 335.816406 417.148438 332.785156 420.421875 329.550781 423.460938 C 332.359375 423.277344 334.742188 421.664062 337.226562 420.507812 C 342.320312 417.863281 347.363281 415.074219 352.039062 411.746094 C 347.550781 412.929688 342.941406 413.546875 338.300781 413.464844 Z M 132.800781 161.832031 C 131.082031 165.703125 129.886719 170.125 130.867188 174.351562 C 132.992188 173.664062 134.648438 172.117188 136.546875 171.007812 C 138.980469 169.519531 141.765625 168.769531 144.492188 168.011719 C 145.132812 162.085938 147.464844 156.59375 149.34375 151.003906 C 142.511719 151.414062 135.738281 155.554688 132.800781 161.832031 Z M 323.050781 393.308594 C 316.78125 396.550781 310.304688 399.386719 303.640625 401.71875 C 309.171875 405.007812 316.035156 406.683594 322.335938 404.8125 C 326.410156 402.820312 328.15625 398.226562 330.449219 394.574219 C 327.960938 394.300781 325.511719 393.542969 323.050781 393.308594 Z M 149.121094 170.464844 C 147.628906 172.996094 146.773438 176.171875 147.371094 179.074219 C 150.746094 174.402344 154.828125 170.25 158.976562 166.269531 C 155.433594 166.699219 151.394531 167.421875 149.121094 170.464844 Z M 158.261719 174.957031 C 154.976562 178.566406 151.648438 182.203125 149 186.316406 C 147.894531 193.289062 150.339844 201.214844 156.738281 204.902344 C 158.976562 201.71875 160.941406 198.347656 163.257812 195.210938 C 160.78125 192.71875 158.554688 189.800781 157.796875 186.300781 C 156.734375 182.554688 157.695312 178.691406 158.261719 174.957031 Z M 134.257812 146.976562 C 130.472656 150.859375 126.695312 154.824219 123.714844 159.367188 C 126.226562 157.632812 128.765625 155.925781 131.511719 154.582031 C 132.320312 152.011719 133.269531 149.488281 134.257812 146.976562 Z M 322.230469 412.175781 C 320.949219 411.554688 321.152344 410 321.152344 408.851562 C 319.179688 409.164062 317.183594 409.363281 315.183594 409.351562 C 312.125 413.867188 308.167969 417.621094 304.550781 421.660156 C 310.789062 423.789062 317.929688 423.800781 323.960938 421 C 327.363281 419.464844 329.972656 416.722656 332.304688 413.894531 C 328.921875 413.597656 325.328125 413.734375 322.230469 412.171875 Z M 298.695312 388.011719 C 295.914062 385.085938 297.886719 380.988281 299.035156 377.8125 C 295.257812 379.347656 291.316406 380.378906 287.441406 381.59375 C 284.429688 383.566406 282.109375 386.585938 280.628906 389.859375 C 279.902344 391.15625 280.707031 392.582031 281.746094 393.421875 C 284.675781 395.984375 288.4375 397.320312 292.160156 398.25 C 294.011719 398.851562 295.878906 397.996094 297.65625 397.550781 C 302.570312 396.023438 307.503906 394.441406 312.128906 392.171875 C 307.4375 392.042969 302.265625 391.34375 298.695312 388.011719 Z M 144.769531 171.222656 C 141.054688 172.296875 137.253906 173.988281 134.800781 177.078125 C 132.742188 181.0625 133.011719 185.769531 133.433594 190.101562 C 135.921875 189.210938 138.582031 188.679688 140.925781 187.449219 C 142.101562 185.984375 143.09375 184.382812 144.226562 182.890625 C 143.816406 178.988281 144.132812 175.074219 144.769531 171.222656 Z M 128.699219 161.28125 C 122.632812 165.378906 118.597656 172.285156 118.414062 179.648438 C 120.996094 177.660156 123.738281 175.84375 126.785156 174.65625 C 126.414062 170.101562 127.148438 165.554688 128.699219 161.28125 Z M 146.773438 189.296875 C 143.933594 193.183594 141.363281 197.308594 139.253906 201.636719 C 139.285156 208.648438 143.050781 216.089844 149.890625 218.664062 C 151.363281 215.222656 153.011719 211.871094 154.757812 208.5625 C 152.355469 206.820312 150.019531 204.835938 148.625 202.167969 C 146.511719 198.238281 146.34375 193.636719 146.773438 189.292969 Z M 300.046875 403.859375 C 297.863281 408.128906 294.269531 411.414062 290.328125 414.035156 C 294.261719 416.507812 299.410156 417.953125 303.917969 416.3125 C 307.011719 414.410156 309.25 411.429688 311.5625 408.695312 C 307.398438 407.964844 303.625 406.011719 300.046875 403.859375 Z M 307.617188 427.222656 C 304.164062 430.839844 300 433.777344 295.386719 435.726562 C 301.765625 434.878906 307.953125 432.9375 314.019531 430.847656 C 316.828125 429.75 319.820312 428.886719 322.160156 426.902344 C 317.351562 427.828125 312.464844 427.855469 307.617188 427.222656 Z M 119.195312 185.238281 C 117.25 189.34375 116.824219 194.257812 118.171875 198.617188 C 118.59375 198.582031 119.441406 198.492188 119.867188 198.449219 C 122.882812 195.480469 126.492188 193.191406 130.367188 191.523438 C 129.515625 187.039062 129.636719 182.433594 130.550781 177.96875 C 126.070312 178.777344 121.597656 181.289062 119.195312 185.238281 Z M 138.273438 191.324219 C 132.628906 194.289062 126.230469 196.460938 121.972656 201.429688 C 119.71875 205.5 120.746094 210.441406 121.832031 214.71875 C 123.894531 213.570312 125.992188 212.472656 127.941406 211.140625 C 129.167969 209.351562 129.835938 207.226562 130.839844 205.300781 C 133.023438 200.488281 135.921875 196.054688 138.273438 191.324219 Z M 287.722656 406.042969 C 284.046875 406.875 280.304688 407.320312 276.632812 408.132812 C 279.59375 409.902344 282.820312 411.910156 286.402344 411.734375 C 290.691406 410.695312 293.925781 407.300781 296.734375 404.078125 C 293.667969 404.445312 290.742188 405.464844 287.722656 406.042969 Z M 269.328125 384.644531 C 267.984375 384.8125 266.492188 384.769531 265.445312 385.769531 C 262.800781 387.820312 259.984375 389.9375 258.40625 392.960938 C 257.503906 394.863281 259.238281 396.648438 260.503906 397.878906 C 263.199219 400.105469 266.351562 402.109375 269.8125 402.800781 C 276.375 402.40625 282.886719 401.246094 289.285156 399.746094 C 285.421875 398.96875 281.511719 397.71875 278.492188 395.089844 C 277.109375 393.894531 275.9375 392.105469 276.207031 390.207031 C 276.742188 387.558594 278.304688 385.269531 279.867188 383.125 C 276.375 383.761719 272.859375 384.308594 269.324219 384.644531 Z M 115.484375 170.207031 C 111.210938 175.921875 107.648438 182.136719 104.484375 188.527344 C 107.3125 185.957031 110.394531 183.726562 113.59375 181.652344 C 113.738281 177.765625 114.34375 173.925781 115.484375 170.207031 Z M 289.160156 417.515625 C 285.242188 421.871094 280.140625 424.8125 275.378906 428.132812 C 280.132812 431.417969 286.246094 432.609375 291.914062 431.628906 C 296.113281 430.929688 299.535156 428.191406 302.734375 425.570312 C 301.644531 424.722656 300.175781 424.015625 299.925781 422.515625 C 299.933594 421.707031 300.179688 420.9375 300.363281 420.171875 C 296.464844 420.34375 292.574219 419.410156 289.160156 417.515625 Z M 137.421875 204.941406 C 135.679688 208.289062 134.046875 211.703125 132.597656 215.1875 C 132.1875 216.28125 131.710938 217.449219 131.925781 218.644531 C 132.9375 223.367188 135.226562 228 139.171875 230.933594 C 140.851562 232.058594 142.808594 232.644531 144.65625 233.429688 C 145.675781 229.730469 146.871094 226.078125 148.273438 222.511719 C 145.886719 221.152344 143.34375 219.867188 141.621094 217.652344 C 138.777344 214.046875 137.847656 209.40625 137.421875 204.941406 Z M 274.371094 410.296875 C 271.417969 413.855469 267.328125 416.054688 263.226562 418.015625 C 266.726562 420.867188 271.214844 423.476562 275.890625 422.828125 C 280.011719 421.210938 283.671875 418.441406 286.703125 415.230469 C 282.195312 414.820312 277.960938 413.019531 274.371094 410.296875 Z M 114.066406 186.972656 C 110.851562 189.027344 107.78125 191.554688 105.984375 195.003906 C 104.109375 198.738281 104.210938 203.085938 104.640625 207.132812 C 107.34375 204.148438 110.371094 201.363281 114.078125 199.675781 C 113.328125 195.476562 113.433594 191.179688 114.066406 186.972656 Z M 246.730469 384.90625 C 243.882812 385.855469 241.4375 387.792969 239.226562 389.777344 C 238.203125 390.847656 236.640625 392.121094 237.058594 393.800781 C 238.160156 397.234375 241.015625 399.78125 243.933594 401.738281 C 245.550781 402.933594 247.644531 402.835938 249.558594 403.039062 C 254.429688 403.488281 259.335938 403.347656 264.226562 403.179688 C 260.039062 401.363281 255.367188 398.730469 254.03125 394.0625 C 254.027344 390.425781 256.976562 387.632812 259.386719 385.265625 C 255.160156 385.386719 250.949219 384.929688 246.730469 384.90625 Z M 136.234375 233.402344 C 132.917969 230.175781 131.398438 225.628906 130.425781 221.214844 C 129.03125 225.765625 127.171875 230.277344 126.710938 235.042969 C 127.285156 237.761719 128.882812 240.226562 130.464844 242.496094 C 133.039062 245.996094 137.140625 247.863281 141.328125 248.574219 C 141.949219 244.839844 142.734375 241.132812 143.519531 237.425781 C 140.882812 236.535156 138.285156 235.332031 136.234375 233.402344 Z M 251.3125 408.953125 C 253.929688 411.320312 256.699219 414.226562 260.425781 414.519531 C 264.847656 414.351562 268.59375 411.507812 271.804688 408.714844 C 264.976562 408.914062 258.148438 409.160156 251.3125 408.953125 Z M 117.355469 202.71875 C 113.175781 204.125 109.414062 207.085938 107.296875 210.984375 C 105.339844 215.570312 105.972656 220.910156 107.664062 225.476562 C 108.785156 224.835938 110.015625 224.289062 110.808594 223.230469 C 113.113281 220.445312 115.992188 218.238281 118.976562 216.238281 C 117.46875 211.902344 117.0625 207.28125 117.355469 202.71875 Z M 126.117188 215.902344 C 122.09375 218.332031 117.949219 220.71875 114.726562 224.199219 C 113.320312 225.726562 111.675781 227.429688 111.621094 229.644531 C 111.660156 233.390625 112.984375 236.988281 114.570312 240.335938 C 116.355469 238.78125 118.539062 237.628906 120.097656 235.859375 C 121.796875 229.121094 123.574219 222.386719 126.117188 215.902344 Z M 277.328125 434.257812 C 274.03125 436.414062 270.542969 438.304688 266.777344 439.523438 C 269.519531 439.761719 272.261719 439.414062 274.988281 439.121094 C 278.796875 438.609375 282.75 438.390625 286.257812 436.644531 C 283.234375 436.035156 280.164062 435.53125 277.328125 434.257812 Z M 228.238281 381.78125 C 224.210938 382.910156 220.125 384.519531 217.027344 387.417969 C 216.03125 388.945312 217.039062 390.863281 217.746094 392.324219 C 219.511719 395.195312 221.691406 398.472656 225.234375 399.207031 C 230.066406 400.324219 234.941406 401.285156 239.878906 401.84375 C 237.027344 399.316406 233.609375 396.503906 233.128906 392.480469 C 233.300781 388.484375 237.0625 386.019531 239.960938 383.863281 C 236.03125 383.265625 232.152344 382.367188 228.242188 381.78125 Z M 271.410156 426.070312 C 267.625 425.25 264.242188 423.222656 261.25 420.816406 C 256.519531 424.324219 250.898438 426.222656 245.566406 428.566406 C 249.417969 431.949219 254.261719 434.105469 259.273438 435.050781 C 264.03125 435.886719 268.808594 434.214844 272.832031 431.761719 C 272.074219 430.96875 271.234375 430.246094 270.644531 429.328125 C 270.558594 428.179688 271.089844 427.128906 271.410156 426.070312 Z M 99.964844 198.136719 C 96.714844 204.6875 94.515625 211.710938 92.476562 218.722656 C 94.605469 215.261719 97.390625 212.300781 100.390625 209.585938 C 99.585938 205.820312 99.566406 201.953125 99.964844 198.140625 Z M 140.757812 252.652344 C 137.730469 251.902344 134.585938 251.082031 132.140625 249.039062 C 128.910156 246.394531 127.304688 242.421875 125.617188 238.726562 C 124.585938 243.210938 123.476562 247.789062 123.554688 252.410156 C 125.351562 256.410156 128.535156 259.882812 132.453125 261.886719 C 134.769531 263.097656 137.40625 263.316406 139.949219 263.609375 C 139.957031 259.9375 140.53125 256.304688 140.753906 252.652344 Z M 248.71875 410.609375 C 244.847656 413.585938 240.132812 414.902344 235.671875 416.683594 C 238.835938 419.832031 242.613281 423.585938 247.402344 423.492188 C 251.710938 422.511719 255.886719 420.683594 259.515625 418.132812 C 255.1875 416.847656 251.742188 413.824219 248.714844 410.609375 Z M 101.921875 214.652344 C 99.289062 217.050781 96.835938 219.832031 95.683594 223.257812 C 94.15625 227.386719 94.914062 231.871094 96.113281 235.972656 C 98.261719 232.492188 100.992188 229.394531 104.167969 226.8125 C 102.917969 222.867188 102.238281 218.773438 101.921875 214.652344 Z M 230.941406 406.371094 C 232.605469 408.523438 234.671875 410.722656 237.492188 411.183594 C 240.691406 411.925781 243.832031 410.359375 246.355469 408.535156 C 241.230469 407.769531 236.066406 407.175781 230.941406 406.371094 Z M 119.097656 240.816406 C 114.769531 244.386719 110.550781 248.375 108.09375 253.511719 C 107.476562 254.722656 107.46875 256.136719 107.824219 257.433594 C 108.761719 260.777344 110.671875 263.746094 112.765625 266.476562 C 114.164062 264.558594 117.023438 263.25 116.847656 260.550781 C 117.175781 253.929688 117.925781 247.335938 119.097656 240.8125 Z M 130.320312 264.625 C 127.082031 262.480469 125.179688 258.984375 123.109375 255.816406 C 122.570312 260.207031 122.144531 264.710938 122.878906 269.105469 C 124.246094 272.234375 126.988281 274.5625 129.710938 276.53125 C 132.757812 278.761719 136.660156 278.777344 140.273438 278.824219 C 140.011719 275.117188 139.863281 271.40625 139.816406 267.695312 C 136.503906 267.289062 133.09375 266.59375 130.320312 264.625 Z M 210.574219 375.835938 C 207.503906 375.765625 204.476562 376.789062 201.644531 377.890625 C 199.695312 378.816406 196.800781 380.101562 197.359375 382.761719 C 197.996094 385.554688 199.347656 388.3125 201.226562 390.46875 C 206.445312 393.320312 212.203125 394.992188 217.746094 397.09375 C 215.5 393.984375 212.113281 390.535156 213.015625 386.375 C 214.78125 383.039062 218.445312 381.289062 221.734375 379.785156 C 217.980469 378.570312 214.3125 377.085938 210.574219 375.835938 Z M 107.886719 229.148438 C 104.292969 231.488281 101.230469 234.789062 99.445312 238.707031 C 97.835938 243.8125 99.609375 249.304688 102.214844 253.757812 C 103.40625 252.945312 104.855469 252.3125 105.4375 250.894531 C 107.152344 247.640625 109.628906 244.878906 112.277344 242.363281 C 109.847656 238.335938 108.527344 233.773438 107.886719 229.148438 Z M 246.242188 434.839844 C 241.75 436.65625 237.03125 437.828125 232.207031 438.335938 C 235.125 438.960938 238.117188 439.144531 241.078125 439.449219 C 247.039062 439.886719 253.097656 440.714844 259.050781 439.90625 C 254.601562 438.699219 250.234375 437.199219 246.242188 434.839844 Z M 131.238281 281.171875 C 127.441406 279.441406 125.058594 275.875 122.5 272.753906 C 122.890625 277.441406 122.925781 282.175781 123.730469 286.832031 C 123.894531 288.1875 124.964844 289.15625 125.804688 290.152344 C 128.277344 292.851562 131.398438 295.1875 135.050781 295.941406 C 137.699219 296.507812 140.386719 295.941406 143.015625 295.578125 C 142.164062 291.3125 141.351562 287.039062 140.726562 282.742188 C 137.515625 282.71875 134.15625 282.714844 131.238281 281.171875 Z M 194.667969 367.410156 C 190.734375 366.597656 186.796875 368.136719 183.363281 369.941406 C 179.625 371.898438 175.339844 372.164062 171.210938 371.765625 C 178.785156 378.25 187.175781 383.945312 196.253906 388.070312 C 194.972656 385.238281 192.839844 381.96875 194.339844 378.800781 C 196.351562 375.078125 200.78125 373.789062 204.617188 372.886719 C 201.265625 371.117188 197.964844 369.265625 194.667969 367.410156 Z M 226.460938 405.492188 C 224.867188 404.730469 223.078125 404.378906 221.335938 404.160156 C 218.019531 405.25 214.597656 405.90625 211.203125 406.714844 C 213.878906 410.761719 217.550781 414.578125 222.324219 416.007812 C 226.578125 416.785156 230.722656 414.867188 234.695312 413.613281 C 231.261719 411.679688 228.664062 408.695312 226.460938 405.492188 Z M 232.445312 418.210938 C 227.101562 420.003906 221.472656 420.691406 216.125 422.460938 C 219.722656 427.949219 225.511719 432.121094 232.054688 433.152344 C 235.660156 433.691406 239.214844 432.628906 242.65625 431.71875 C 241.027344 430.128906 240.285156 427.648438 242.125 425.914062 C 238.222656 424.328125 235.210938 421.273438 232.445312 418.210938 Z M 90.171875 228.242188 C 88.839844 231.46875 88.363281 234.957031 87.734375 238.363281 C 87.125 242.34375 86.382812 246.316406 86.183594 250.34375 C 87.734375 246.449219 89.832031 242.808594 92.523438 239.59375 C 90.96875 236.011719 90.269531 232.136719 90.171875 228.246094 Z M 132.171875 298.679688 C 129.144531 297.292969 126.988281 294.671875 124.773438 292.285156 C 125.324219 297.242188 126.835938 302.03125 128.109375 306.839844 C 128.898438 310.757812 132.414062 313.410156 135.933594 314.839844 C 140.289062 316.65625 145.078125 315.753906 149.503906 314.738281 C 147.351562 309.820312 145.683594 304.71875 144.125 299.59375 C 140.167969 300.382812 135.867188 300.578125 132.175781 298.679688 Z M 116.761719 267.035156 C 113.46875 271.027344 109.410156 275.257812 109.074219 280.691406 C 109.757812 285.394531 113.484375 288.898438 116.367188 292.425781 C 116.976562 291.921875 117.566406 291.40625 118.136719 290.875 C 118.390625 289.3125 118.03125 287.722656 117.898438 286.167969 C 117.050781 279.828125 116.835938 273.429688 116.761719 267.039062 Z M 180.179688 356.75 C 179.386719 356.105469 178.617188 355.246094 177.511719 355.269531 C 172.332031 354.769531 167.492188 357.511719 162.328125 357.191406 C 159.742188 357.082031 157.25 356.34375 154.769531 355.691406 C 158.3125 359.75 162.023438 363.675781 166.003906 367.324219 C 167.257812 368.710938 169.046875 369.457031 170.90625 369.46875 C 177.484375 369.859375 182.609375 364.890625 188.78125 363.488281 C 185.808594 361.378906 182.941406 359.132812 180.179688 356.75 Z M 201.242188 396.929688 C 199.863281 396.398438 198.460938 395.460938 196.933594 395.921875 C 193.738281 396.75 190.425781 396.160156 187.179688 396.519531 C 186.179688 396.890625 187.367188 397.867188 187.449219 398.503906 C 188.898438 401.382812 191.050781 403.839844 193.390625 406.023438 C 194.25 406.839844 195.335938 407.496094 196.558594 407.511719 C 200.046875 407.6875 203.527344 407.144531 206.960938 406.558594 C 207.90625 402.753906 212.597656 403.304688 215.582031 402.320312 C 210.800781 400.519531 205.910156 399.003906 201.238281 396.929688 Z M 151.128906 318.582031 C 147.171875 319.550781 142.949219 320.492188 138.9375 319.222656 C 135.847656 318.386719 133.242188 316.480469 130.734375 314.5625 C 133.128906 320.402344 135.378906 326.359375 138.628906 331.789062 C 140.964844 334.589844 144.796875 335.472656 148.253906 335.988281 C 152.359375 336.632812 156.25 334.867188 160.132812 333.851562 C 156.710938 329.015625 154.148438 323.65625 151.128906 318.582031 Z M 94.601562 244.574219 C 92.367188 247.617188 90.515625 251.125 90.191406 254.945312 C 89.863281 259.097656 91.382812 263.199219 93.699219 266.597656 C 94.5 262.5625 96.71875 259.003906 99.363281 255.929688 C 97.023438 252.5 95.691406 248.542969 94.601562 244.574219 Z M 104.058594 256.90625 C 100.851562 259.859375 97.972656 263.742188 97.746094 268.257812 C 97.617188 272.851562 100.136719 277 102.789062 280.558594 C 103.867188 279.40625 105.710938 278.792969 106.109375 277.132812 C 107.070312 274.0625 108.890625 271.382812 110.871094 268.886719 C 107.746094 265.441406 105.320312 261.382812 104.058594 256.90625 Z M 162.886719 337.75 C 159.683594 338.082031 156.734375 339.613281 153.519531 339.863281 C 149.195312 340.308594 144.992188 338.671875 141.257812 336.667969 C 143.882812 341.554688 147.195312 346.039062 150.519531 350.472656 C 151.898438 352.652344 154.585938 353.21875 156.929688 353.722656 C 162.902344 354.933594 168.480469 351.652344 174.339844 351.160156 C 170.171875 347 166.394531 342.46875 162.886719 337.75 Z M 208.785156 409.269531 C 202.917969 411.085938 196.742188 411.183594 190.691406 411.96875 C 193.753906 417.671875 198.128906 423.121094 204.3125 425.550781 C 207.15625 426.691406 210.277344 426.210938 213.222656 425.871094 C 212.546875 424.273438 211.070312 422.378906 212.175781 420.632812 C 213.542969 418.832031 215.992188 418.554688 217.984375 417.828125 C 214.191406 415.882812 211.230469 412.710938 208.785156 409.269531 Z M 119.132812 294.324219 C 115.34375 297.460938 111.816406 301.707031 111.335938 306.769531 C 112.261719 312.546875 116.894531 316.988281 121.671875 319.976562 C 122.316406 317.644531 123.152344 315.375 124.171875 313.183594 C 122.15625 306.992188 120.378906 300.722656 119.132812 294.324219 Z M 176.183594 383.140625 C 172.835938 383.277344 169.492188 383.136719 166.167969 382.640625 C 166.742188 385.511719 167.859375 388.253906 169.542969 390.664062 C 170.40625 391.851562 171.292969 393.289062 172.832031 393.660156 C 175.96875 394.515625 179.21875 394.800781 182.441406 395.125 C 183.332031 394.25 184.148438 392.96875 185.546875 392.980469 C 188.019531 392.835938 190.492188 393.21875 192.96875 393.09375 C 187.203125 390.0625 181.667969 386.628906 176.183594 383.140625 Z M 216.363281 429.847656 C 212.242188 430.542969 208.101562 431.164062 203.929688 431.417969 C 206.484375 432.765625 209.371094 433.28125 212.117188 434.113281 C 216.25 435.179688 220.53125 436.628906 224.835938 435.652344 C 221.660156 434.257812 219.039062 431.976562 216.363281 429.84375 Z M 105.871094 282.816406 C 102.847656 286.636719 99.984375 291.027344 99.765625 296.046875 C 99.546875 300.988281 102.019531 305.609375 105.207031 309.21875 C 106.011719 307.503906 106.914062 305.808594 108.300781 304.488281 C 109.003906 300.558594 111.296875 297.140625 114.105469 294.390625 C 110.695312 291.050781 107.992188 287.082031 105.871094 282.816406 Z M 85.570312 259.460938 C 85.078125 267.472656 85.253906 275.539062 86.078125 283.53125 C 86.871094 279.074219 87.976562 274.617188 90.261719 270.679688 C 88.261719 267.136719 86.429688 263.460938 85.570312 259.460938 Z M 94.179688 273.183594 C 92.539062 276.238281 91.21875 279.617188 91.285156 283.136719 C 91.332031 287.25 93.570312 290.878906 96.042969 294 C 96.46875 290.125 98.613281 286.753906 100.207031 283.371094 C 97.671875 280.304688 95.589844 276.90625 94.179688 273.179688 Z M 125.855469 318.074219 C 124.546875 321.226562 123.695312 324.542969 122.902344 327.855469 C 122.214844 331.253906 121.492188 334.882812 122.539062 338.277344 C 125.128906 342.976562 130.355469 345.417969 135.257812 346.996094 C 135.441406 344.699219 136.230469 342.492188 136.453125 340.214844 C 132.542969 333.027344 128.773438 325.738281 125.855469 318.074219 Z M 154.984375 364.546875 C 154.601562 370.136719 155.242188 376.089844 158.394531 380.867188 C 159.746094 381.738281 161.324219 382.160156 162.824219 382.726562 C 163.023438 381.367188 163.324219 379.585938 164.992188 379.351562 C 167.492188 379.042969 169.894531 380.148438 172.378906 380.261719 C 166.25 375.410156 160.316406 370.273438 154.984375 364.546875 Z M 183.476562 398.4375 C 177.746094 398.351562 172.078125 397.496094 166.398438 396.828125 C 167.570312 403.035156 170.824219 408.984375 175.902344 412.828125 C 179.269531 415.363281 183.617188 415.6875 187.679688 415.636719 C 187.089844 413.996094 185.972656 412.308594 186.4375 410.503906 C 187.03125 408.761719 189.117188 408.636719 190.609375 408.160156 C 187.714844 405.328125 185.46875 401.9375 183.472656 398.4375 Z M 139.152344 344.347656 C 137.988281 348.605469 137.855469 353.132812 138.453125 357.496094 C 138.847656 359.160156 138.890625 361.246094 140.425781 362.351562 C 143.683594 364.792969 147.628906 366.160156 151.601562 366.933594 C 151.746094 365.175781 152.070312 363.445312 152.382812 361.722656 C 147.671875 356.164062 143.246094 350.375 139.152344 344.347656 Z M 190.339844 419.917969 C 184.953125 420.257812 179.570312 419.691406 174.269531 418.757812 C 179.730469 422.015625 185.589844 424.558594 191.492188 426.914062 C 193.957031 427.890625 196.644531 428.128906 199.277344 428.054688 C 195.863281 425.859375 192.832031 423.128906 190.339844 419.914062 Z M 108.796875 310.492188 C 106.632812 316.5625 105.023438 323.375 107.148438 329.683594 C 108.898438 334.945312 114.027344 338.070312 118.957031 339.921875 C 118.320312 334.265625 118.851562 328.554688 120.660156 323.15625 C 115.46875 320.324219 111.109375 315.984375 108.796875 310.492188 Z M 138.558594 365.367188 C 138.054688 370.683594 139.011719 376.25 142.160156 380.667969 C 142.753906 379.734375 143.335938 378.222656 144.71875 378.417969 C 147.792969 378.617188 150.734375 379.644531 153.746094 380.191406 L 154.023438 379.898438 C 152.863281 376.761719 152.027344 373.515625 151.746094 370.183594 C 147.136719 369.257812 142.636719 367.734375 138.558594 365.367188 Z M 145.484375 381.941406 C 145.664062 386.789062 147.894531 391.359375 150.574219 395.316406 C 153.316406 399.207031 158.351562 400.023438 162.765625 400.496094 C 162.511719 398.585938 161.765625 396.519531 162.617188 394.675781 C 163.574219 393.167969 165.535156 393.351562 167.074219 393.152344 C 165.78125 390.9375 164.707031 388.609375 163.722656 386.25 C 157.832031 384.125 151.605469 383.152344 145.484375 381.941406 Z M 121.996094 343.316406 C 121.308594 347.738281 121.027344 352.605469 123.261719 356.664062 C 125.617188 360.980469 130.503906 362.839844 134.890625 364.386719 C 135.28125 363.640625 135.660156 362.90625 136.050781 362.179688 C 135.101562 358.28125 134.644531 354.253906 134.980469 350.253906 C 130.171875 348.984375 125.824219 346.453125 121.996094 343.3125 Z M 86.691406 286.964844 C 86.910156 293.988281 88.230469 300.929688 89.878906 307.746094 C 90.542969 304.175781 91.257812 300.605469 92.53125 297.191406 C 90.097656 294.074219 88.28125 290.570312 86.691406 286.964844 Z M 96.046875 300.757812 C 92.613281 309.625 95.484375 320.359375 102.351562 326.796875 C 101.976562 322.082031 102.488281 317.335938 103.886719 312.8125 C 100.332031 309.488281 97.582031 305.378906 96.046875 300.757812 Z M 148.558594 401.375 C 152.824219 405.25 157.601562 408.535156 162.46875 411.628906 C 164.863281 413.285156 167.839844 413.546875 170.585938 414.308594 C 168.109375 411.617188 165.929688 408.636719 164.355469 405.328125 C 158.933594 404.746094 153.601562 403.453125 148.558594 401.375 Z M 107.035156 336.949219 C 106.894531 340.269531 107.230469 343.683594 108.460938 346.800781 C 110.328125 351.15625 114.277344 354.1875 118.394531 356.289062 C 117.570312 352.097656 117.558594 347.785156 117.769531 343.53125 C 113.808594 342.054688 110.117188 339.863281 107.035156 336.949219 Z M 123.628906 363.253906 C 124.144531 367.246094 125.003906 371.457031 127.769531 374.546875 C 130.34375 377.609375 134.144531 379.199219 137.859375 380.394531 C 135.859375 376.640625 135.160156 372.363281 134.765625 368.175781 C 130.894531 366.9375 127.046875 365.5 123.628906 363.253906 Z M 95.710938 326.492188 C 97.605469 332.15625 99.8125 337.742188 102.621094 343.011719 C 102.21875 339.648438 102.285156 336.253906 102.605469 332.886719 C 100.074219 331.015625 97.960938 328.675781 95.710938 326.492188 Z M 126.660156 380.140625 C 130.109375 384.144531 133.765625 387.976562 137.691406 391.523438 C 139.992188 393.601562 142.972656 394.625 145.796875 395.777344 C 143.929688 392.835938 142.511719 389.632812 141.601562 386.269531 C 136.347656 384.988281 131.253906 383.023438 126.660156 380.140625 Z M 109.375 355.855469 C 113.105469 362.28125 117.257812 368.464844 121.816406 374.332031 C 120.171875 370.234375 119.25 365.917969 118.742188 361.546875 C 115.382812 360.066406 112.273438 358.097656 109.375 355.855469 Z M 109.375 355.855469 " fill-opacity="1" fill-rule="evenodd"/></g></g></g></g></g></g><g transform="matrix(1, 0, 0, 1, 323, 364)"><g clip-path="url(#8719623b13)"><g clip-path="url(#f575a47564)"><g fill="#000000" fill-opacity="1"><g transform="translate(0.0766121, 111.740371)"><g><path d="M 27.0625 -51.59375 C 29.75 -49.65625 32.328125 -47.660156 34.796875 -45.609375 C 37.265625 -43.554688 39.457031 -41.320312 41.375 -38.90625 C 43.289062 -36.5 44.800781 -33.796875 45.90625 -30.796875 C 47.007812 -27.796875 47.5625 -24.398438 47.5625 -20.609375 C 47.5625 -17.609375 47.007812 -14.773438 45.90625 -12.109375 C 44.800781 -9.441406 43.21875 -7.101562 41.15625 -5.09375 C 39.101562 -3.082031 36.625 -1.503906 33.71875 -0.359375 C 30.820312 0.785156 27.554688 1.359375 23.921875 1.359375 C 19.660156 1.359375 16.046875 0.6875 13.078125 -0.65625 C 10.117188 -2 7.734375 -3.785156 5.921875 -6.015625 C 4.109375 -8.242188 2.785156 -10.679688 1.953125 -13.328125 C 1.117188 -15.972656 0.703125 -18.597656 0.703125 -21.203125 L 0.703125 -24.40625 C 0.703125 -25.664062 0.84375 -26.53125 1.125 -27 C 1.40625 -27.476562 2.019531 -27.71875 2.96875 -27.71875 L 18.359375 -27.71875 C 19.390625 -27.71875 20.03125 -27.53125 20.28125 -27.15625 C 20.539062 -26.78125 20.671875 -26.0625 20.671875 -25 L 20.671875 -22.453125 C 20.671875 -20.671875 21.003906 -19.460938 21.671875 -18.828125 C 22.347656 -18.203125 23.179688 -17.890625 24.171875 -17.890625 C 25.078125 -17.890625 25.832031 -18.203125 26.4375 -18.828125 C 27.050781 -19.460938 27.359375 -20.453125 27.359375 -21.796875 C 27.359375 -23.535156 26.726562 -25.09375 25.46875 -26.46875 C 24.207031 -27.851562 22.332031 -29.535156 19.84375 -31.515625 C 16.914062 -33.878906 14.375 -35.957031 12.21875 -37.75 C 10.070312 -39.550781 8.257812 -41.238281 6.78125 -42.8125 C 5.300781 -44.394531 4.113281 -46.046875 3.21875 -47.765625 C 2.332031 -49.484375 1.691406 -51.40625 1.296875 -53.53125 C 0.898438 -55.664062 0.703125 -58.21875 0.703125 -61.1875 C 0.703125 -64.8125 1.375 -68.003906 2.71875 -70.765625 C 4.0625 -73.535156 5.835938 -75.847656 8.046875 -77.703125 C 10.265625 -79.554688 12.707031 -80.957031 15.375 -81.90625 C 18.039062 -82.851562 20.691406 -83.328125 23.328125 -83.328125 C 27.710938 -83.328125 31.632812 -82.410156 35.09375 -80.578125 C 38.550781 -78.742188 41.273438 -76.078125 43.265625 -72.578125 C 45.253906 -69.085938 46.25 -64.851562 46.25 -59.875 L 46.25 -56.625 C 46.25 -55.675781 46.09375 -55.03125 45.78125 -54.6875 C 45.46875 -54.351562 44.738281 -54.1875 43.59375 -54.1875 L 28.484375 -54.1875 C 27.660156 -54.1875 27.140625 -54.351562 26.921875 -54.6875 C 26.703125 -55.03125 26.59375 -55.695312 26.59375 -56.6875 L 26.59375 -59.765625 C 26.59375 -62.679688 25.523438 -64.140625 23.390625 -64.140625 C 22.367188 -64.140625 21.609375 -63.800781 21.109375 -63.125 C 20.617188 -62.457031 20.375 -61.613281 20.375 -60.59375 C 20.375 -59.40625 20.539062 -58.382812 20.875 -57.53125 C 21.207031 -56.6875 21.859375 -55.816406 22.828125 -54.921875 C 23.796875 -54.035156 25.207031 -52.925781 27.0625 -51.59375 Z M 27.0625 -51.59375 "/></g></g></g></g><g fill="#000000" fill-opacity="1"><g transform="translate(72.426712, 111.740371)"><g><path d="M 23.578125 -19.1875 L 44.359375 -19.1875 C 45.585938 -19.1875 46.203125 -18.414062 46.203125 -16.875 L 46.203125 -2.3125 C 46.203125 -0.769531 45.585938 0 44.359375 0 L 4.5 0 C 3 0 2.25 -0.804688 2.25 -2.421875 L 2.25 -79.546875 C 2.25 -81.203125 3 -82.03125 4.5 -82.03125 L 43.890625 -82.03125 C 45.035156 -82.03125 45.609375 -81.203125 45.609375 -79.546875 L 45.609375 -65.15625 C 45.609375 -63.53125 45.035156 -62.71875 43.890625 -62.71875 L 23.578125 -62.71875 L 23.578125 -50.640625 L 39.5 -50.640625 C 40.132812 -50.640625 40.640625 -50.441406 41.015625 -50.046875 C 41.390625 -49.648438 41.578125 -49.035156 41.578125 -48.203125 L 41.578125 -33.8125 C 41.578125 -32.238281 40.882812 -31.453125 39.5 -31.453125 L 23.578125 -31.453125 Z M 23.578125 -19.1875 "/></g></g></g><g fill="#000000" fill-opacity="1"><g transform="translate(143.236977, 111.740371)"><g><path d="M 28.1875 -22.625 L 28.1875 -29.96875 C 28.1875 -30.914062 27.878906 -31.734375 27.265625 -32.421875 C 26.660156 -33.117188 25.765625 -33.46875 24.578125 -33.46875 L 21.90625 -33.46875 L 21.90625 -19.1875 L 24.703125 -19.1875 C 25.648438 -19.1875 26.46875 -19.519531 27.15625 -20.1875 C 27.84375 -20.863281 28.1875 -21.675781 28.1875 -22.625 Z M 28.078125 -54.1875 L 28.078125 -58.875 C 28.078125 -60.289062 27.707031 -61.285156 26.96875 -61.859375 C 26.238281 -62.429688 25.421875 -62.71875 24.515625 -62.71875 L 21.90625 -62.71875 L 21.90625 -50.40625 L 24.515625 -50.40625 C 25.460938 -50.40625 26.289062 -50.660156 27 -51.171875 C 27.71875 -51.679688 28.078125 -52.6875 28.078125 -54.1875 Z M 48.265625 -60.109375 L 48.265625 -55.3125 C 48.265625 -53.1875 47.820312 -51.210938 46.9375 -49.390625 C 46.050781 -47.578125 44.992188 -46.066406 43.765625 -44.859375 C 42.546875 -43.660156 41.421875 -42.898438 40.390625 -42.578125 C 41.097656 -42.304688 41.957031 -41.785156 42.96875 -41.015625 C 43.976562 -40.242188 44.984375 -39.234375 45.984375 -37.984375 C 46.992188 -36.742188 47.832031 -35.273438 48.5 -33.578125 C 49.175781 -31.878906 49.515625 -29.96875 49.515625 -27.84375 L 49.515625 -20.25 C 49.515625 -17.375 48.878906 -14.703125 47.609375 -12.234375 C 46.347656 -9.765625 44.660156 -7.609375 42.546875 -5.765625 C 40.441406 -3.929688 38.078125 -2.507812 35.453125 -1.5 C 32.828125 -0.5 30.148438 0 27.421875 0 L 4.5 0 C 3 0 2.25 -0.804688 2.25 -2.421875 L 2.25 -79.546875 C 2.25 -81.203125 3 -82.03125 4.5 -82.03125 L 25.640625 -82.03125 C 29.078125 -82.03125 32.175781 -81.445312 34.9375 -80.28125 C 37.707031 -79.113281 40.085938 -77.523438 42.078125 -75.515625 C 44.078125 -73.503906 45.609375 -71.175781 46.671875 -68.53125 C 47.734375 -65.882812 48.265625 -63.078125 48.265625 -60.109375 Z M 48.265625 -60.109375 "/></g></g></g><g fill="#000000" fill-opacity="1"><g transform="translate(217.067697, 111.740371)"><g><path d="M 23.328125 -60.171875 L 23.328125 -34.234375 L 29.078125 -34.234375 L 29.078125 -60.171875 C 29.078125 -61.160156 28.890625 -62.066406 28.515625 -62.890625 C 28.140625 -63.722656 27.378906 -64.140625 26.234375 -64.140625 C 25.085938 -64.140625 24.316406 -63.722656 23.921875 -62.890625 C 23.523438 -62.066406 23.328125 -61.160156 23.328125 -60.171875 Z M 50.40625 -61.421875 L 50.40625 -2.484375 C 50.40625 -1.859375 50.226562 -1.285156 49.875 -0.765625 C 49.519531 -0.253906 49.003906 0 48.328125 0 L 31.15625 0 C 30.5625 0 30.066406 -0.253906 29.671875 -0.765625 C 29.273438 -1.285156 29.078125 -1.859375 29.078125 -2.484375 L 29.078125 -15.6875 L 23.328125 -15.6875 L 23.328125 -2.484375 C 23.328125 -1.816406 23.207031 -1.234375 22.96875 -0.734375 C 22.738281 -0.242188 22.226562 0 21.4375 0 L 3.609375 0 C 3.179688 0 2.804688 -0.253906 2.484375 -0.765625 C 2.171875 -1.285156 2.015625 -1.859375 2.015625 -2.484375 L 2.015625 -61.421875 C 2.015625 -64.460938 2.664062 -67.3125 3.96875 -69.96875 C 5.269531 -72.632812 7.046875 -74.972656 9.296875 -76.984375 C 11.546875 -79.003906 14.117188 -80.578125 17.015625 -81.703125 C 19.921875 -82.828125 22.972656 -83.390625 26.171875 -83.390625 C 29.367188 -83.390625 32.425781 -82.828125 35.34375 -81.703125 C 38.269531 -80.578125 40.859375 -79.003906 43.109375 -76.984375 C 45.367188 -74.972656 47.148438 -72.632812 48.453125 -69.96875 C 49.753906 -67.3125 50.40625 -64.460938 50.40625 -61.421875 Z M 50.40625 -61.421875 "/></g></g></g><g fill="#000000" fill-opacity="1"><g transform="translate(290.305973, 111.740371)"><g><path d="M 36.84375 -32.578125 L 36.84375 -2.421875 C 36.84375 -0.804688 36.207031 0 34.9375 0 L 17.40625 0 C 16.1875 0 15.578125 -0.804688 15.578125 -2.421875 L 15.578125 -32.640625 C 12.972656 -33.703125 10.644531 -35.171875 8.59375 -37.046875 C 6.539062 -38.921875 4.929688 -41.160156 3.765625 -43.765625 C 2.597656 -46.367188 2.015625 -49.3125 2.015625 -52.59375 L 2.015625 -80.78125 C 2.015625 -81.613281 2.410156 -82.03125 3.203125 -82.03125 L 21.796875 -82.03125 C 22.234375 -82.03125 22.597656 -81.929688 22.890625 -81.734375 C 23.179688 -81.535156 23.328125 -81.257812 23.328125 -80.90625 L 23.328125 -53.84375 C 23.328125 -52.851562 23.492188 -51.941406 23.828125 -51.109375 C 24.171875 -50.285156 24.953125 -49.875 26.171875 -49.875 C 27.398438 -49.875 28.191406 -50.207031 28.546875 -50.875 C 28.898438 -51.550781 29.078125 -52.378906 29.078125 -53.359375 L 29.078125 -80.71875 C 29.078125 -81.59375 29.492188 -82.03125 30.328125 -82.03125 L 49.15625 -82.03125 C 49.46875 -82.03125 49.753906 -81.957031 50.015625 -81.8125 C 50.273438 -81.675781 50.40625 -81.332031 50.40625 -80.78125 L 50.40625 -52.59375 C 50.40625 -49.238281 49.820312 -46.238281 48.65625 -43.59375 C 47.488281 -40.945312 45.890625 -38.703125 43.859375 -36.859375 C 41.828125 -35.023438 39.488281 -33.597656 36.84375 -32.578125 Z M 36.84375 -32.578125 "/></g></g></g><g fill="#000000" fill-opacity="1"><g transform="translate(366.979483, 111.740371)"><g><path d="M 42.765625 -62.71875 L 32.8125 -62.71875 L 32.8125 -2.3125 C 32.8125 -0.769531 32.195312 0 30.96875 0 L 13.328125 0 C 12.097656 0 11.484375 -0.769531 11.484375 -2.3125 L 11.484375 -62.71875 L 1.484375 -62.71875 C 0.253906 -62.71875 -0.359375 -63.53125 -0.359375 -65.15625 L -0.359375 -79.546875 C -0.359375 -81.203125 0.253906 -82.03125 1.484375 -82.03125 L 42.765625 -82.03125 C 44.023438 -82.03125 44.65625 -81.203125 44.65625 -79.546875 L 44.65625 -65.15625 C 44.65625 -63.53125 44.023438 -62.71875 42.765625 -62.71875 Z M 42.765625 -62.71875 "/></g></g></g></g></g></svg>