<svg xmlns="http://www.w3.org/2000/svg" xmlns:xlink="http://www.w3.org/1999/xlink" width="1051" zoomAndPan="magnify" viewBox="0 0 788.25 762.749972" height="1017" preserveAspectRatio="xMidYMid meet" version="1.0"><defs><filter x="0%" y="0%" width="100%" height="100%" id="0309a3c7c4"><feColorMatrix values="0 0 0 0 1 0 0 0 0 1 0 0 0 0 1 0 0 0 1 0" color-interpolation-filters="sRGB"/></filter><g/><clipPath id="668af01667"><path d="M 0 0.238281 L 759 0.238281 L 759 762.261719 L 0 762.261719 Z M 0 0.238281 " clip-rule="nonzero"/></clipPath><clipPath id="be610a8f99"><path d="M 84 89 L 678 89 L 678 715 L 84 715 Z M 84 89 " clip-rule="nonzero"/></clipPath><clipPath id="184919a1d7"><path d="M 206.566406 0.238281 L 698.601562 172.664062 L 492.105469 761.933594 L 0.0703125 589.507812 Z M 206.566406 0.238281 " clip-rule="nonzero"/></clipPath><clipPath id="5b91b43dd3"><path d="M 206.566406 0.238281 L 698.601562 172.664062 L 492.105469 761.933594 L 0.0703125 589.507812 Z M 206.566406 0.238281 " clip-rule="nonzero"/></clipPath><clipPath id="62f40a10e8"><path d="M 241 188 L 663 188 L 663 665 L 241 665 Z M 241 188 " clip-rule="nonzero"/></clipPath><clipPath id="9d5ab87c22"><path d="M 206.566406 0.238281 L 698.601562 172.664062 L 492.105469 761.933594 L 0.0703125 589.507812 Z M 206.566406 0.238281 " clip-rule="nonzero"/></clipPath><clipPath id="7c85bb1c99"><path d="M 206.566406 0.238281 L 698.601562 172.664062 L 492.105469 761.933594 L 0.0703125 589.507812 Z M 206.566406 0.238281 " clip-rule="nonzero"/></clipPath><clipPath id="ee6a01f300"><path d="M 322 364 L 758.398438 364 L 758.398438 506 L 322 506 Z M 322 364 " clip-rule="nonzero"/></clipPath><clipPath id="fb89d574d2"><rect x="0" width="437" y="0" height="142"/></clipPath><clipPath id="0dbaaf7bde"><rect x="0" width="759" y="0" height="763"/></clipPath><clipPath id="b09232e356"><path d="M 259 165 L 787.5 165 L 787.5 690 L 259 690 Z M 259 165 " clip-rule="nonzero"/></clipPath><mask id="6787255bdd"><g filter="url(#0309a3c7c4)"><rect x="-78.825" width="945.9" fill="#000000" y="-76.274997" height="915.299966" fill-opacity="0.07"/></g></mask><clipPath id="83807bd27e"><path d="M 73 85 L 448 85 L 448 452 L 73 452 Z M 73 85 " clip-rule="nonzero"/></clipPath><clipPath id="fcd98fd6be"><path d="M 309.253906 0.320312 L 528.082031 293.261719 L 219.53125 523.75 L 0.703125 230.804688 Z M 309.253906 0.320312 " clip-rule="nonzero"/></clipPath><clipPath id="af01a601c6"><path d="M 309.253906 0.320312 L 528.082031 293.261719 L 219.53125 523.75 L 0.703125 230.804688 Z M 309.253906 0.320312 " clip-rule="nonzero"/></clipPath><clipPath id="2e46b266da"><rect x="0" width="529" y="0" height="525"/></clipPath></defs><g clip-path="url(#668af01667)"><g transform="matrix(1, 0, 0, 1, 0, -0.000000000000098921)"><g clip-path="url(#0dbaaf7bde)"><g clip-path="url(#be610a8f99)"><g clip-path="url(#184919a1d7)"><g clip-path="url(#5b91b43dd3)"><path fill="#ffffff" d="M 84.746094 391.761719 C 85.449219 365.253906 89.542969 338.460938 97.332031 311.960938 L 154.105469 314.820312 C 154.140625 314.726562 154.160156 314.640625 154.191406 314.554688 C 159.984375 298.027344 167.300781 282.476562 175.898438 267.96875 L 140.117188 222 C 155.25 200.039062 172.957031 180.363281 192.679688 163.28125 L 238.953125 196.425781 C 254.019531 184.671875 270.289062 174.609375 287.476562 166.464844 L 282.261719 108.808594 C 306.152344 99.289062 331.261719 92.679688 356.992188 89.25 L 374.910156 134.359375 C 398.824219 128.007812 423.648438 124.683594 448.820312 124.554688 L 464.882812 93.757812 C 477.246094 96.464844 489.585938 99.9375 501.828125 104.230469 C 514.078125 108.523438 525.882812 113.507812 537.234375 119.113281 L 533.804688 136.652344 C 538.496094 138.035156 543.171875 139.535156 547.84375 141.171875 C 600.660156 159.679688 644.882812 191.691406 678 231.976562 C 650.101562 205.050781 616.097656 183.554688 577.113281 169.890625 C 432.441406 119.195312 274.066406 195.375 223.367188 340.042969 C 172.671875 484.714844 248.851562 643.089844 393.523438 693.789062 C 432.507812 707.449219 472.492188 711.878906 511.097656 708.25 C 460.078125 719.050781 405.546875 716.457031 352.734375 697.949219 C 324.101562 687.914062 297.996094 673.902344 274.808594 656.757812 L 253.964844 678.398438 C 228.679688 665.339844 205.765625 649.136719 185.539062 630.460938 L 207.835938 587.507812 C 199.066406 574.816406 191.246094 561.507812 184.566406 547.648438 L 129.074219 560.816406 C 114.933594 537.121094 103.9375 511.609375 96.417969 485 L 145.921875 456.589844 C 142.582031 441.746094 140.550781 426.542969 139.886719 411.152344 L 84.746094 391.761719 " fill-opacity="1" fill-rule="nonzero"/></g></g></g><g clip-path="url(#62f40a10e8)"><g clip-path="url(#9d5ab87c22)"><g clip-path="url(#7c85bb1c99)"><path fill="#ffffff" d="M 528.183594 659.492188 C 497.074219 662.414062 464.84375 658.847656 433.421875 647.835938 C 316.8125 606.972656 255.410156 479.316406 296.273438 362.710938 C 337.136719 246.101562 464.789062 184.707031 581.394531 225.570312 C 612.816406 236.582031 640.226562 253.90625 662.710938 275.609375 C 636.019531 243.136719 600.371094 217.339844 557.800781 202.421875 C 433.875 158.996094 298.214844 224.25 254.789062 348.171875 C 211.363281 472.097656 276.617188 607.757812 400.539062 651.183594 C 443.109375 666.101562 487.058594 668.199219 528.183594 659.492188 " fill-opacity="1" fill-rule="nonzero"/></g></g></g><g clip-path="url(#ee6a01f300)"><g transform="matrix(1, 0, 0, 1, 322, 364)"><g clip-path="url(#fb89d574d2)"><g fill="#ffffff" fill-opacity="1"><g transform="translate(0.748573, 111.681548)"><g><path d="M 27.046875 -51.546875 C 29.734375 -49.617188 32.304688 -47.628906 34.765625 -45.578125 C 37.234375 -43.523438 39.425781 -41.296875 41.34375 -38.890625 C 43.257812 -36.484375 44.769531 -33.78125 45.875 -30.78125 C 46.976562 -27.78125 47.53125 -24.382812 47.53125 -20.59375 C 47.53125 -17.59375 46.976562 -14.757812 45.875 -12.09375 C 44.769531 -9.4375 43.191406 -7.101562 41.140625 -5.09375 C 39.085938 -3.082031 36.609375 -1.503906 33.703125 -0.359375 C 30.804688 0.785156 27.539062 1.359375 23.90625 1.359375 C 19.644531 1.359375 16.035156 0.691406 13.078125 -0.640625 C 10.117188 -1.984375 7.734375 -3.769531 5.921875 -6 C 4.109375 -8.238281 2.785156 -10.675781 1.953125 -13.3125 C 1.117188 -15.957031 0.703125 -18.582031 0.703125 -21.1875 L 0.703125 -24.390625 C 0.703125 -25.648438 0.835938 -26.515625 1.109375 -26.984375 C 1.390625 -27.460938 2.003906 -27.703125 2.953125 -27.703125 L 18.34375 -27.703125 C 19.375 -27.703125 20.015625 -27.515625 20.265625 -27.140625 C 20.523438 -26.765625 20.65625 -26.046875 20.65625 -24.984375 L 20.65625 -22.4375 C 20.65625 -20.65625 20.988281 -19.445312 21.65625 -18.8125 C 22.332031 -18.1875 23.164062 -17.875 24.15625 -17.875 C 25.0625 -17.875 25.816406 -18.1875 26.421875 -18.8125 C 27.035156 -19.445312 27.34375 -20.4375 27.34375 -21.78125 C 27.34375 -23.519531 26.710938 -25.078125 25.453125 -26.453125 C 24.191406 -27.835938 22.316406 -29.515625 19.828125 -31.484375 C 16.910156 -33.859375 14.375 -35.941406 12.21875 -37.734375 C 10.070312 -39.523438 8.257812 -41.207031 6.78125 -42.78125 C 5.300781 -44.363281 4.113281 -46.015625 3.21875 -47.734375 C 2.332031 -49.453125 1.691406 -51.375 1.296875 -53.5 C 0.898438 -55.632812 0.703125 -58.179688 0.703125 -61.140625 C 0.703125 -64.773438 1.375 -67.972656 2.71875 -70.734375 C 4.0625 -73.492188 5.835938 -75.800781 8.046875 -77.65625 C 10.253906 -79.507812 12.691406 -80.910156 15.359375 -81.859375 C 18.023438 -82.804688 20.679688 -83.28125 23.328125 -83.28125 C 27.703125 -83.28125 31.613281 -82.363281 35.0625 -80.53125 C 38.519531 -78.695312 41.242188 -76.03125 43.234375 -72.53125 C 45.222656 -69.039062 46.21875 -64.8125 46.21875 -59.84375 L 46.21875 -56.578125 C 46.21875 -55.628906 46.0625 -54.988281 45.75 -54.65625 C 45.4375 -54.320312 44.707031 -54.15625 43.5625 -54.15625 L 28.46875 -54.15625 C 27.644531 -54.15625 27.125 -54.320312 26.90625 -54.65625 C 26.6875 -54.988281 26.578125 -55.648438 26.578125 -56.640625 L 26.578125 -59.71875 C 26.578125 -62.632812 25.507812 -64.09375 23.375 -64.09375 C 22.351562 -64.09375 21.59375 -63.757812 21.09375 -63.09375 C 20.601562 -62.425781 20.359375 -61.578125 20.359375 -60.546875 C 20.359375 -59.367188 20.523438 -58.351562 20.859375 -57.5 C 21.191406 -56.65625 21.84375 -55.785156 22.8125 -54.890625 C 23.78125 -54.003906 25.191406 -52.890625 27.046875 -51.546875 Z M 27.046875 -51.546875 "/></g></g></g><g fill="#ffffff" fill-opacity="1"><g transform="translate(73.053597, 111.681548)"><g><path d="M 23.5625 -19.171875 L 44.328125 -19.171875 C 45.554688 -19.171875 46.171875 -18.40625 46.171875 -16.875 L 46.171875 -2.3125 C 46.171875 -0.769531 45.554688 0 44.328125 0 L 4.5 0 C 3 0 2.25 -0.804688 2.25 -2.421875 L 2.25 -79.484375 C 2.25 -81.140625 3 -81.96875 4.5 -81.96875 L 43.859375 -81.96875 C 45.003906 -81.96875 45.578125 -81.140625 45.578125 -79.484375 L 45.578125 -65.109375 C 45.578125 -63.492188 45.003906 -62.6875 43.859375 -62.6875 L 23.5625 -62.6875 L 23.5625 -50.609375 L 39.484375 -50.609375 C 40.109375 -50.609375 40.609375 -50.410156 40.984375 -50.015625 C 41.359375 -49.617188 41.546875 -49.007812 41.546875 -48.1875 L 41.546875 -33.796875 C 41.546875 -32.210938 40.859375 -31.421875 39.484375 -31.421875 L 23.5625 -31.421875 Z M 23.5625 -19.171875 "/></g></g></g><g fill="#ffffff" fill-opacity="1"><g transform="translate(143.819745, 111.681548)"><g><path d="M 28.171875 -22.609375 L 28.171875 -29.953125 C 28.171875 -30.898438 27.863281 -31.71875 27.25 -32.40625 C 26.644531 -33.09375 25.75 -33.4375 24.5625 -33.4375 L 21.90625 -33.4375 L 21.90625 -19.171875 L 24.6875 -19.171875 C 25.632812 -19.171875 26.453125 -19.503906 27.140625 -20.171875 C 27.828125 -20.847656 28.171875 -21.660156 28.171875 -22.609375 Z M 28.0625 -54.15625 L 28.0625 -58.828125 C 28.0625 -60.253906 27.691406 -61.253906 26.953125 -61.828125 C 26.222656 -62.398438 25.40625 -62.6875 24.5 -62.6875 L 21.90625 -62.6875 L 21.90625 -50.375 L 24.5 -50.375 C 25.445312 -50.375 26.273438 -50.628906 26.984375 -51.140625 C 27.703125 -51.648438 28.0625 -52.65625 28.0625 -54.15625 Z M 48.234375 -60.078125 L 48.234375 -55.28125 C 48.234375 -53.15625 47.789062 -51.179688 46.90625 -49.359375 C 46.019531 -47.546875 44.960938 -46.035156 43.734375 -44.828125 C 42.515625 -43.628906 41.390625 -42.875 40.359375 -42.5625 C 41.078125 -42.28125 41.9375 -41.753906 42.9375 -40.984375 C 43.945312 -40.210938 44.953125 -39.207031 45.953125 -37.96875 C 46.960938 -36.726562 47.800781 -35.257812 48.46875 -33.5625 C 49.144531 -31.863281 49.484375 -29.945312 49.484375 -27.8125 L 49.484375 -20.25 C 49.484375 -17.363281 48.847656 -14.6875 47.578125 -12.21875 C 46.316406 -9.75 44.628906 -7.597656 42.515625 -5.765625 C 40.410156 -3.929688 38.046875 -2.507812 35.421875 -1.5 C 32.796875 -0.5 30.125 0 27.40625 0 L 4.5 0 C 3 0 2.25 -0.804688 2.25 -2.421875 L 2.25 -79.484375 C 2.25 -81.140625 3 -81.96875 4.5 -81.96875 L 25.625 -81.96875 C 29.0625 -81.96875 32.160156 -81.382812 34.921875 -80.21875 C 37.679688 -79.0625 40.054688 -77.476562 42.046875 -75.46875 C 44.046875 -73.457031 45.578125 -71.128906 46.640625 -68.484375 C 47.703125 -65.835938 48.234375 -63.035156 48.234375 -60.078125 Z M 48.234375 -60.078125 "/></g></g></g><g fill="#ffffff" fill-opacity="1"><g transform="translate(217.604465, 111.681548)"><g><path d="M 23.328125 -60.140625 L 23.328125 -34.21875 L 29.0625 -34.21875 L 29.0625 -60.140625 C 29.0625 -61.117188 28.875 -62.019531 28.5 -62.84375 C 28.125 -63.675781 27.363281 -64.09375 26.21875 -64.09375 C 25.070312 -64.09375 24.300781 -63.675781 23.90625 -62.84375 C 23.519531 -62.019531 23.328125 -61.117188 23.328125 -60.140625 Z M 50.375 -61.375 L 50.375 -2.484375 C 50.375 -1.847656 50.191406 -1.273438 49.828125 -0.765625 C 49.472656 -0.253906 48.960938 0 48.296875 0 L 31.140625 0 C 30.546875 0 30.050781 -0.253906 29.65625 -0.765625 C 29.257812 -1.273438 29.0625 -1.847656 29.0625 -2.484375 L 29.0625 -15.6875 L 23.328125 -15.6875 L 23.328125 -2.484375 C 23.328125 -1.816406 23.207031 -1.234375 22.96875 -0.734375 C 22.726562 -0.242188 22.210938 0 21.421875 0 L 3.609375 0 C 3.171875 0 2.796875 -0.253906 2.484375 -0.765625 C 2.171875 -1.273438 2.015625 -1.847656 2.015625 -2.484375 L 2.015625 -61.375 C 2.015625 -64.414062 2.664062 -67.265625 3.96875 -69.921875 C 5.269531 -72.585938 7.046875 -74.925781 9.296875 -76.9375 C 11.546875 -78.957031 14.117188 -80.53125 17.015625 -81.65625 C 19.910156 -82.78125 22.957031 -83.34375 26.15625 -83.34375 C 29.351562 -83.34375 32.410156 -82.78125 35.328125 -81.65625 C 38.253906 -80.53125 40.84375 -78.957031 43.09375 -76.9375 C 45.34375 -74.925781 47.117188 -72.585938 48.421875 -69.921875 C 49.722656 -67.265625 50.375 -64.414062 50.375 -61.375 Z M 50.375 -61.375 "/></g></g></g><g fill="#ffffff" fill-opacity="1"><g transform="translate(290.797111, 111.681548)"><g><path d="M 36.8125 -32.546875 L 36.8125 -2.421875 C 36.8125 -0.804688 36.179688 0 34.921875 0 L 17.40625 0 C 16.175781 0 15.5625 -0.804688 15.5625 -2.421875 L 15.5625 -32.609375 C 12.957031 -33.679688 10.628906 -35.148438 8.578125 -37.015625 C 6.523438 -38.890625 4.914062 -41.128906 3.75 -43.734375 C 2.59375 -46.335938 2.015625 -49.28125 2.015625 -52.5625 L 2.015625 -80.734375 C 2.015625 -81.554688 2.410156 -81.96875 3.203125 -81.96875 L 21.78125 -81.96875 C 22.21875 -81.96875 22.582031 -81.867188 22.875 -81.671875 C 23.175781 -81.484375 23.328125 -81.210938 23.328125 -80.859375 L 23.328125 -53.796875 C 23.328125 -52.816406 23.492188 -51.910156 23.828125 -51.078125 C 24.160156 -50.253906 24.9375 -49.84375 26.15625 -49.84375 C 27.382812 -49.84375 28.175781 -50.175781 28.53125 -50.84375 C 28.882812 -51.507812 29.0625 -52.335938 29.0625 -53.328125 L 29.0625 -80.671875 C 29.0625 -81.535156 29.476562 -81.96875 30.3125 -81.96875 L 49.125 -81.96875 C 49.4375 -81.96875 49.722656 -81.898438 49.984375 -81.765625 C 50.242188 -81.628906 50.375 -81.285156 50.375 -80.734375 L 50.375 -52.5625 C 50.375 -49.207031 49.789062 -46.207031 48.625 -43.5625 C 47.457031 -40.914062 45.859375 -38.675781 43.828125 -36.84375 C 41.796875 -35.007812 39.457031 -33.578125 36.8125 -32.546875 Z M 36.8125 -32.546875 "/></g></g></g><g fill="#ffffff" fill-opacity="1"><g transform="translate(367.422851, 111.681548)"><g><path d="M 42.734375 -62.6875 L 32.796875 -62.6875 L 32.796875 -2.3125 C 32.796875 -0.769531 32.179688 0 30.953125 0 L 13.3125 0 C 12.09375 0 11.484375 -0.769531 11.484375 -2.3125 L 11.484375 -62.6875 L 1.484375 -62.6875 C 0.253906 -62.6875 -0.359375 -63.492188 -0.359375 -65.109375 L -0.359375 -79.484375 C -0.359375 -81.140625 0.253906 -81.96875 1.484375 -81.96875 L 42.734375 -81.96875 C 43.992188 -81.96875 44.625 -81.140625 44.625 -79.484375 L 44.625 -65.109375 C 44.625 -63.492188 43.992188 -62.6875 42.734375 -62.6875 Z M 42.734375 -62.6875 "/></g></g></g></g></g></g></g></g></g><g clip-path="url(#b09232e356)"><g mask="url(#6787255bdd)"><g transform="matrix(1, 0, 0, 1, 259, 165)"><g clip-path="url(#2e46b266da)"><g clip-path="url(#83807bd27e)"><g clip-path="url(#fcd98fd6be)"><g clip-path="url(#af01a601c6)"><path fill="#ffffff" d="M 416.09375 146.6875 C 421.121094 149.738281 425.199219 154.417969 427.234375 159.964844 C 428.535156 163.214844 428.808594 166.921875 431.128906 169.710938 C 438.089844 179.546875 443.796875 190.402344 446.84375 202.105469 C 448.328125 208.148438 445.398438 214.265625 441.550781 218.785156 C 438.859375 221.960938 435.074219 223.808594 431.328125 225.425781 C 434.457031 236.4375 436.078125 247.800781 437.035156 259.191406 C 440.144531 298.351562 429.105469 338.203125 407.515625 370.894531 C 395.882812 388.105469 381.253906 403.230469 364.628906 415.660156 C 347.542969 428.546875 327.992188 438.066406 307.5 444.148438 C 276.578125 452.945312 243.328125 453.515625 212.191406 445.476562 C 174.113281 435.90625 139.308594 413.78125 114.6875 383.171875 C 96.601562 361.070312 84.171875 334.53125 77.980469 306.695312 C 73.628906 286.214844 72.636719 265.023438 75.324219 244.246094 C 78.273438 221.046875 85.691406 198.398438 97.128906 177.988281 C 109.523438 155.851562 126.71875 136.4375 147.175781 121.425781 C 162.214844 110.488281 178.808594 101.652344 196.414062 95.625 C 220.109375 87.859375 245.320312 84.644531 270.207031 86.375 C 292.171875 88.019531 313.882812 93.160156 334.195312 101.691406 C 344.40625 105.878906 354.136719 111.125 364.199219 115.644531 C 366.601562 116.445312 369.167969 116.625 371.585938 117.417969 C 386.109375 121.761719 398.585938 131.230469 408.664062 142.359375 C 410.808594 144.3125 413.707031 145.085938 416.09375 146.6875 Z M 427.988281 194.34375 C 430.773438 196.566406 430.648438 201.648438 427.566406 203.566406 C 426.171875 204.578125 423.347656 203.828125 423.691406 201.78125 C 424.632812 200.363281 425.84375 199 425.578125 197.167969 C 425.347656 195.851562 426.609375 193.65625 427.988281 194.34375 Z M 405.855469 151.613281 C 401.765625 150.195312 397.09375 149.960938 393.710938 146.980469 C 396.210938 147.367188 398.730469 147.691406 401.265625 147.566406 C 397.628906 143.867188 393.890625 140.175781 389.472656 137.410156 C 386.882812 135.511719 382 137.324219 382.3125 140.855469 C 382.953125 146.308594 386.628906 151.3125 391.597656 153.632812 C 396.160156 155.808594 401.28125 156.464844 405.765625 158.851562 C 404.378906 157.351562 402.660156 156.253906 401 155.097656 C 406.128906 155.75 410.335938 159.664062 412.457031 164.222656 C 414.777344 169.410156 414.09375 175.238281 415.132812 180.710938 C 415.8125 184.585938 417.722656 188.089844 419.722656 191.429688 C 421.894531 189.257812 424.886719 187.566406 428.054688 187.949219 C 430.464844 188.140625 432.183594 190.039062 433.894531 191.53125 C 431.507812 185.320312 428.101562 179.523438 424.128906 174.199219 C 423.957031 177.160156 423.914062 180.140625 423.449219 183.078125 C 420.753906 176.175781 421.949219 168.328125 418.503906 161.671875 C 415.992188 156.664062 411.175781 153.132812 405.855469 151.613281 Z M 431.070312 192.507812 C 429.238281 190.433594 426.054688 189.582031 423.5625 190.972656 C 421.09375 191.988281 419.925781 194.484375 418.480469 196.539062 C 418.472656 195.074219 418.753906 193.625 418.953125 192.179688 C 415.695312 188.738281 411.898438 185.816406 408.066406 183.054688 C 405.59375 182.523438 403 182.65625 400.574219 181.863281 C 396.84375 180.941406 393.714844 178.140625 392.15625 174.667969 C 390.675781 170.945312 390.8125 166.792969 391.671875 162.945312 C 392.335938 160.882812 390.226562 159.429688 389.238281 157.890625 C 384.96875 164.316406 386.925781 173.070312 391.644531 178.6875 C 394.808594 182.867188 399.695312 185.148438 404.617188 186.550781 C 399.039062 187.246094 393.417969 184.894531 389.378906 181.121094 C 386.722656 181.648438 384.460938 183.457031 384.035156 186.230469 C 386.863281 188.433594 389.816406 190.472656 392.804688 192.457031 C 394.089844 190.117188 396.460938 188.777344 399.03125 188.363281 C 397.300781 189.820312 395.8125 191.609375 395.359375 193.894531 C 398.425781 195.871094 401.628906 197.636719 404.9375 199.167969 C 406.359375 197.097656 408.300781 195.378906 410.679688 194.515625 C 409.316406 196.320312 408.058594 198.222656 407.242188 200.34375 C 410.171875 201.863281 413.050781 203.523438 416.167969 204.671875 C 417.019531 203.625 417.929688 202.632812 418.867188 201.664062 C 418.527344 202.964844 418.1875 204.265625 417.867188 205.574219 C 421.113281 207.199219 424.355469 208.847656 427.429688 210.773438 C 429.789062 210.058594 432.046875 209.089844 434.253906 208.015625 C 432.980469 210.023438 431.039062 211.527344 428.875 212.476562 C 429.460938 213.957031 429.976562 215.480469 430.496094 216.996094 C 433.847656 215.042969 436.886719 212.222656 438.285156 208.53125 C 439.488281 205.167969 438.074219 201.5625 436.640625 198.507812 C 435.035156 196.304688 432.867188 194.5625 431.070312 192.507812 Z M 374.019531 128.445312 C 372.105469 127.820312 370.070312 127.300781 368.054688 127.695312 C 368.496094 129.414062 369.277344 131.011719 370.066406 132.597656 C 373.726562 132.609375 377.234375 134.015625 380.085938 136.261719 C 381.351562 135.089844 382.863281 134.253906 384.496094 133.710938 C 381.1875 131.613281 377.738281 129.683594 374.019531 128.445312 Z M 397.832031 163.96875 C 394.742188 166.65625 394.121094 171.625 396.699219 174.875 C 399.03125 170.460938 402.972656 166.992188 407.832031 165.652344 C 406.054688 161.90625 400.757812 161.304688 397.832031 163.96875 Z M 409.121094 168.117188 C 406.339844 172.089844 402.140625 175.03125 397.285156 175.710938 C 399.933594 178.214844 404.402344 178.996094 407.457031 176.785156 C 410.054688 174.742188 410.316406 170.992188 409.121094 168.117188 Z M 368.839844 135.492188 C 369.445312 139.824219 372.492188 143.214844 374.589844 146.890625 C 371.621094 145.539062 369.390625 142.929688 366.25 141.875 C 362.980469 140.402344 359.359375 141.15625 355.910156 140.832031 C 358.960938 138.246094 363.203125 138.078125 366.855469 139.289062 C 366.167969 137.15625 365.535156 134.546875 367.351562 132.75 C 363.289062 130.222656 358.027344 129.019531 353.457031 130.796875 C 353.457031 133.519531 354.179688 136.164062 355.164062 138.691406 L 354.621094 139.03125 C 353 136.574219 351.058594 133.976562 351.042969 130.898438 C 351.007812 129.089844 352.792969 128.070312 354.316406 127.613281 C 357.746094 126.648438 361.375 127.324219 364.742188 128.234375 C 365.121094 127.453125 365.507812 126.675781 365.90625 125.914062 C 362.152344 124.875 358.292969 124.183594 354.390625 124.183594 C 350.347656 124.3125 346.050781 124.5625 342.5625 126.859375 C 339.652344 126.5625 336.714844 126.0625 333.78125 126.417969 C 331.820312 126.679688 329.472656 126.816406 328.40625 128.765625 C 330.492188 131.402344 332.457031 134.195312 333.644531 137.378906 C 330.480469 135.988281 328.625 132.714844 325.476562 131.324219 C 321.589844 130.191406 317.445312 131.5625 314.050781 133.480469 C 315.527344 135.203125 316.738281 137.417969 318.960938 138.285156 C 322.410156 139.828125 325.714844 141.660156 329.132812 143.265625 C 334.101562 139.207031 340.640625 136.898438 347.074219 137.667969 C 339.445312 140.285156 332.453125 145.808594 329.53125 153.496094 C 327.199219 159.800781 327.957031 166.867188 330.066406 173.117188 C 331.664062 169.933594 334.085938 167.289062 336.023438 164.335938 C 335.464844 161.800781 333.988281 159.453125 334.015625 156.777344 C 333.792969 152.667969 336.359375 148.910156 339.746094 146.78125 C 338.886719 148.785156 337.539062 150.605469 337.132812 152.789062 C 336.519531 155.617188 337.292969 158.496094 338.148438 161.195312 C 339.917969 159.8125 341.804688 158.433594 344.078125 158.050781 C 342.363281 160.371094 339.972656 162.347656 339.234375 165.253906 C 338.300781 168.9375 339.640625 172.660156 340.820312 176.125 C 343.496094 174.394531 346.734375 174.132812 349.8125 174.574219 C 349.601562 170.621094 349.265625 166.546875 347.417969 162.976562 C 345.269531 158.546875 343.230469 153.414062 344.941406 148.492188 C 345.957031 145.320312 349.757812 144.261719 352.734375 144.851562 C 357.28125 145.816406 361.226562 148.480469 364.929688 151.171875 C 372.300781 148.796875 380.296875 152.355469 385.328125 157.804688 C 385.964844 157.074219 386.613281 156.363281 387.273438 155.652344 C 384.359375 153.542969 382.210938 150.546875 380.632812 147.355469 C 379.058594 144.230469 378.238281 140.582031 379.523438 137.210938 C 376.171875 135.847656 372.476562 134.957031 368.839844 135.488281 Z M 367.953125 153.796875 C 368.816406 155.566406 369.636719 157.355469 370.433594 159.164062 C 372.335938 163.46875 375.097656 167.328125 377.003906 171.628906 C 379.992188 172.863281 382.585938 174.980469 383.914062 178 C 381.863281 176.859375 379.953125 175.429688 377.761719 174.574219 C 375.628906 174.019531 374.257812 176.121094 373.113281 177.550781 C 375.855469 179.90625 378.785156 182.027344 381.636719 184.25 C 383 181.59375 385.839844 180.292969 388.710938 180.121094 C 384.722656 174.574219 382.582031 167.488281 384.203125 160.707031 C 380.164062 156.203125 374.152344 152.890625 367.953125 153.796875 Z M 418.265625 215.550781 C 415.886719 219.546875 412.222656 222.441406 408.183594 224.640625 C 414.273438 224.476562 420.59375 222.539062 424.921875 218.074219 C 422.75 217.113281 420.496094 216.355469 418.265625 215.550781 Z M 338.4375 115.371094 C 340.269531 117.097656 341.789062 119.121094 343.191406 121.207031 C 345.160156 120.691406 347.160156 120.300781 349.160156 119.941406 C 345.644531 118.28125 342.097656 116.6875 338.4375 115.371094 Z M 405.21875 205.265625 C 401.847656 209.546875 397.511719 213.007812 392.429688 215.023438 C 399.726562 216.089844 407.207031 213.207031 412.796875 208.601562 C 410.320312 207.371094 407.773438 206.304688 405.21875 205.265625 Z M 357.140625 152.671875 C 353.660156 153.746094 351.882812 157.820312 352.925781 161.167969 C 354.390625 163.4375 356.402344 165.28125 358.308594 167.171875 C 359.917969 163.144531 364.414062 161.234375 368.539062 161.5625 C 367.347656 159.4375 366.429688 157.160156 365.054688 155.15625 C 363.070312 153.101562 360.011719 151.316406 357.140625 152.671875 Z M 418.585938 227.441406 C 415.460938 228.257812 412.246094 228.601562 409.136719 229.472656 C 412.839844 232.210938 416.523438 235.234375 418.394531 239.585938 C 419.433594 235.617188 419.488281 231.433594 418.582031 227.4375 Z M 334.113281 117.195312 C 330.28125 114.753906 325.4375 114.867188 321.203125 116.03125 C 324 118.3125 326.265625 121.132812 328.15625 124.203125 C 331.777344 122.96875 335.640625 122.832031 339.429688 122.917969 C 337.886719 120.816406 336.429688 118.515625 334.113281 117.191406 Z M 360.621094 169.257812 C 363.839844 171.664062 367.238281 173.804688 370.691406 175.863281 C 371.851562 174.375 373.261719 173.125 374.96875 172.308594 C 373.414062 169.742188 371.898438 167.15625 370.375 164.570312 C 366.554688 163.039062 361.421875 164.925781 360.621094 169.257812 Z M 409.414062 217.050781 C 404.433594 218.3125 399.425781 220.128906 394.199219 219.65625 C 396.386719 224.1875 395.140625 229.425781 392.9375 233.6875 C 396.625 236.484375 399.988281 239.898438 401.671875 244.292969 C 404.480469 240.417969 405.792969 235.578125 405.613281 230.828125 C 405.464844 230.078125 405.769531 228.78125 404.648438 228.816406 C 402.171875 228.273438 399.699219 227.464844 397.742188 225.78125 C 401.234375 223.441406 405.164062 221.8125 408.5 219.234375 C 409.390625 218.800781 409.484375 217.917969 409.414062 217.050781 Z M 422.582031 236.101562 C 422.324219 239.097656 421.253906 241.894531 420 244.589844 C 419.929688 248.996094 419.070312 253.433594 416.820312 257.289062 C 419.085938 260.691406 420.90625 264.398438 421.972656 268.359375 C 424.0625 264.652344 425.441406 260.488281 425.386719 256.207031 C 425.285156 249.421875 424.015625 242.714844 422.582031 236.101562 Z M 313.070312 105.691406 C 315.664062 107.320312 317.648438 109.683594 319.5625 112.042969 C 322.449219 111.367188 325.414062 110.957031 328.390625 111.007812 C 323.339844 109.078125 318.328125 106.984375 313.070312 105.691406 Z M 351.003906 147.953125 C 349.859375 147.972656 348.734375 148.734375 348.523438 149.910156 C 348.007812 152.445312 349.179688 154.898438 350.15625 157.171875 C 351.039062 153.527344 354.066406 151.03125 357.5 149.851562 C 355.4375 148.96875 353.332031 147.761719 351.003906 147.953125 Z M 387.160156 199.742188 C 387.078125 202.164062 386.976562 204.597656 386.640625 207.007812 C 388.160156 208.34375 389.722656 209.644531 391.292969 210.9375 C 392.949219 210.03125 394.675781 209.210938 396.132812 207.988281 C 396.730469 207.386719 397.769531 206.363281 396.9375 205.515625 C 394.601562 202.335938 390.769531 200.90625 387.160156 199.742188 Z M 408.800781 232.886719 C 408.398438 236.953125 407.507812 241.011719 405.53125 244.621094 C 408.894531 248.152344 411.292969 252.480469 412.648438 257.152344 C 415.746094 253.128906 417.347656 247.757812 416.070312 242.757812 C 415.035156 238.660156 412.097656 235.378906 408.800781 232.886719 Z M 375.324219 199.859375 C 376.101562 201.199219 376.617188 202.742188 377.644531 203.929688 C 379.46875 204.882812 381.402344 205.613281 383.300781 206.414062 C 384.132812 204.089844 384.390625 201.613281 384.238281 199.152344 C 381.257812 198.609375 378.199219 198.945312 375.324219 199.859375 Z M 368.722656 181.597656 C 364.246094 180.820312 359.886719 182.917969 356.417969 185.589844 C 358.203125 182.453125 361.191406 180.191406 364.472656 178.808594 C 361.03125 177.070312 357.929688 174.757812 355.152344 172.097656 C 355.523438 173.878906 355.707031 175.707031 355.535156 177.53125 C 355.058594 183.675781 353.945312 189.742188 352.875 195.804688 C 355.207031 192.644531 357.832031 189.589844 361.167969 187.457031 C 364.460938 185.371094 368.339844 184.519531 372.140625 183.949219 C 371.019531 183.132812 369.972656 182.195312 368.722656 181.597656 Z M 307.601562 107.640625 C 303.800781 106.242188 299.59375 106.890625 296.011719 108.613281 C 299.144531 110.542969 301.769531 113.140625 304.042969 116.011719 C 307.605469 114.289062 311.597656 113.675781 315.527344 114 C 313.464844 111.28125 310.929688 108.71875 307.601562 107.640625 Z M 316.085938 118.082031 C 312.046875 116.835938 307.574219 117.808594 304.132812 120.179688 C 307.199219 123.433594 310.179688 126.800781 312.296875 130.773438 C 315.929688 128.53125 320.179688 127.492188 324.4375 127.699219 C 324.609375 126.773438 324.902344 125.75 324.210938 124.953125 C 322.347656 121.886719 319.621094 119.09375 316.085938 118.082031 Z M 379.066406 207.894531 C 380.425781 210.199219 381.5 212.667969 382.496094 215.152344 C 382.636719 215.246094 382.914062 215.429688 383.054688 215.511719 C 384.890625 214.246094 386.886719 213.210938 388.929688 212.28125 C 386.414062 209.277344 382.203125 209.785156 379.066406 207.894531 Z M 385.941406 217.699219 C 385.015625 217.34375 384.148438 216.585938 383.113281 216.863281 C 385.53125 222.523438 387.246094 228.457031 388.9375 234.371094 C 391.914062 230.058594 393.222656 224.796875 393.023438 219.597656 C 390.59375 219.246094 388.167969 218.738281 385.941406 217.699219 Z M 426.433594 267.445312 C 425.382812 269.679688 423.898438 271.652344 422.503906 273.679688 C 423.738281 276.460938 425.285156 279.109375 426.242188 282.015625 C 426.566406 277.164062 426.746094 272.292969 426.433594 267.445312 Z M 284.933594 99.199219 C 288.050781 100.582031 290.855469 102.566406 293.175781 105.070312 C 295.816406 103.835938 298.546875 102.804688 301.4375 102.347656 C 296.007812 100.945312 290.480469 99.957031 284.933594 99.199219 Z M 367.339844 196.222656 C 367.367188 197.566406 367.851562 198.847656 368.191406 200.136719 C 369.964844 206.042969 371.617188 212 372.648438 218.082031 C 373.382812 217.871094 374.121094 217.667969 374.863281 217.46875 C 374.773438 219.257812 374.042969 220.890625 373.414062 222.542969 C 373.402344 224.203125 373.804688 225.835938 373.992188 227.488281 C 375.433594 227.019531 376.890625 226.605469 378.375 226.273438 C 378.027344 229.210938 376.550781 231.824219 374.75 234.113281 C 375.230469 235.746094 375.5 237.453125 376.160156 239.03125 C 376.746094 239.773438 378.035156 241.03125 378.890625 239.878906 C 380.429688 237.960938 381.222656 235.554688 381.953125 233.238281 C 383 229.847656 381.246094 226.550781 380.214844 223.410156 C 376.929688 213.910156 372.738281 204.714844 367.339844 196.222656 Z M 414.933594 260.0625 C 414.054688 260.625 413.082031 261.421875 412.03125 260.710938 C 411.46875 264.667969 409.460938 268.214844 407.074219 271.355469 C 409.65625 274.9375 411.167969 279.125 412.148438 283.398438 C 415.507812 281.074219 417.8125 277.253906 418.511719 273.242188 C 419.335938 268.550781 417.171875 264.039062 414.933594 260.0625 Z M 403.855469 246.984375 C 403.121094 247.550781 402.382812 248.121094 401.628906 248.671875 C 400.933594 252.738281 398.441406 256.140625 396.191406 259.484375 C 399.742188 262.414062 402.414062 265.835938 403.113281 270.40625 C 406.589844 267.050781 409.308594 262.335938 408.746094 257.355469 C 408.410156 253.421875 405.953125 250.171875 403.859375 246.984375 Z M 341.535156 180.222656 C 339.878906 183.34375 340.621094 186.980469 341.105469 190.296875 C 343.5625 189.9375 346.050781 190.167969 348.46875 190.699219 C 349.101562 185.707031 349.894531 180.703125 349.839844 175.65625 C 346.597656 175.898438 343.136719 177.183594 341.535156 180.222656 Z M 391.355469 235.972656 C 390.808594 237.035156 389.78125 238.117188 390.308594 239.410156 C 391.730469 245.480469 392.449219 251.679688 393.277344 257.851562 C 396.113281 254.542969 398.789062 250.503906 398.542969 245.953125 C 398.007812 241.667969 394.550781 238.535156 391.355469 235.972656 Z M 322.273438 146.847656 C 316.496094 146.828125 310.800781 149.214844 306.734375 153.324219 C 311.621094 155.433594 316.296875 157.988281 320.832031 160.765625 C 321.195312 156.0625 322.765625 151.460938 325.460938 147.582031 C 324.414062 147.269531 323.371094 146.882812 322.269531 146.847656 Z M 291.804688 111.480469 C 287.726562 110.636719 283.5625 112.382812 280.445312 114.933594 C 282.988281 117.949219 286.339844 120.179688 288.753906 123.328125 C 292.246094 121.296875 296.109375 119.890625 300.164062 119.644531 C 300.171875 118.824219 300.292969 118.003906 300.105469 117.203125 C 298.039062 114.511719 295.234375 112.117188 291.804688 111.480469 Z M 308.414062 139.578125 C 306.382812 138.976562 304.25 139.65625 302.320312 140.304688 C 298.191406 141.703125 294.527344 144.464844 292.238281 148.203125 C 295.863281 149.308594 299.480469 150.445312 303.027344 151.777344 C 307.207031 146.65625 313.835938 144.738281 320.199219 144.449219 C 316.328125 142.695312 312.453125 140.925781 308.414062 139.578125 Z M 420.753906 278.222656 C 419.152344 281.113281 417.324219 283.898438 414.921875 286.195312 C 416.757812 289.652344 417.996094 293.453125 418.265625 297.378906 C 423.535156 292.570312 424.386719 284.261719 420.753906 278.222656 Z M 301.746094 123.710938 C 296.699219 122.492188 291.65625 125.167969 287.742188 128.132812 C 295.542969 129.621094 303.164062 131.9375 310.617188 134.648438 C 308.605469 130.441406 306.078125 125.863281 301.746094 123.714844 Z M 269.738281 105.304688 C 273.003906 106.851562 275.863281 109.0625 278.535156 111.46875 C 281.894531 109.328125 285.683594 108.019531 289.601562 107.359375 C 284.632812 101.882812 275.742188 101.007812 269.738281 105.304688 Z M 336.042969 169.550781 C 333.832031 172.972656 331.152344 177.292969 333.015625 181.441406 C 334.515625 185.675781 335.714844 190.019531 336.753906 194.394531 C 337.3125 193.097656 338.5625 191.863281 338.144531 190.347656 C 337.414062 186.457031 337.054688 182.335938 338.722656 178.621094 C 337.074219 175.867188 336.304688 172.71875 336.042969 169.550781 Z M 383.824219 234.847656 C 382.558594 237.769531 381.847656 241.296875 379.117188 243.265625 C 378.15625 243.980469 377.039062 243.359375 376.082031 243.035156 C 376.324219 245.53125 376.550781 248.03125 376.738281 250.527344 C 376.855469 251.625 376.820312 252.847656 377.664062 253.6875 C 378.445312 254.601562 379.675781 256.527344 380.996094 255.214844 C 384.179688 252.042969 386.910156 247.390625 385.695312 242.75 C 385.175781 240.09375 384.628906 237.429688 383.824219 234.847656 Z M 348.132812 191.875 C 345.433594 192.132812 342.109375 192.054688 340.496094 194.671875 C 338.136719 197.488281 338.132812 201.34375 338.648438 204.785156 C 341.367188 204.945312 344.078125 205.351562 346.808594 205.347656 C 346.746094 200.824219 347.859375 196.378906 348.132812 191.875 Z M 276.992188 98.042969 C 270.195312 97.167969 263.351562 96.871094 256.5 96.914062 C 260.023438 98.109375 263.355469 99.828125 266.394531 101.976562 C 269.585938 99.859375 273.25 98.683594 276.992188 98.042969 Z M 424.652344 295.796875 C 423.1875 297.929688 421.625 300 419.746094 301.785156 C 419.109375 302.472656 418.019531 303.257812 418.496094 304.359375 C 419.519531 307.996094 420.308594 311.710938 420.441406 315.511719 C 422.371094 309.0625 423.910156 302.484375 424.652344 295.796875 Z M 293.753906 135.039062 C 291.589844 134.558594 289.269531 133.835938 287.109375 134.738281 C 282.152344 136.558594 277.703125 140.105469 275.453125 144.953125 C 279.75 145.8125 284.097656 146.394531 288.390625 147.300781 C 291.203125 141.644531 297.257812 138.699219 303.21875 137.632812 C 300.089844 136.675781 296.949219 135.746094 293.753906 135.039062 Z M 359.386719 223.4375 C 356.929688 223.375 354.566406 222.636719 352.234375 221.949219 C 352.769531 223.9375 353.296875 225.992188 354.496094 227.695312 C 355.144531 228.722656 356.546875 228.355469 357.503906 228.128906 C 361.136719 227.027344 364.316406 224.839844 367.324219 222.59375 C 364.679688 222.871094 362.0625 223.59375 359.386719 223.4375 Z M 403.75 272.78125 C 402.820312 275.882812 396.78125 281.648438 395.066406 280.613281 L 394.023438 279.980469 C 396.730469 277.722656 400.351562 274.835938 400.378906 271.328125 C 400.214844 266.757812 397.613281 264.726562 393.8125 261.609375 C 393.972656 267.726562 394.308594 273.855469 394.023438 279.980469 C 398.207031 282.238281 400.640625 286.664062 401.960938 291.082031 C 404.527344 288.582031 407.183594 285.691406 407.738281 282.019531 C 408.046875 278.941406 405.867188 275.292969 403.75 272.78125 Z M 386.921875 250.714844 C 385.367188 253.589844 383.992188 256.808594 381.28125 258.800781 C 379.871094 259.71875 378.351562 258.644531 377.226562 257.8125 C 377.367188 261.503906 376.890625 265.226562 377.257812 268.902344 C 377.929688 270.417969 379.59375 273.316406 381.519531 271.65625 C 384.695312 269.382812 387.269531 265.898438 387.929688 261.988281 C 388.21875 258.203125 387.214844 254.472656 386.917969 250.714844 Z M 358.496094 232.632812 C 359.851562 234.132812 361.265625 236.023438 363.367188 236.453125 C 366.503906 235.835938 369.039062 233.609375 371.527344 231.734375 C 367.214844 232.457031 362.875 233.09375 358.496094 232.632812 Z M 410.335938 286.183594 C 408.140625 290.574219 404.421875 293.820312 400.59375 296.757812 C 403.339844 301.605469 404.71875 307.027344 405.722656 312.457031 C 409.640625 309.53125 413.089844 305.453125 413.980469 300.519531 C 414.847656 295.523438 413.699219 290.0625 410.335938 286.179688 Z M 276.695312 118.980469 C 272.71875 119.328125 269.484375 122.003906 266.359375 124.238281 C 267.023438 124.75 267.558594 125.585938 268.484375 125.609375 C 272.203125 126.03125 275.945312 126.210938 279.640625 126.828125 C 280.734375 126.941406 281.847656 127.269531 282.949219 127.101562 C 284.121094 126.585938 285.132812 125.789062 286.191406 125.085938 C 283.730469 122.277344 280.8125 118.789062 276.695312 118.980469 Z M 341.191406 207.234375 C 340.019531 207.621094 338.796875 208.496094 338.785156 209.851562 C 338.710938 212.71875 339.394531 215.53125 339.816406 218.351562 C 341.820312 219.421875 344.058594 219.925781 346.167969 220.726562 C 344.417969 221.324219 342.5625 221.300781 340.742188 221.371094 C 341.324219 224.792969 343.039062 228.011719 344.738281 231.042969 C 347.640625 235.792969 352.675781 240.523438 358.714844 239.421875 C 354.527344 236.167969 350.917969 232.023438 348.953125 227.058594 C 346.535156 220.59375 346.03125 213.503906 346.675781 206.679688 C 344.875 205.871094 342.925781 206.601562 341.191406 207.234375 Z M 259.945312 109.558594 C 257.640625 110.566406 254.921875 111.683594 253.824219 114.113281 C 257.238281 116.691406 261.054688 118.765625 264.050781 121.882812 C 267.640625 118.882812 271.863281 116.320312 276.582031 115.734375 C 273.488281 110.136719 265.992188 107.019531 259.945312 109.558594 Z M 315.710938 170.117188 C 300.402344 159.679688 281.632812 155.484375 263.320312 155.089844 C 236.726562 154.855469 210.242188 164.621094 189.957031 181.773438 C 170.648438 198.078125 157.097656 221.109375 152.394531 245.960938 C 148.105469 267.554688 150.433594 290.433594 159.109375 310.683594 C 165.355469 324.578125 174.492188 337.148438 185.734375 347.421875 C 193.078125 353.90625 201.316406 359.378906 210.074219 363.777344 C 230.070312 373.679688 253.238281 376.644531 275.203125 373.058594 C 298.167969 369.378906 319.636719 357.6875 335.589844 340.824219 C 352.78125 322.8125 363.265625 298.800781 365.8125 274.105469 C 366.699219 264.449219 367.082031 254.640625 365.59375 245.027344 C 362.238281 246.769531 358.425781 247.902344 354.609375 247.515625 C 350.476562 247.035156 346.714844 244.882812 343.625 242.171875 C 338.304688 237.476562 334.867188 231.007812 332.671875 224.335938 C 330.195312 216.890625 330.5 208.933594 329.152344 201.28125 C 327.863281 192.839844 324.742188 184.84375 321.992188 176.804688 C 321.097656 173.691406 318.152344 171.9375 315.710938 170.117188 Z M 388.417969 267.332031 C 386.769531 270.355469 384.703125 273.25 381.945312 275.359375 C 380.058594 276.710938 377.933594 275.175781 376.625 273.792969 C 376.363281 277.101562 375.636719 280.355469 375.359375 283.65625 C 375.535156 286.070312 376.8125 288.328125 378.316406 290.183594 C 379.789062 290.65625 381.128906 289.375 382.25 288.574219 C 385.152344 286.019531 388.214844 282.84375 388.394531 278.742188 C 388.636719 274.945312 388.597656 271.128906 388.417969 267.332031 Z M 273.054688 131.65625 C 270.085938 131.410156 267.46875 133.253906 265.3125 135.09375 C 262.609375 137.558594 260.019531 140.597656 259.40625 144.316406 C 263.410156 144.53125 267.425781 144.429688 271.429688 144.621094 C 273.546875 138.589844 279.273438 134.730469 285.300781 133.308594 C 281.285156 132.363281 277.160156 131.976562 273.054688 131.65625 Z M 415.21875 308.167969 C 412.96875 311.207031 410.371094 313.988281 407.289062 316.203125 C 408.753906 319.890625 409.605469 323.765625 410.066406 327.699219 C 415.601562 322.996094 417.136719 314.960938 415.21875 308.167969 Z M 250.441406 101.476562 C 245.746094 101.539062 241.425781 103.765625 237.671875 106.414062 C 242.136719 107.269531 246.371094 109.089844 250.074219 111.71875 C 253.414062 108.398438 257.632812 106.167969 262.089844 104.746094 C 258.589844 102.640625 254.566406 101.253906 250.441406 101.476562 Z M 393.976562 283.027344 C 393.492188 289.046875 392.59375 295.023438 391.816406 301 C 394.671875 299.039062 397.445312 296.351562 398.253906 292.859375 C 398.960938 289.039062 396.363281 285.6875 393.976562 283.027344 Z M 387.945312 286.226562 C 385.496094 289.371094 382.769531 292.75 378.871094 294.070312 C 376.371094 294.550781 375.011719 291.949219 373.925781 290.179688 C 373.191406 293.5625 372.296875 296.90625 371.257812 300.210938 C 370.386719 302.585938 371.621094 305.003906 372.507812 307.175781 C 373.042969 308.324219 373.882812 310.167969 375.46875 309.453125 C 379.519531 308.050781 383.089844 304.988281 385.292969 301.328125 C 387.117188 296.523438 387.503906 291.304688 387.945312 286.226562 Z M 398.5625 299.703125 C 396.492188 301.824219 394.164062 304.050781 391.085938 304.453125 C 390.625 306.609375 389.410156 308.746094 389.597656 310.960938 C 391.140625 314.34375 391.648438 318.035156 392.757812 321.558594 C 396.675781 319.128906 400.703125 315.714844 401.476562 310.90625 C 401.902344 306.957031 399.972656 303.265625 398.5625 299.703125 Z M 417.136719 326.710938 C 415.214844 329.027344 413.292969 331.398438 410.871094 333.226562 C 409.71875 334.140625 408.292969 334.78125 407.542969 336.121094 C 405.734375 338.9375 403.246094 341.230469 400.511719 343.144531 C 401.113281 348.136719 400.792969 353.316406 398.914062 358.027344 C 402.859375 354.070312 406.277344 349.621094 409.40625 345.007812 C 412.695312 339.234375 414.859375 332.925781 417.136719 326.710938 Z M 220.707031 100.777344 C 225.089844 100.929688 229.214844 102.507812 233.242188 104.113281 C 236.382812 101.042969 240.324219 99.070312 244.300781 97.328125 C 236.402344 98.128906 228.390625 98.664062 220.707031 100.777344 Z M 251.945312 118.609375 C 247.054688 118.9375 243.273438 122.792969 240.441406 126.46875 C 244.417969 126.339844 248.355469 125.714844 252.332031 125.558594 C 255.910156 125.222656 259.507812 125.441406 263.082031 125.253906 C 259.644531 122.726562 256.472656 118.910156 251.945312 118.609375 Z M 253.8125 131.421875 C 247.96875 133.878906 243.226562 139.570312 242.507812 145.953125 C 246.683594 145.421875 250.867188 144.898438 255.078125 144.628906 C 255.90625 142.371094 256.648438 140.035156 258.09375 138.089844 C 260.328125 134.933594 263.691406 132.816406 267.132812 131.179688 C 262.714844 130.96875 258.175781 130.515625 253.8125 131.421875 Z M 403.472656 315.996094 C 401.304688 319.136719 398.726562 322.019531 395.535156 324.15625 C 394.855469 324.746094 393.871094 325.117188 393.410156 325.910156 C 393.53125 327.945312 394.117188 329.925781 394.367188 331.957031 C 394.878906 335.289062 394.746094 338.664062 394.898438 342.019531 C 400.109375 339.972656 404.761719 335.621094 406.03125 330.035156 C 406.824219 325.246094 405.644531 320.273438 403.472656 315.996094 Z M 235.003906 110.785156 C 229.601562 111.089844 225.0625 114.691406 221.683594 118.65625 L 221.960938 119.199219 C 227.359375 120.285156 232.371094 122.582031 237.285156 124.992188 C 240.296875 120.898438 244.1875 117.246094 249.082031 115.597656 C 244.878906 112.921875 240.136719 110.457031 235.003906 110.785156 Z M 384.578125 306.179688 C 381.578125 308.964844 378.597656 312.410156 374.425781 313.285156 C 371.269531 313.804688 369.96875 310.257812 368.710938 308.070312 C 367.433594 311.347656 365.972656 314.558594 364.453125 317.738281 C 363.675781 319.289062 364.027344 321.074219 364.289062 322.710938 C 364.777344 324.679688 365.082031 327.089844 366.816406 328.363281 C 369.175781 328.671875 371.410156 327.425781 373.46875 326.425781 C 375.988281 324.898438 378.9375 323.355469 380.054688 320.441406 C 381.996094 315.839844 383.605469 311.078125 384.578125 306.179688 Z M 387.925781 315.753906 C 385.765625 322.34375 383.082031 328.734375 380.085938 334.980469 C 383.027344 333.421875 386.0625 331.824219 388.265625 329.261719 C 389.359375 328.003906 390.453125 326.402344 390.035156 324.660156 C 389.347656 321.683594 388.574219 318.730469 387.925781 315.753906 Z M 235.820312 133.078125 C 234.863281 133.304688 233.925781 133.664062 233.171875 134.308594 C 228.472656 138.195312 224.980469 143.988281 225.339844 150.257812 C 229.582031 148.914062 233.910156 147.847656 238.226562 146.742188 C 238.773438 143.886719 239.445312 140.957031 241.121094 138.53125 C 243.164062 135.46875 246.234375 133.324219 249.253906 131.328125 C 244.746094 131.625 240.226562 132.039062 235.820312 133.078125 Z M 216.863281 106.300781 C 212.203125 107.230469 208.382812 110.296875 205 113.476562 C 209.433594 113.75 213.660156 115.230469 217.660156 117.078125 C 220.550781 113.082031 224.480469 109.949219 228.835938 107.683594 C 225.136719 105.894531 220.871094 105.433594 216.863281 106.300781 Z M 391.242188 331.160156 C 388.652344 333.921875 385.484375 336.046875 382.144531 337.796875 C 382.808594 341.972656 382.699219 346.214844 382.25 350.398438 C 385.988281 349.53125 389.636719 347.449219 391.761719 344.199219 C 392.460938 339.882812 391.65625 335.472656 391.242188 331.160156 Z M 219.6875 123.511719 C 214.605469 125.300781 210.902344 129.867188 208.722656 134.65625 C 217.128906 131.539062 225.820312 129.214844 234.625 127.546875 C 229.925781 125.527344 224.964844 122.695312 219.6875 123.511719 Z M 397.109375 345.355469 C 394.605469 345.683594 393.296875 347.960938 391.460938 349.394531 C 389.628906 350.96875 387.460938 352.074219 385.234375 352.976562 C 385.578125 357.609375 384.886719 362.269531 383.296875 366.636719 C 386.875 365.691406 390.089844 363.636719 392.585938 360.929688 C 396.101562 356.601562 397.535156 350.859375 397.109375 345.359375 Z M 187.210938 110.9375 C 191.3125 110.589844 195.460938 110.882812 199.445312 111.996094 C 202.832031 108.253906 206.753906 104.984375 211.28125 102.71875 C 202.972656 104.511719 194.984375 107.53125 187.210938 110.9375 Z M 377.679688 326.367188 C 374.746094 328.664062 371.71875 331.113281 368.011719 331.960938 C 366.507812 332.269531 364.703125 332.34375 363.519531 331.203125 C 361.925781 329.363281 361.320312 326.9375 360.753906 324.636719 C 358.878906 328 356.871094 331.292969 354.613281 334.414062 C 353.234375 336.089844 353.296875 338.382812 353.34375 340.433594 C 353.496094 342.25 353.621094 344.230469 354.738281 345.757812 C 357.175781 346.90625 359.988281 345.96875 362.453125 345.355469 C 365.34375 344.324219 368.675781 343.332031 370.414062 340.609375 C 373.191406 336.050781 375.804688 331.375 377.679688 326.367188 Z M 230.117188 134.25 C 225.257812 135.207031 220.496094 136.613281 215.804688 138.210938 C 213.445312 138.957031 212.042969 141.1875 210.6875 143.105469 C 207.882812 147.246094 206.828125 152.453125 207.695312 157.375 C 212.066406 155.296875 216.515625 153.382812 221.058594 151.714844 C 221.164062 149.929688 221.214844 148.132812 221.605469 146.386719 C 222.699219 141.386719 226.300781 137.425781 230.121094 134.253906 Z M 386.691406 370.128906 C 386.539062 374.824219 384.957031 379.320312 382.921875 383.511719 C 386.25 381.355469 388.472656 378.011719 390.914062 374.980469 C 393.878906 370.988281 396.976562 367.066406 399.410156 362.722656 C 395.0625 365 391.269531 368.253906 386.691406 370.128906 Z M 379.335938 338.621094 C 378.058594 339.230469 377.257812 340.441406 376.519531 341.589844 C 374.230469 345.316406 371.910156 349.03125 369.390625 352.605469 C 369.011719 353.273438 368.195312 353.882812 368.488281 354.75 C 372.066406 353.867188 375.894531 352.613281 378.28125 349.640625 C 379.800781 347.089844 379.605469 343.980469 379.785156 341.121094 C 379.707031 340.28125 380.050781 339.246094 379.335938 338.621094 Z M 198.964844 119.058594 C 194.621094 121.199219 191.207031 125.152344 189.558594 129.699219 C 195.101562 129.726562 200.691406 130.367188 205.945312 132.210938 C 208.082031 127.511719 211.75 123.707031 215.949219 120.777344 C 210.890625 117.796875 204.492188 116.84375 198.964844 119.058594 Z M 379.789062 353.097656 C 376.953125 355.578125 373.398438 357.054688 369.730469 357.785156 C 369.582031 362.773438 368.839844 367.777344 366.90625 372.410156 C 371.09375 371.472656 375.59375 370.230469 378.457031 366.789062 C 381.292969 363.214844 381.832031 358.457031 381.726562 354.042969 C 381.074219 353.730469 380.429688 353.414062 379.792969 353.097656 Z M 195.65625 115.9375 C 192.222656 115.621094 188.683594 115.492188 185.363281 116.609375 C 180.257812 118.121094 176.507812 122.421875 174.269531 127.09375 C 178.054688 126.109375 182.027344 125.953125 185.890625 126.558594 C 188.550781 122.527344 191.410156 118.449219 195.65625 115.9375 Z M 367.039062 346.097656 C 362.859375 348.28125 358.078125 350.671875 353.246094 349.488281 C 349.964844 348.257812 349.761719 344.277344 349.488281 341.316406 C 346.585938 344.726562 343.65625 348.105469 340.460938 351.242188 C 339.238281 353.488281 339.304688 356.230469 339.402344 358.734375 C 339.601562 359.929688 339.480469 361.761719 341.050781 362.03125 C 344.761719 363.09375 348.753906 362.59375 352.398438 361.476562 C 354.015625 360.921875 355.84375 360.527344 356.949219 359.101562 C 360.625 355.023438 363.882812 350.589844 367.039062 346.097656 Z M 210.066406 140.121094 C 205.164062 141.816406 200.460938 144.039062 195.871094 146.445312 C 194.773438 147.070312 193.5 147.59375 192.824219 148.742188 C 190.527344 152.28125 188.933594 156.355469 188.609375 160.582031 C 188.382812 163.238281 189.109375 165.835938 189.753906 168.386719 C 194.25 165.21875 198.839844 162.183594 203.648438 159.511719 C 203.410156 156.398438 202.863281 153.179688 203.902344 150.148438 C 204.960938 146.277344 207.726562 143.261719 210.066406 140.121094 Z M 378.425781 371.945312 C 376.097656 373.363281 373.613281 374.507812 371.011719 375.3125 C 370.929688 379.6875 369.847656 384.046875 367.667969 387.867188 C 376.601562 385.617188 380.675781 380.613281 382.113281 371.585938 C 380.890625 371.640625 379.515625 371.210938 378.425781 371.945312 Z M 196.109375 133.667969 C 194.089844 133.496094 191.851562 133.375 190.152344 134.675781 C 186.210938 137.5 184.074219 142.300781 183.398438 146.996094 C 190.066406 143.046875 196.996094 139.558594 204.023438 136.316406 C 204.03125 136.058594 204.042969 135.539062 204.042969 135.277344 C 201.492188 134.386719 198.789062 133.957031 196.109375 133.667969 Z M 364.734375 358.871094 C 359.949219 364.398438 354.921875 369.730469 349.441406 374.570312 C 352.132812 374.976562 354.878906 374.542969 357.53125 374.011719 C 360.214844 373.296875 363.21875 372.148438 364.449219 369.441406 C 366 365.992188 366.578125 362.171875 366.761719 358.417969 Z M 156.679688 128.074219 C 160.804688 127.339844 164.921875 126.351562 169.140625 126.421875 C 170.949219 122.589844 173.214844 118.898438 176.4375 116.085938 C 169.488281 119.433594 162.964844 123.617188 156.679688 128.074219 Z M 367.894531 392.691406 C 367.433594 396.4375 365.410156 399.667969 363.421875 402.785156 C 368.972656 398.34375 374.257812 393.558594 379.101562 388.359375 C 375.503906 390.125 371.882812 391.980469 367.894531 392.691406 Z M 184.277344 130.273438 C 180.335938 129.949219 176.117188 130.15625 172.640625 132.226562 C 168.644531 134.792969 166.859375 139.554688 166.121094 144.050781 C 170.851562 143.988281 175.566406 143.167969 180.289062 143.71875 C 181.605469 139.578125 183.496094 135.496094 186.683594 132.460938 C 185.453125 132.265625 184.445312 131.589844 184.28125 130.273438 Z M 363.640625 375.464844 C 360.613281 377.0625 357.269531 377.890625 353.867188 378.164062 C 352.898438 382.90625 350.804688 387.285156 348.910156 391.703125 C 352.886719 392.410156 357.203125 391.304688 360.675781 389.269531 C 365.015625 386.550781 366.496094 381.28125 367.25 376.523438 C 366.035156 376.203125 364.863281 375.738281 363.640625 375.464844 Z M 352.617188 363.679688 C 348.09375 365.417969 342.867188 366.992188 338.152344 365.046875 C 334.78125 363.410156 335.285156 359.046875 335.304688 355.910156 C 331.625 359.269531 327.449219 362.007812 323.59375 365.132812 C 322.003906 368.085938 320.894531 371.800781 321.683594 375.113281 C 324.675781 377.273438 328.582031 377.664062 332.175781 377.648438 C 334.449219 377.421875 337.019531 377.53125 338.875 375.976562 C 343.722656 372.195312 348.515625 368.269531 352.613281 363.679688 Z M 189.546875 149.800781 C 184.882812 152.589844 180.085938 155.300781 176.015625 158.925781 C 173.722656 162.300781 172.910156 166.496094 173.039062 170.527344 C 173.132812 173.859375 174.6875 176.90625 176.269531 179.761719 C 179.464844 176.707031 182.789062 173.796875 186.25 171.046875 C 185.441406 168.34375 184.320312 165.613281 184.554688 162.734375 C 184.925781 158.035156 187.183594 153.78125 189.546875 149.800781 Z M 179.625 146.59375 C 176.011719 146.773438 171.941406 146.121094 168.789062 148.273438 C 165.5625 151.3125 164.3125 155.859375 163.667969 160.121094 C 162.617188 159.449219 161.558594 158.792969 160.503906 158.128906 C 161.234375 154.425781 162.664062 150.859375 164.757812 147.714844 C 163.570312 147.359375 162.554688 146.6875 161.871094 145.632812 C 158.546875 145.90625 155.21875 146.648438 152.347656 148.425781 C 152.546875 150.285156 152.59375 152.210938 151.769531 153.945312 C 150.085938 158.007812 147.996094 162.023438 147.628906 166.484375 C 151.9375 163.964844 156.910156 163.058594 161.851562 163.234375 C 167.390625 158.160156 173.425781 153.648438 179.652344 149.457031 C 179.636719 148.5 179.632812 147.542969 179.625 146.59375 Z M 159.039062 133.027344 C 154.539062 135.5625 152.046875 140.472656 150.804688 145.316406 C 154.453125 143.589844 158.359375 142.523438 162.335938 141.921875 C 163.203125 137.976562 165.089844 134.371094 167.375 131.070312 C 164.515625 131.214844 161.605469 131.71875 159.039062 133.03125 Z M 362.964844 393.128906 C 359.734375 394.421875 356.402344 395.472656 352.925781 395.832031 C 351.703125 400.390625 349.128906 404.417969 346.152344 408.027344 C 354.261719 407.292969 360.769531 400.738281 362.964844 393.128906 Z M 346.003906 377.695312 C 340.058594 382.460938 333.726562 386.710938 327.203125 390.652344 C 332.304688 391.363281 337.648438 391.941406 342.671875 390.496094 C 347.894531 388.714844 348.847656 382.550781 350.515625 378 C 349.007812 377.949219 347.5 377.875 346.003906 377.695312 Z M 153.285156 132.820312 C 144.847656 135.664062 138.933594 143.296875 136.269531 151.558594 C 139.4375 149.71875 142.777344 148.160156 146.351562 147.3125 C 147.207031 141.929688 149.847656 136.988281 153.285156 132.820312 Z M 344.523438 393.605469 C 340.960938 394.773438 337.191406 395.03125 333.472656 394.957031 C 331.222656 399.964844 328.144531 404.511719 324.824219 408.871094 C 329.761719 410.015625 335.140625 409.808594 339.773438 407.625 C 344.21875 405.332031 347.015625 400.863281 348.832031 396.355469 C 347.136719 395.871094 345.3125 395.375 344.523438 393.605469 Z M 172.007812 161.777344 C 168.238281 164.914062 164.402344 168.023438 161.148438 171.707031 C 158.28125 178.519531 159.859375 186.902344 165.246094 192.058594 C 167.882812 188.902344 170.441406 185.675781 173.296875 182.699219 C 172.0625 180.203125 170.367188 177.847656 169.929688 175.039062 C 169.09375 170.503906 170.625 166.027344 172.007812 161.773438 Z M 333.746094 379.757812 C 328.8125 380.671875 323.136719 380.988281 318.855469 377.917969 C 316.21875 375.554688 317.3125 371.683594 317.789062 368.65625 C 313.75 371.113281 309.472656 373.160156 305.265625 375.296875 C 303.265625 377.5625 301.984375 380.433594 301.21875 383.34375 C 300.53125 385.761719 303.183594 387.121094 305.003906 387.945312 C 308.542969 389.332031 312.425781 390.257812 316.238281 389.945312 C 322.351562 387.066406 328.164062 383.558594 333.746094 379.757812 Z M 337.859375 413.339844 C 335.371094 417.023438 332.34375 420.296875 329.113281 423.332031 C 331.921875 423.148438 334.300781 421.535156 336.785156 420.378906 C 341.875 417.738281 346.914062 414.949219 351.585938 411.625 C 347.101562 412.808594 342.496094 413.421875 337.859375 413.339844 Z M 132.484375 161.867188 C 130.765625 165.734375 129.570312 170.15625 130.550781 174.378906 C 132.675781 173.6875 134.332031 172.144531 136.226562 171.035156 C 138.660156 169.546875 141.445312 168.800781 144.167969 168.042969 C 144.808594 162.121094 147.140625 156.628906 149.019531 151.042969 C 142.1875 151.453125 135.421875 155.59375 132.484375 161.867188 Z M 322.617188 393.199219 C 316.347656 396.441406 309.878906 399.273438 303.21875 401.601562 C 308.746094 404.890625 315.605469 406.566406 321.902344 404.695312 C 325.972656 402.703125 327.71875 398.113281 330.011719 394.464844 C 327.523438 394.191406 325.074219 393.433594 322.617188 393.199219 Z M 148.792969 170.492188 C 147.304688 173.023438 146.449219 176.199219 147.046875 179.097656 C 150.417969 174.429688 154.496094 170.28125 158.644531 166.300781 C 155.105469 166.730469 151.070312 167.453125 148.792969 170.492188 Z M 157.929688 174.984375 C 154.644531 178.589844 151.320312 182.222656 148.671875 186.332031 C 147.570312 193.300781 150.015625 201.226562 156.40625 204.910156 C 158.644531 201.726562 160.609375 198.359375 162.921875 195.222656 C 160.445312 192.730469 158.222656 189.816406 157.464844 186.320312 C 156.402344 182.574219 157.363281 178.714844 157.929688 174.984375 Z M 133.941406 147.023438 C 130.160156 150.902344 126.386719 154.863281 123.40625 159.402344 C 125.914062 157.671875 128.453125 155.964844 131.199219 154.621094 C 132.003906 152.050781 132.953125 149.53125 133.941406 147.023438 Z M 321.796875 412.050781 C 320.515625 411.433594 320.71875 409.878906 320.71875 408.730469 C 318.746094 409.042969 316.753906 409.242188 314.753906 409.234375 C 311.699219 413.746094 307.742188 417.496094 304.128906 421.535156 C 310.359375 423.65625 317.5 423.671875 323.527344 420.871094 C 326.925781 419.339844 329.53125 416.597656 331.863281 413.769531 C 328.484375 413.472656 324.894531 413.613281 321.796875 412.050781 Z M 298.277344 387.902344 C 295.496094 384.980469 297.46875 380.882812 298.617188 377.710938 C 294.84375 379.246094 290.902344 380.277344 287.027344 381.492188 C 284.019531 383.464844 281.699219 386.480469 280.21875 389.75 C 279.496094 391.050781 280.300781 392.472656 281.335938 393.3125 C 284.265625 395.875 288.027344 397.207031 291.746094 398.136719 C 293.597656 398.738281 295.460938 397.882812 297.238281 397.4375 C 302.148438 395.910156 307.078125 394.332031 311.699219 392.0625 C 307.011719 391.933594 301.84375 391.234375 298.277344 387.902344 Z M 144.449219 171.25 C 140.734375 172.324219 136.933594 174.011719 134.484375 177.101562 C 132.425781 181.082031 132.695312 185.785156 133.117188 190.117188 C 135.605469 189.230469 138.265625 188.699219 140.605469 187.46875 C 141.777344 186.003906 142.773438 184.402344 143.902344 182.910156 C 143.496094 179.011719 143.808594 175.097656 144.449219 171.25 Z M 128.386719 161.316406 C 122.324219 165.410156 118.289062 172.3125 118.109375 179.671875 C 120.6875 177.683594 123.429688 175.871094 126.472656 174.683594 C 126.105469 170.132812 126.835938 165.585938 128.386719 161.316406 Z M 146.449219 189.3125 C 143.609375 193.195312 141.042969 197.320312 138.933594 201.644531 C 138.964844 208.65625 142.730469 216.089844 149.566406 218.660156 C 151.035156 215.222656 152.683594 211.871094 154.429688 208.566406 C 152.027344 206.828125 149.695312 204.84375 148.300781 202.175781 C 146.1875 198.25 146.019531 193.648438 146.449219 189.3125 Z M 299.625 403.742188 C 297.445312 408.011719 293.855469 411.289062 289.914062 413.914062 C 293.847656 416.386719 298.988281 417.828125 303.496094 416.1875 C 306.589844 414.285156 308.824219 411.308594 311.136719 408.574219 C 306.976562 407.847656 303.203125 405.890625 299.625 403.742188 Z M 307.191406 427.089844 C 303.742188 430.707031 299.578125 433.644531 294.96875 435.589844 C 301.34375 434.742188 307.527344 432.800781 313.589844 430.710938 C 316.394531 429.617188 319.386719 428.753906 321.726562 426.769531 C 316.921875 427.695312 312.035156 427.722656 307.191406 427.089844 Z M 118.886719 185.257812 C 116.945312 189.363281 116.515625 194.273438 117.867188 198.628906 C 118.285156 198.589844 119.132812 198.503906 119.558594 198.460938 C 122.570312 195.492188 126.179688 193.207031 130.054688 191.539062 C 129.203125 187.058594 129.324219 182.453125 130.234375 177.992188 C 125.757812 178.800781 121.289062 181.3125 118.886719 185.257812 Z M 137.953125 191.339844 C 132.3125 194.300781 125.917969 196.472656 121.664062 201.4375 C 119.410156 205.507812 120.4375 210.441406 121.523438 214.71875 C 123.585938 213.574219 125.679688 212.472656 127.628906 211.140625 C 128.855469 209.355469 129.523438 207.234375 130.527344 205.308594 C 132.707031 200.5 135.601562 196.066406 137.953125 191.339844 Z M 287.308594 405.925781 C 283.636719 406.753906 279.898438 407.203125 276.226562 408.011719 C 279.1875 409.78125 282.410156 411.789062 285.988281 411.613281 C 290.277344 410.574219 293.511719 407.183594 296.316406 403.960938 C 293.253906 404.328125 290.328125 405.347656 287.308594 405.925781 Z M 268.925781 384.539062 C 267.585938 384.707031 266.09375 384.664062 265.046875 385.664062 C 262.402344 387.710938 259.589844 389.828125 258.011719 392.851562 C 257.109375 394.753906 258.84375 396.539062 260.109375 397.765625 C 262.800781 399.992188 265.949219 401.996094 269.414062 402.683594 C 275.96875 402.289062 282.476562 401.132812 288.871094 399.632812 C 285.011719 398.855469 281.101562 397.605469 278.085938 394.980469 C 276.703125 393.78125 275.53125 391.996094 275.800781 390.097656 C 276.339844 387.453125 277.894531 385.164062 279.460938 383.019531 C 275.96875 383.660156 272.453125 384.203125 268.925781 384.542969 Z M 115.179688 170.234375 C 110.90625 175.945312 107.347656 182.15625 104.1875 188.542969 C 107.011719 185.976562 110.09375 183.746094 113.289062 181.675781 C 113.4375 177.789062 114.042969 173.953125 115.179688 170.234375 Z M 288.746094 417.390625 C 284.828125 421.742188 279.734375 424.683594 274.972656 428 C 279.726562 431.28125 285.835938 432.472656 291.5 431.496094 C 295.695312 430.792969 299.117188 428.058594 302.3125 425.441406 C 301.222656 424.59375 299.757812 423.886719 299.503906 422.390625 C 299.515625 421.578125 299.761719 420.8125 299.945312 420.042969 C 296.046875 420.214844 292.160156 419.28125 288.746094 417.390625 Z M 137.101562 204.949219 C 135.363281 208.296875 133.730469 211.707031 132.28125 215.1875 C 131.871094 216.28125 131.394531 217.449219 131.609375 218.644531 C 132.621094 223.363281 134.910156 227.992188 138.855469 230.921875 C 140.53125 232.050781 142.488281 232.632812 144.335938 233.421875 C 145.351562 229.722656 146.546875 226.074219 147.949219 222.507812 C 145.5625 221.148438 143.019531 219.863281 141.296875 217.652344 C 138.457031 214.050781 137.527344 209.410156 137.101562 204.949219 Z M 273.96875 410.175781 C 271.019531 413.734375 266.925781 415.929688 262.828125 417.890625 C 266.328125 420.742188 270.8125 423.347656 275.484375 422.699219 C 279.605469 421.085938 283.261719 418.316406 286.292969 415.105469 C 281.789062 414.699219 277.554688 412.898438 273.96875 410.175781 Z M 113.761719 186.992188 C 110.546875 189.046875 107.480469 191.570312 105.683594 195.019531 C 103.808594 198.75 103.910156 203.09375 104.34375 207.140625 C 107.042969 204.15625 110.070312 201.375 113.773438 199.6875 C 113.023438 195.488281 113.132812 191.195312 113.761719 186.992188 Z M 246.34375 384.800781 C 243.5 385.75 241.054688 387.6875 238.84375 389.671875 C 237.824219 390.738281 236.257812 392.007812 236.679688 393.691406 C 237.777344 397.121094 240.632812 399.667969 243.550781 401.625 C 245.167969 402.816406 247.257812 402.71875 249.167969 402.921875 C 254.039062 403.371094 258.941406 403.230469 263.828125 403.0625 C 259.644531 401.246094 254.976562 398.617188 253.640625 393.949219 C 253.636719 390.316406 256.582031 387.523438 258.992188 385.160156 C 254.765625 385.28125 250.558594 384.824219 246.34375 384.800781 Z M 135.917969 233.390625 C 132.601562 230.167969 131.082031 225.625 130.113281 221.214844 C 128.71875 225.757812 126.859375 230.269531 126.398438 235.03125 C 126.972656 237.75 128.570312 240.210938 130.152344 242.480469 C 132.722656 245.976562 136.824219 247.84375 141.007812 248.554688 C 141.628906 244.824219 142.414062 241.117188 143.195312 237.414062 C 140.5625 236.523438 137.964844 235.320312 135.917969 233.390625 Z M 250.921875 408.835938 C 253.535156 411.195312 256.308594 414.105469 260.03125 414.394531 C 264.449219 414.230469 268.191406 411.386719 271.402344 408.59375 C 264.578125 408.792969 257.753906 409.039062 250.921875 408.835938 Z M 117.050781 202.726562 C 112.871094 204.132812 109.109375 207.089844 106.996094 210.988281 C 105.042969 215.574219 105.671875 220.90625 107.363281 225.472656 C 108.484375 224.832031 109.714844 224.28125 110.507812 223.226562 C 112.808594 220.445312 115.6875 218.238281 118.667969 216.238281 C 117.164062 211.90625 116.753906 207.289062 117.050781 202.726562 Z M 125.804688 215.902344 C 121.785156 218.332031 117.640625 220.714844 114.421875 224.195312 C 113.019531 225.722656 111.375 227.421875 111.320312 229.636719 C 111.359375 233.378906 112.679688 236.976562 114.265625 240.320312 C 116.050781 238.765625 118.234375 237.617188 119.792969 235.84375 C 121.488281 229.113281 123.265625 222.382812 125.804688 215.902344 Z M 276.925781 434.121094 C 273.628906 436.277344 270.140625 438.167969 266.378906 439.386719 C 269.117188 439.625 271.859375 439.277344 274.582031 438.980469 C 278.390625 438.46875 282.339844 438.253906 285.847656 436.507812 C 282.824219 435.898438 279.753906 435.394531 276.921875 434.125 Z M 227.863281 381.679688 C 223.835938 382.804688 219.753906 384.414062 216.65625 387.308594 C 215.664062 388.839844 216.671875 390.757812 217.375 392.214844 C 219.144531 395.085938 221.320312 398.359375 224.859375 399.09375 C 229.6875 400.210938 234.5625 401.167969 239.496094 401.730469 C 236.648438 399.203125 233.230469 396.390625 232.75 392.371094 C 232.921875 388.375 236.683594 385.914062 239.578125 383.757812 C 235.652344 383.164062 231.773438 382.261719 227.867188 381.679688 Z M 271.007812 425.941406 C 267.222656 425.121094 263.84375 423.09375 260.855469 420.6875 C 256.128906 424.195312 250.511719 426.089844 245.179688 428.433594 C 249.027344 431.8125 253.867188 433.972656 258.878906 434.914062 C 263.632812 435.75 268.410156 434.078125 272.429688 431.628906 C 271.671875 430.832031 270.832031 430.113281 270.242188 429.199219 C 270.15625 428.050781 270.6875 427 271.007812 425.941406 Z M 99.667969 198.148438 C 96.421875 204.695312 94.222656 211.714844 92.1875 218.71875 C 94.3125 215.261719 97.09375 212.304688 100.09375 209.589844 C 99.292969 205.828125 99.269531 201.960938 99.667969 198.148438 Z M 140.433594 252.628906 C 137.410156 251.878906 134.269531 251.058594 131.824219 249.019531 C 128.597656 246.375 126.992188 242.40625 125.304688 238.710938 C 124.273438 243.191406 123.164062 247.769531 123.246094 252.390625 C 125.042969 256.386719 128.222656 259.855469 132.136719 261.859375 C 134.453125 263.070312 137.089844 263.289062 139.628906 263.578125 C 139.636719 259.910156 140.207031 256.277344 140.433594 252.628906 Z M 248.328125 410.488281 C 244.464844 413.464844 239.75 414.777344 235.292969 416.558594 C 238.457031 419.707031 242.226562 423.457031 247.015625 423.363281 C 251.324219 422.382812 255.496094 420.554688 259.121094 418.007812 C 254.796875 416.722656 251.351562 413.703125 248.328125 410.488281 Z M 101.625 214.652344 C 98.996094 217.050781 96.542969 219.828125 95.390625 223.253906 C 93.867188 227.378906 94.625 231.863281 95.820312 235.960938 C 97.96875 232.480469 100.699219 229.386719 103.871094 226.804688 C 102.621094 222.863281 101.941406 218.769531 101.625 214.652344 Z M 230.5625 406.253906 C 232.226562 408.40625 234.292969 410.601562 237.109375 411.0625 C 240.308594 411.800781 243.449219 410.238281 245.96875 408.417969 C 240.847656 407.652344 235.6875 407.058594 230.5625 406.253906 Z M 118.792969 240.800781 C 114.464844 244.371094 110.25 248.351562 107.792969 253.488281 C 107.175781 254.699219 107.167969 256.113281 107.523438 257.40625 C 108.460938 260.75 110.371094 263.714844 112.460938 266.445312 C 113.859375 264.527344 116.714844 263.21875 116.542969 260.519531 C 116.871094 253.90625 117.617188 247.316406 118.792969 240.800781 Z M 130.007812 264.59375 C 126.769531 262.453125 124.867188 258.957031 122.800781 255.792969 C 122.261719 260.179688 121.835938 264.683594 122.570312 269.070312 C 123.9375 272.199219 126.675781 274.527344 129.398438 276.492188 C 132.441406 278.722656 136.34375 278.738281 139.953125 278.785156 C 139.691406 275.082031 139.542969 271.371094 139.496094 267.664062 C 136.183594 267.257812 132.777344 266.5625 130.007812 264.59375 Z M 210.210938 375.738281 C 207.140625 375.667969 204.117188 376.6875 201.285156 377.789062 C 199.335938 378.714844 196.445312 380 197.003906 382.65625 C 197.640625 385.449219 198.992188 388.203125 200.871094 390.363281 C 206.082031 393.207031 211.835938 394.878906 217.375 396.980469 C 215.132812 393.875 211.746094 390.425781 212.652344 386.269531 C 214.414062 382.9375 218.078125 381.1875 221.363281 379.683594 C 217.613281 378.46875 213.945312 376.984375 210.210938 375.738281 Z M 107.585938 229.140625 C 103.992188 231.480469 100.9375 234.777344 99.152344 238.695312 C 97.542969 243.792969 99.3125 249.285156 101.917969 253.734375 C 103.109375 252.921875 104.558594 252.289062 105.136719 250.871094 C 106.851562 247.621094 109.328125 244.859375 111.976562 242.34375 C 109.546875 238.324219 108.226562 233.765625 107.585938 229.140625 Z M 245.855469 434.703125 C 241.367188 436.519531 236.648438 437.691406 231.828125 438.195312 C 234.746094 438.820312 237.734375 439.007812 240.695312 439.308594 C 246.652344 439.746094 252.707031 440.574219 258.65625 439.769531 C 254.210938 438.5625 249.847656 437.0625 245.855469 434.703125 Z M 130.925781 281.132812 C 127.128906 279.402344 124.75 275.839844 122.1875 272.71875 C 122.578125 277.40625 122.617188 282.136719 123.421875 286.785156 C 123.582031 288.144531 124.652344 289.109375 125.492188 290.105469 C 127.964844 292.804688 131.082031 295.136719 134.734375 295.890625 C 137.378906 296.457031 140.066406 295.890625 142.695312 295.527344 C 141.839844 291.265625 141.03125 286.996094 140.402344 282.699219 C 137.195312 282.675781 133.839844 282.671875 130.925781 281.132812 Z M 194.3125 367.316406 C 190.382812 366.503906 186.449219 368.039062 183.019531 369.847656 C 179.28125 371.804688 174.996094 372.066406 170.871094 371.667969 C 178.4375 378.152344 186.824219 383.839844 195.898438 387.964844 C 194.617188 385.132812 192.484375 381.867188 193.984375 378.699219 C 195.996094 374.980469 200.421875 373.691406 204.257812 372.789062 C 200.90625 371.023438 197.609375 369.167969 194.3125 367.316406 Z M 226.089844 405.375 C 224.496094 404.613281 222.707031 404.261719 220.964844 404.042969 C 217.652344 405.132812 214.230469 405.789062 210.839844 406.597656 C 213.515625 410.640625 217.179688 414.453125 221.949219 415.882812 C 226.203125 416.660156 230.34375 414.742188 234.316406 413.492188 C 230.886719 411.554688 228.289062 408.574219 226.089844 405.375 Z M 232.070312 418.082031 C 226.730469 419.875 221.101562 420.566406 215.757812 422.332031 C 219.351562 427.820312 225.136719 431.988281 231.679688 433.015625 C 235.277344 433.558594 238.832031 432.492188 242.273438 431.585938 C 240.644531 429.996094 239.902344 427.519531 241.742188 425.78125 C 237.84375 424.199219 234.828125 421.148438 232.070312 418.082031 Z M 89.882812 228.238281 C 88.550781 231.460938 88.074219 234.945312 87.445312 238.351562 C 86.839844 242.324219 86.097656 246.296875 85.898438 250.320312 C 87.449219 246.429688 89.542969 242.792969 92.230469 239.582031 C 90.679688 236 89.976562 232.128906 89.882812 228.238281 Z M 131.859375 298.628906 C 128.832031 297.242188 126.675781 294.625 124.460938 292.238281 C 125.011719 297.191406 126.523438 301.976562 127.796875 306.78125 C 128.585938 310.695312 132.097656 313.351562 135.613281 314.78125 C 139.96875 316.59375 144.753906 315.695312 149.175781 314.675781 C 147.027344 309.761719 145.359375 304.664062 143.804688 299.542969 C 139.847656 300.332031 135.550781 300.523438 131.859375 298.628906 Z M 116.457031 267.003906 C 113.167969 270.992188 109.109375 275.21875 108.773438 280.652344 C 109.453125 285.351562 113.179688 288.851562 116.058594 292.378906 C 116.667969 291.875 117.257812 291.359375 117.832031 290.828125 C 118.085938 289.269531 117.722656 287.679688 117.59375 286.121094 C 116.742188 279.789062 116.527344 273.394531 116.457031 267.007812 Z M 179.832031 356.664062 C 179.042969 356.015625 178.273438 355.15625 177.167969 355.183594 C 171.992188 354.683594 167.152344 357.425781 161.992188 357.105469 C 159.40625 356.996094 156.917969 356.257812 154.4375 355.605469 C 157.980469 359.660156 161.691406 363.585938 165.667969 367.230469 C 166.921875 368.617188 168.707031 369.359375 170.566406 369.375 C 177.140625 369.761719 182.261719 364.796875 188.429688 363.394531 C 185.460938 361.289062 182.59375 359.042969 179.832031 356.664062 Z M 200.882812 396.820312 C 199.507812 396.285156 198.105469 395.347656 196.578125 395.8125 C 193.382812 396.636719 190.074219 396.046875 186.832031 396.40625 C 185.832031 396.777344 187.019531 397.753906 187.097656 398.386719 C 188.546875 401.265625 190.699219 403.726562 193.039062 405.90625 C 193.898438 406.722656 194.980469 407.378906 196.203125 407.394531 C 199.691406 407.570312 203.167969 407.027344 206.597656 406.441406 C 207.542969 402.636719 212.230469 403.1875 215.214844 402.203125 C 210.4375 400.40625 205.546875 398.890625 200.882812 396.816406 Z M 150.800781 318.515625 C 146.847656 319.488281 142.628906 320.425781 138.617188 319.160156 C 135.527344 318.324219 132.925781 316.417969 130.421875 314.5 C 132.8125 320.339844 135.0625 326.289062 138.308594 331.714844 C 140.644531 334.515625 144.472656 335.398438 147.925781 335.914062 C 152.03125 336.554688 155.917969 334.792969 159.800781 333.777344 C 156.378906 328.945312 153.816406 323.589844 150.800781 318.515625 Z M 94.308594 244.558594 C 92.074219 247.597656 90.226562 251.101562 89.898438 254.921875 C 89.574219 259.074219 91.089844 263.167969 93.40625 266.566406 C 94.207031 262.535156 96.425781 258.980469 99.066406 255.902344 C 96.726562 252.476562 95.398438 248.523438 94.308594 244.558594 Z M 103.757812 256.878906 C 100.554688 259.832031 97.679688 263.714844 97.449219 268.226562 C 97.320312 272.816406 99.839844 276.960938 102.492188 280.519531 C 103.570312 279.367188 105.410156 278.753906 105.808594 277.09375 C 106.773438 274.027344 108.589844 271.347656 110.570312 268.851562 C 107.445312 265.410156 105.023438 261.355469 103.757812 256.878906 Z M 162.554688 337.675781 C 159.347656 338.003906 156.40625 339.535156 153.191406 339.785156 C 148.871094 340.234375 144.671875 338.597656 140.933594 336.589844 C 143.558594 341.476562 146.867188 345.957031 150.195312 350.386719 C 151.570312 352.566406 154.253906 353.136719 156.597656 353.636719 C 162.566406 354.847656 168.140625 351.566406 173.996094 351.078125 C 169.832031 346.917969 166.058594 342.390625 162.550781 337.675781 Z M 208.421875 409.152344 C 202.558594 410.964844 196.382812 411.0625 190.339844 411.847656 C 193.398438 417.546875 197.773438 422.992188 203.953125 425.421875 C 206.792969 426.558594 209.910156 426.082031 212.855469 425.742188 C 212.179688 424.144531 210.707031 422.253906 211.808594 420.503906 C 213.175781 418.707031 215.625 418.429688 217.617188 417.703125 C 213.824219 415.757812 210.867188 412.585938 208.421875 409.152344 Z M 118.824219 294.277344 C 115.039062 297.410156 111.511719 301.652344 111.03125 306.714844 C 111.957031 312.488281 116.589844 316.925781 121.363281 319.914062 C 122.007812 317.582031 122.84375 315.3125 123.863281 313.125 C 121.847656 306.9375 120.070312 300.667969 118.824219 294.277344 Z M 175.84375 383.035156 C 172.496094 383.175781 169.152344 383.03125 165.828125 382.539062 C 166.40625 385.40625 167.523438 388.148438 169.203125 390.554688 C 170.070312 391.742188 170.953125 393.179688 172.488281 393.550781 C 175.625 394.40625 178.875 394.6875 182.097656 395.015625 C 182.984375 394.136719 183.800781 392.859375 185.195312 392.871094 C 187.671875 392.722656 190.140625 393.109375 192.613281 392.984375 C 186.855469 389.957031 181.320312 386.519531 175.84375 383.035156 Z M 215.996094 429.710938 C 211.875 430.410156 207.738281 431.027344 203.566406 431.285156 C 206.125 432.628906 209.007812 433.144531 211.753906 433.976562 C 215.882812 435.042969 220.160156 436.492188 224.464844 435.515625 C 221.289062 434.121094 218.671875 431.839844 215.996094 429.710938 Z M 105.570312 282.777344 C 102.546875 286.59375 99.691406 290.980469 99.46875 296 C 99.25 300.9375 101.722656 305.554688 104.90625 309.160156 C 105.714844 307.449219 106.613281 305.753906 108 304.433594 C 108.703125 300.503906 110.996094 297.089844 113.800781 294.34375 C 110.394531 291.003906 107.691406 287.039062 105.570312 282.777344 Z M 85.285156 259.433594 C 84.792969 267.441406 84.96875 275.5 85.792969 283.488281 C 86.585938 279.035156 87.691406 274.578125 89.972656 270.644531 C 87.972656 267.105469 86.144531 263.433594 85.285156 259.433594 Z M 93.890625 273.144531 C 92.246094 276.199219 90.929688 279.578125 90.996094 283.097656 C 91.042969 287.203125 93.277344 290.832031 95.75 293.949219 C 96.175781 290.082031 98.316406 286.707031 99.910156 283.328125 C 97.378906 280.265625 95.296875 276.867188 93.890625 273.144531 Z M 125.542969 318.011719 C 124.234375 321.164062 123.386719 324.476562 122.589844 327.785156 C 121.90625 331.179688 121.183594 334.808594 122.226562 338.199219 C 124.816406 342.898438 130.039062 345.335938 134.941406 346.914062 C 135.125 344.617188 135.914062 342.414062 136.136719 340.136719 C 132.226562 332.953125 128.460938 325.667969 125.542969 318.011719 Z M 154.652344 364.457031 C 154.273438 370.039062 154.914062 375.988281 158.0625 380.765625 C 159.414062 381.636719 160.992188 382.058594 162.492188 382.621094 C 162.6875 381.261719 162.988281 379.484375 164.65625 379.25 C 167.152344 378.941406 169.554688 380.046875 172.039062 380.160156 C 165.914062 375.308594 159.984375 370.175781 154.652344 364.457031 Z M 183.128906 398.324219 C 177.402344 398.238281 171.738281 397.382812 166.0625 396.714844 C 167.234375 402.921875 170.484375 408.863281 175.558594 412.703125 C 178.925781 415.238281 183.269531 415.5625 187.328125 415.515625 C 186.742188 413.875 185.625 412.1875 186.085938 410.386719 C 186.683594 408.640625 188.765625 408.519531 190.257812 408.039062 C 187.363281 405.210938 185.117188 401.824219 183.128906 398.324219 Z M 138.832031 344.265625 C 137.671875 348.519531 137.539062 353.046875 138.132812 357.40625 C 138.527344 359.074219 138.574219 361.15625 140.105469 362.257812 C 143.363281 364.699219 147.300781 366.066406 151.273438 366.839844 C 151.421875 365.082031 151.742188 363.355469 152.054688 361.632812 C 147.347656 356.078125 142.921875 350.292969 138.832031 344.269531 Z M 189.988281 419.789062 C 184.605469 420.132812 179.226562 419.566406 173.929688 418.632812 C 179.386719 421.886719 185.238281 424.429688 191.136719 426.78125 C 193.601562 427.761719 196.289062 427.996094 198.921875 427.921875 C 195.511719 425.726562 192.480469 423 189.988281 419.789062 Z M 108.496094 310.433594 C 106.332031 316.5 104.726562 323.308594 106.851562 329.613281 C 108.59375 334.871094 113.722656 337.992188 118.648438 339.84375 C 118.011719 334.191406 118.546875 328.484375 120.351562 323.089844 C 115.164062 320.261719 110.808594 315.921875 108.496094 310.433594 Z M 138.238281 365.273438 C 137.734375 370.589844 138.691406 376.152344 141.839844 380.566406 C 142.433594 379.632812 143.011719 378.121094 144.394531 378.316406 C 147.46875 378.519531 150.40625 379.542969 153.417969 380.089844 L 153.695312 379.796875 C 152.535156 376.664062 151.699219 373.417969 151.417969 370.085938 C 146.8125 369.164062 142.3125 367.640625 138.238281 365.273438 Z M 145.160156 381.839844 C 145.339844 386.683594 147.566406 391.25 150.246094 395.203125 C 152.988281 399.09375 158.023438 399.910156 162.429688 400.378906 C 162.179688 398.472656 161.433594 396.410156 162.285156 394.566406 C 163.238281 393.058594 165.199219 393.238281 166.738281 393.042969 C 165.445312 390.828125 164.371094 388.503906 163.386719 386.140625 C 157.5 384.019531 151.277344 383.050781 145.160156 381.839844 Z M 121.6875 343.234375 C 121 347.65625 120.71875 352.523438 122.953125 356.578125 C 125.308594 360.890625 130.191406 362.746094 134.574219 364.292969 C 134.960938 363.546875 135.34375 362.8125 135.734375 362.089844 C 134.78125 358.191406 134.328125 354.167969 134.664062 350.167969 C 129.855469 348.898438 125.511719 346.371094 121.6875 343.234375 Z M 86.402344 286.921875 C 86.621094 293.941406 87.941406 300.875 89.589844 307.6875 C 90.253906 304.121094 90.96875 300.554688 92.238281 297.140625 C 89.808594 294.023438 87.992188 290.523438 86.402344 286.921875 Z M 95.753906 300.703125 C 92.324219 309.566406 95.195312 320.292969 102.054688 326.730469 C 101.679688 322.015625 102.191406 317.269531 103.589844 312.753906 C 100.035156 309.429688 97.289062 305.324219 95.753906 300.703125 Z M 148.230469 401.257812 C 152.496094 405.132812 157.273438 408.414062 162.132812 411.507812 C 164.527344 413.164062 167.5 413.421875 170.246094 414.183594 C 167.769531 411.496094 165.59375 408.515625 164.019531 405.210938 C 158.601562 404.628906 153.273438 403.335938 148.230469 401.257812 Z M 106.734375 336.875 C 106.59375 340.191406 106.929688 343.605469 108.160156 346.71875 C 110.027344 351.074219 113.972656 354.101562 118.085938 356.203125 C 117.265625 352.011719 117.253906 347.707031 117.464844 343.453125 C 113.503906 341.976562 109.816406 339.785156 106.734375 336.875 Z M 123.320312 363.164062 C 123.832031 367.152344 124.691406 371.359375 127.457031 374.445312 C 130.027344 377.511719 133.828125 379.097656 137.542969 380.292969 C 135.542969 376.542969 134.84375 372.265625 134.449219 368.082031 C 130.582031 366.84375 126.734375 365.40625 123.320312 363.164062 Z M 95.417969 326.425781 C 97.3125 332.082031 99.515625 337.667969 102.324219 342.933594 C 101.921875 339.570312 101.988281 336.179688 102.308594 332.816406 C 99.777344 330.941406 97.667969 328.605469 95.417969 326.425781 Z M 126.347656 380.039062 C 129.792969 384.039062 133.449219 387.871094 137.371094 391.414062 C 139.671875 393.492188 142.648438 394.511719 145.472656 395.667969 C 143.605469 392.726562 142.191406 389.523438 141.28125 386.164062 C 136.027344 384.882812 130.941406 382.917969 126.347656 380.039062 Z M 109.074219 355.769531 C 112.800781 362.191406 116.953125 368.367188 121.507812 374.234375 C 119.867188 370.136719 118.941406 365.824219 118.4375 361.457031 C 115.078125 359.976562 111.96875 358.007812 109.074219 355.769531 Z M 109.074219 355.769531 " fill-opacity="1" fill-rule="evenodd"/></g></g></g></g></g></g></g></svg>
